<svg width="24" height="24" viewBox="0 0 24 24" fill="none" xmlns="http://www.w3.org/2000/svg">
<path d="M16.18 19.6L14.17 16.12C15.15 15.4 15.83 14.28 15.97 13H20C19.9174 14.3207 19.5294 15.6042 18.8666 16.7495C18.2037 17.8947 17.284 18.8705 16.18 19.6ZM13 7.03V3C17.3 3.26 20.74 6.7 21 11H16.97C16.8583 9.98546 16.4042 9.03928 15.6824 8.31756C14.9607 7.59584 14.0145 7.14168 13 7.03ZM7 12.5C7 13.14 7.13 13.75 7.38 14.3L3.9 16.31C3.30482 15.1283 2.99649 13.8231 3 12.5C3 7.97 6.54 4.27 11 4V8.03C8.75 8.28 7 10.18 7 12.5ZM11.5 21C8.53 21 5.92 19.5 4.4 17.18L7.88 15.17C8.29635 15.7389 8.84134 16.2012 9.47047 16.5193C10.0996 16.8373 10.795 17.002 11.5 17C12.14 17 12.75 16.87 13.3 16.62L15.31 20.1C14.16 20.68 12.87 21 11.5 21Z" fill="black"/>
</svg>
