<svg width="24" height="24" viewBox="0 0 24 24" fill="none" xmlns="http://www.w3.org/2000/svg">
<path d="M20 14.9999V17.9999H23V19.9999H20V22.9999H18V19.9999H15V17.9999H18V14.9999H20ZM12 12.9999C10.9 12.9999 10 13.8999 10 14.9999C10 16.0999 10.9 16.9999 12 16.9999C13.1 16.9999 14 16.0999 14 14.9999C14 13.8999 13.1 12.9999 12 12.9999ZM13.35 20.9999H5.5C4.58 20.9999 3.81 20.3799 3.58 19.5399L1.04 10.2699C1 10.1799 1 10.0899 1 9.99991C1 9.44991 1.45 8.99991 2 8.99991H6.79L11.17 2.44991C11.2602 2.3126 11.3829 2.19971 11.5272 2.12126C11.6716 2.04282 11.833 2.00125 11.9973 2.00026C12.1616 1.99927 12.3236 2.03889 12.4688 2.11559C12.6141 2.19229 12.7382 2.3037 12.83 2.43991L17.21 8.99991H22C22.55 8.99991 23 9.44991 23 9.99991L22.97 10.2699L22 13.8099C21.43 13.4999 20.79 13.2399 20.12 13.1099L20.7 10.9999H3.31L5.5 18.9999H13C13 19.6999 13.13 20.3699 13.35 20.9999ZM9.2 8.99991H14.8L12 4.79991L9.2 8.99991Z" fill="black"/>
</svg>
