<svg width="50" height="41" viewBox="0 0 50 41" fill="none" xmlns="http://www.w3.org/2000/svg">
<rect y="0.5" width="50" height="40" rx="6" fill="#55D6BE"/>
<g clip-path="url(#clip0_4905_8313)">
<path d="M29.9423 19.3364C29.6716 19.6088 29.4643 19.9375 29.3352 20.2991C29.206 20.6607 29.1582 21.0464 29.1952 21.4286L29.1823 21.4157C29.2203 21.8656 29.1596 22.3184 29.0045 22.7424C28.8495 23.1664 28.6037 23.5515 28.2845 23.8708C27.9652 24.19 27.5802 24.4358 27.1561 24.5908C26.7321 24.7459 26.2793 24.8066 25.8295 24.7686L25.8423 24.7814C25.3042 24.7314 24.7637 24.8484 24.2945 25.1168C23.8253 25.3851 23.4503 25.7916 23.2207 26.2809C22.991 26.7702 22.9178 27.3184 23.0111 27.8508C23.1045 28.3831 23.3597 28.8738 23.742 29.2558C24.1244 29.6378 24.6152 29.8926 25.1477 29.9854C25.6802 30.0782 26.2282 30.0045 26.7173 29.7744C27.2064 29.5443 27.6125 29.169 27.8805 28.6996C28.1484 28.2301 28.265 27.6896 28.2145 27.1514L28.228 27.1643C28.19 26.7144 28.2507 26.2616 28.4057 25.8376C28.5608 25.4136 28.8066 25.0285 29.1258 24.7092C29.4451 24.39 29.8302 24.1442 30.2542 23.9892C30.6782 23.8341 31.131 23.7734 31.5809 23.8114L31.5673 23.7986C32.0069 23.8381 32.4494 23.766 32.8537 23.589C33.258 23.412 33.6112 23.1358 33.8803 22.786C34.1495 22.4362 34.326 22.0241 34.3935 21.5879C34.461 21.1517 34.4172 20.7056 34.2664 20.2907C34.1155 19.8759 33.8624 19.5059 33.5305 19.215C33.1985 18.9241 32.7985 18.7216 32.3675 18.6265C31.9365 18.5314 31.4885 18.5465 31.0649 18.6706C30.6413 18.7947 30.256 19.0237 29.9445 19.3364H29.9423Z" fill="#111111"/>
<path d="M24.6727 23.0971L24.6591 23.0843C25.0415 23.1228 25.4276 23.0759 25.7897 22.9469C26.1517 22.8179 26.4805 22.6101 26.7524 22.3384C27.0242 22.0668 27.2323 21.7381 27.3615 21.3761C27.4908 21.0142 27.538 20.6281 27.4998 20.2457L27.5134 20.2586C27.4754 19.8086 27.5361 19.3559 27.6911 18.9319C27.8462 18.5079 28.092 18.1228 28.4112 17.8035C28.7305 17.4843 29.1155 17.2385 29.5395 17.0835C29.9636 16.9284 30.4163 16.8677 30.8663 16.9057L30.8527 16.8929C31.3909 16.9434 31.9315 16.8267 32.401 16.5586C32.8705 16.2906 33.2458 15.8843 33.4758 15.3951C33.7058 14.9059 33.7793 14.3576 33.6863 13.8251C33.5933 13.2926 33.3383 12.8018 32.956 12.4195C32.5738 12.0373 32.0829 11.7823 31.5504 11.6893C31.0179 11.5962 30.4697 11.6698 29.9805 11.8998C29.4913 12.1298 29.085 12.5051 28.8169 12.9745C28.5488 13.444 28.4321 13.9847 28.4827 14.5229L28.4698 14.5093C28.5079 14.9592 28.4473 15.412 28.2923 15.8361C28.1373 16.2602 27.8915 16.6453 27.5723 16.9646C27.253 17.2839 26.8679 17.5296 26.4438 17.6846C26.0197 17.8396 25.5669 17.9002 25.117 17.8621L25.1298 17.8757C24.7475 17.8372 24.3613 17.8841 23.9993 18.0131C23.6373 18.1421 23.3084 18.3499 23.0365 18.6216C22.7647 18.8932 22.5566 19.2219 22.4273 19.5839C22.2981 19.9458 22.2509 20.3319 22.2891 20.7143L22.2763 20.7014C22.3141 21.1513 22.2533 21.604 22.0983 22.028C21.9431 22.4519 21.6974 22.837 21.3782 23.1562C21.0589 23.4754 20.6739 23.7211 20.2499 23.8763C19.826 24.0314 19.3733 24.0921 18.9234 24.0543L18.9363 24.0671C18.3981 24.0166 17.8574 24.1333 17.3879 24.4014C16.9185 24.6694 16.5432 25.0757 16.3132 25.5649C16.0832 26.0541 16.0096 26.6024 16.1027 27.1349C16.1957 27.6674 16.4507 28.1582 16.833 28.5404C17.2152 28.9227 17.706 29.1777 18.2385 29.2707C18.7711 29.3637 19.3193 29.2902 19.8085 29.0602C20.2977 28.8302 20.704 28.4549 20.972 27.9855C21.2401 27.516 21.3568 26.9754 21.3063 26.4371L21.3198 26.45C21.2818 26.0001 21.3425 25.5474 21.4976 25.1233C21.6526 24.6993 21.8984 24.3142 22.2176 23.9949C22.5369 23.6757 22.922 23.4299 23.346 23.2749C23.77 23.1199 24.2228 23.0591 24.6727 23.0971Z" fill="#111111"/>
<path d="M19.8857 21.6636C20.1565 21.3913 20.3637 21.0626 20.4928 20.7009C20.6218 20.3393 20.6694 19.9536 20.6322 19.5714L20.6457 19.5843C20.6077 19.1343 20.6684 18.6814 20.8236 18.2572C20.9787 17.8331 21.2246 17.4479 21.544 17.1286C21.8634 16.8094 22.2487 16.5637 22.6729 16.4087C23.0971 16.2537 23.55 16.1932 24 16.2314L23.9864 16.2186C24.5244 16.269 25.0649 16.1522 25.5342 15.8842C26.0034 15.6162 26.3784 15.2099 26.6084 14.7209C26.8382 14.2318 26.9117 13.6838 26.8187 13.1515C26.7257 12.6192 26.4707 12.1285 26.0886 11.7464C25.7065 11.3643 25.2158 11.1094 24.6835 11.0164C24.1512 10.9234 23.6032 10.9968 23.1142 11.2267C22.6251 11.4565 22.2189 11.8317 21.9509 12.3009C21.6828 12.7701 21.566 13.3106 21.6164 13.8486L21.6036 13.8357C21.6416 14.2856 21.5809 14.7384 21.4258 15.1624C21.2707 15.5864 21.025 15.9715 20.7058 16.2908C20.3865 16.61 20.0014 16.8558 19.5774 17.0108C19.1534 17.1659 18.7006 17.2266 18.2507 17.1886L18.2636 17.2014C17.824 17.162 17.3816 17.2342 16.9773 17.4113C16.573 17.5884 16.22 17.8646 15.9509 18.2145C15.6818 18.5643 15.5054 18.9764 15.438 19.4126C15.3706 19.8488 15.4144 20.2949 15.5653 20.7096C15.7162 21.1244 15.9693 21.4944 16.3013 21.7852C16.6332 22.0761 17.0332 22.2785 17.4642 22.3736C17.8952 22.4687 18.3432 22.4535 18.7668 22.3294C19.1903 22.2053 19.5757 21.9763 19.8871 21.6636H19.8857Z" fill="#111111"/>
</g>
<defs>
<clipPath id="clip0_4905_8313">
<rect width="19.2857" height="20" fill="white" transform="translate(15.3574 10.5)"/>
</clipPath>
</defs>
</svg>
