<svg width="50" height="40" viewBox="0 0 50 40" fill="none" xmlns="http://www.w3.org/2000/svg">
<rect width="50" height="40" rx="6" fill="#55D6BE"/>
<g clip-path="url(#clip0_4952_9208)">
<path d="M29.9423 18.8365C29.6716 19.1089 29.4643 19.4376 29.3352 19.7992C29.206 20.1608 29.1582 20.5465 29.1952 20.9287L29.1823 20.9158C29.2203 21.3658 29.1596 21.8185 29.0045 22.2425C28.8495 22.6665 28.6037 23.0516 28.2845 23.3709C27.9652 23.6901 27.5802 23.9359 27.1561 24.0909C26.7321 24.246 26.2793 24.3067 25.8295 24.2687L25.8423 24.2815C25.3042 24.2315 24.7637 24.3485 24.2945 24.6169C23.8253 24.8853 23.4503 25.2918 23.2207 25.781C22.991 26.2703 22.9178 26.8185 23.0111 27.3509C23.1045 27.8833 23.3597 28.3739 23.742 28.7559C24.1244 29.1379 24.6152 29.3927 25.1477 29.4855C25.6802 29.5783 26.2282 29.5046 26.7173 29.2745C27.2064 29.0444 27.6125 28.6691 27.8805 28.1997C28.1484 27.7303 28.265 27.1897 28.2145 26.6515L28.228 26.6644C28.19 26.2145 28.2507 25.7618 28.4057 25.3377C28.5608 24.9137 28.8066 24.5286 29.1258 24.2093C29.4451 23.8901 29.8302 23.6443 30.2542 23.4893C30.6782 23.3343 31.131 23.2735 31.5809 23.3115L31.5673 23.2987C32.0069 23.3382 32.4494 23.2661 32.8537 23.0891C33.258 22.9121 33.6112 22.6359 33.8803 22.2861C34.1495 21.9363 34.326 21.5242 34.3935 21.088C34.461 20.6518 34.4172 20.2057 34.2664 19.7908C34.1155 19.376 33.8624 19.006 33.5305 18.7151C33.1985 18.4242 32.7985 18.2218 32.3675 18.1266C31.9365 18.0315 31.4885 18.0466 31.0649 18.1707C30.6413 18.2948 30.256 18.5238 29.9445 18.8365H29.9423Z" fill="#111111"/>
<path d="M24.6727 22.5972L24.6591 22.5844C25.0415 22.6229 25.4276 22.5759 25.7897 22.4469C26.1517 22.3179 26.4805 22.1101 26.7524 21.8385C27.0242 21.5669 27.2323 21.2381 27.3615 20.8762C27.4908 20.5143 27.538 20.1282 27.4998 19.7458L27.5134 19.7586C27.4754 19.3087 27.5361 18.856 27.6911 18.4319C27.8462 18.0079 28.092 17.6229 28.4112 17.3036C28.7305 16.9844 29.1155 16.7386 29.5395 16.5836C29.9636 16.4285 30.4163 16.3678 30.8663 16.4058L30.8527 16.3929C31.3909 16.4435 31.9315 16.3268 32.401 16.0587C32.8705 15.7907 33.2458 15.3843 33.4758 14.8951C33.7058 14.406 33.7793 13.8577 33.6863 13.3252C33.5933 12.7927 33.3383 12.3019 32.956 11.9196C32.5738 11.5374 32.0829 11.2824 31.5504 11.1893C31.0179 11.0963 30.4697 11.1698 29.9805 11.3998C29.4913 11.6298 29.085 12.0052 28.8169 12.4746C28.5488 12.944 28.4321 13.4847 28.4827 14.0229L28.4698 14.0094C28.5079 14.4593 28.4473 14.9121 28.2923 15.3362C28.1373 15.7603 27.8915 16.1454 27.5723 16.4647C27.253 16.7839 26.8679 17.0297 26.4438 17.1847C26.0197 17.3397 25.5669 17.4003 25.117 17.3622L25.1298 17.3758C24.7475 17.3373 24.3613 17.3842 23.9993 17.5132C23.6373 17.6421 23.3084 17.85 23.0365 18.1216C22.7647 18.3933 22.5566 18.722 22.4273 19.0839C22.2981 19.4459 22.2509 19.8319 22.2891 20.2144L22.2763 20.2015C22.3141 20.6514 22.2533 21.1041 22.0983 21.5281C21.9431 21.952 21.6974 22.3371 21.3782 22.6563C21.0589 22.9755 20.6739 23.2212 20.2499 23.3764C19.826 23.5314 19.3733 23.5922 18.9234 23.5544L18.9363 23.5672C18.3981 23.5166 17.8574 23.6334 17.3879 23.9014C16.9185 24.1695 16.5432 24.5758 16.3132 25.065C16.0832 25.5542 16.0096 26.1024 16.1027 26.6349C16.1957 27.1674 16.4507 27.6583 16.833 28.0405C17.2152 28.4228 17.706 28.6778 18.2385 28.7708C18.7711 28.8638 19.3193 28.7903 19.8085 28.5603C20.2977 28.3303 20.704 27.955 20.972 27.4856C21.2401 27.0161 21.3568 26.4754 21.3063 25.9372L21.3198 25.9501C21.2818 25.5001 21.3425 25.0474 21.4976 24.6234C21.6526 24.1994 21.8984 23.8143 22.2176 23.495C22.5369 23.1758 22.922 22.93 23.346 22.775C23.77 22.6199 24.2228 22.5592 24.6727 22.5972Z" fill="#111111"/>
<path d="M19.8857 21.1635C20.1565 20.8912 20.3637 20.5625 20.4928 20.2008C20.6218 19.8392 20.6694 19.4535 20.6322 19.0713L20.6457 19.0842C20.6077 18.6342 20.6684 18.1812 20.8236 17.7571C20.9787 17.333 21.2246 16.9478 21.544 16.6285C21.8634 16.3093 22.2487 16.0636 22.6729 15.9086C23.0971 15.7536 23.55 15.6931 24 15.7313L23.9864 15.7185C24.5244 15.7689 25.0649 15.6521 25.5342 15.3841C26.0034 15.116 26.3784 14.7098 26.6084 14.2208C26.8382 13.7317 26.9117 13.1837 26.8187 12.6514C26.7257 12.1191 26.4707 11.6284 26.0886 11.2463C25.7065 10.8642 25.2158 10.6093 24.6835 10.5163C24.1512 10.4232 23.6032 10.4967 23.1142 10.7266C22.6251 10.9564 22.2189 11.3315 21.9509 11.8008C21.6828 12.27 21.566 12.8104 21.6164 13.3485L21.6036 13.3356C21.6416 13.7855 21.5809 14.2383 21.4258 14.6623C21.2707 15.0863 21.025 15.4714 20.7058 15.7907C20.3865 16.1099 20.0014 16.3556 19.5774 16.5107C19.1534 16.6657 18.7006 16.7265 18.2507 16.6885L18.2636 16.7013C17.824 16.6619 17.3816 16.7341 16.9773 16.9112C16.573 17.0882 16.22 17.3645 15.9509 17.7144C15.6818 18.0642 15.5054 18.4763 15.438 18.9125C15.3706 19.3487 15.4144 19.7948 15.5653 20.2095C15.7162 20.6243 15.9693 20.9942 16.3013 21.2851C16.6332 21.576 17.0332 21.7784 17.4642 21.8735C17.8952 21.9686 18.3432 21.9534 18.7668 21.8293C19.1903 21.7052 19.5757 21.4762 19.8871 21.1635H19.8857Z" fill="#111111"/>
</g>
<defs>
<clipPath id="clip0_4952_9208">
<rect width="19.2857" height="20" fill="white" transform="translate(15.3574 10)"/>
</clipPath>
</defs>
</svg>
