<svg width="442" height="954" viewBox="0 0 442 954" fill="none" xmlns="http://www.w3.org/2000/svg">
<rect width="442" height="954" fill="#111111"/>
<g filter="url(#filter0_b_1942_19581)">
<rect x="33.7637" y="32" width="28" height="28" rx="4" fill="#1B1B1B"/>
<rect x="34.2637" y="32.5" width="27" height="27" rx="3.5" stroke="white" stroke-opacity="0.1"/>
<path d="M53.0971 45.3333V46.6666H45.0971L48.7638 50.3333L47.8171 51.28L42.5371 46L47.8171 40.72L48.7638 41.6666L45.0971 45.3333H53.0971Z" fill="white"/>
</g>
<path d="M188.94 54L187.64 50.44H181.44L180.12 54H177.9L183.4 39.64H185.82L191.28 54H188.94ZM184.56 42.04L182.1 48.66H186.98L184.56 42.04ZM195.119 48.02V54H193.099V43.4H194.979V45.16C195.699 43.98 196.899 43.2 198.359 43.2C200.539 43.2 201.979 44.6 201.979 47.14V54H199.959V47.82C199.959 46 199.159 44.98 197.659 44.98C196.279 44.98 195.119 46.14 195.119 48.02ZM211.082 54V52.36C210.422 53.54 209.242 54.2 207.682 54.2C205.482 54.2 204.042 52.94 204.042 51C204.042 48.92 205.702 47.84 208.862 47.84C209.482 47.84 209.982 47.86 210.842 47.96V47.18C210.842 45.66 210.022 44.8 208.622 44.8C207.142 44.8 206.242 45.68 206.182 47.16H204.342C204.442 44.78 206.142 43.2 208.622 43.2C211.242 43.2 212.762 44.68 212.762 47.2V54H211.082ZM205.962 50.94C205.962 52.04 206.782 52.76 208.082 52.76C209.782 52.76 210.842 51.7 210.842 50.08V49.22C210.062 49.12 209.502 49.1 208.982 49.1C206.962 49.1 205.962 49.7 205.962 50.94ZM217.503 54H215.463V39.64H217.503V54ZM229.106 43.4L223.806 57.86H221.606L223.126 53.86L218.946 43.4H221.126L224.206 51.48L227.066 43.4H229.106ZM236.911 52.04V53.82C236.291 54.1 235.751 54.2 235.111 54.2C233.151 54.2 231.791 53.14 231.791 50.8V45.12H229.451V43.4H231.791V40.26H233.811V43.4H237.011V45.12H233.811V50.34C233.811 51.8 234.511 52.32 235.591 52.32C236.071 52.32 236.491 52.24 236.911 52.04ZM241.399 40.94C241.399 41.7 240.799 42.28 239.939 42.28C239.079 42.28 238.459 41.7 238.459 40.94C238.459 40.16 239.079 39.6 239.939 39.6C240.799 39.6 241.399 40.16 241.399 40.94ZM240.959 54H238.939V43.4H240.959V54ZM247.943 54.22C245.043 54.22 243.003 51.94 243.003 48.7C243.003 45.5 245.083 43.2 247.943 43.2C250.563 43.2 252.463 44.94 252.843 47.7H250.723C250.503 46 249.443 44.98 247.963 44.98C246.223 44.98 245.083 46.46 245.083 48.7C245.083 50.96 246.223 52.42 247.963 52.42C249.463 52.42 250.503 51.42 250.743 49.7H252.843C252.483 52.5 250.603 54.22 247.943 54.22ZM263.277 50.84C263.277 52.92 261.657 54.2 258.837 54.2C256.037 54.2 254.377 52.82 254.177 50.54H256.117C256.197 51.86 257.257 52.68 258.877 52.68C260.297 52.68 261.237 52.18 261.237 51.18C261.237 50.3 260.697 49.92 259.377 49.66L257.657 49.34C255.697 48.96 254.597 47.96 254.597 46.36C254.597 44.5 256.217 43.2 258.677 43.2C261.217 43.2 262.937 44.56 263.117 46.74H261.177C261.057 45.46 260.117 44.72 258.697 44.72C257.417 44.72 256.557 45.26 256.557 46.18C256.557 47.04 257.097 47.44 258.377 47.68L260.177 48.02C262.277 48.4 263.277 49.32 263.277 50.84Z" fill="white"/>
<g filter="url(#filter1_b_1942_19581)">
<rect x="380.236" y="32" width="28" height="28" rx="4" fill="#1B1B1B"/>
<rect x="380.736" y="32.5" width="27" height="27" rx="3.5" stroke="white" stroke-opacity="0.1"/>
<path d="M393.57 44H394.903V42.6667H393.57M394.236 51.3334C391.296 51.3334 388.903 48.94 388.903 46C388.903 43.06 391.296 40.6667 394.236 40.6667C397.176 40.6667 399.57 43.06 399.57 46C399.57 48.94 397.176 51.3334 394.236 51.3334ZM394.236 39.3334C393.361 39.3334 392.494 39.5058 391.685 39.8408C390.876 40.1759 390.142 40.6669 389.522 41.286C388.272 42.5362 387.57 44.2319 387.57 46C387.57 47.7682 388.272 49.4638 389.522 50.7141C390.142 51.3331 390.876 51.8242 391.685 52.1592C392.494 52.4943 393.361 52.6667 394.236 52.6667C396.005 52.6667 397.7 51.9643 398.951 50.7141C400.201 49.4638 400.903 47.7682 400.903 46C400.903 45.1246 400.731 44.2577 400.396 43.4488C400.061 42.64 399.57 41.9051 398.951 41.286C398.331 40.6669 397.597 40.1759 396.788 39.8408C395.979 39.5058 395.112 39.3334 394.236 39.3334ZM393.57 49.3334H394.903V45.3334H393.57V49.3334Z" fill="white"/>
</g>
<rect x="32" y="92" width="181" height="86" rx="6" fill="#1B1B1B"/>
<rect x="32.5" y="92.5" width="180" height="85" rx="5.5" stroke="white" stroke-opacity="0.1"/>
<path d="M102.034 123.155V124H96.4314V114.666H101.943V115.511H97.4064V118.761H101.553V119.606H97.4064V123.155H102.034ZM108.492 124V122.752C108.089 123.61 107.257 124.13 106.191 124.13C104.774 124.13 103.851 123.337 103.851 122.102C103.851 120.763 104.917 120.061 106.997 120.061C107.413 120.061 107.725 120.087 108.401 120.139V119.567C108.401 118.423 107.79 117.747 106.75 117.747C105.632 117.747 104.93 118.436 104.917 119.554H104.085C104.124 118.033 105.177 117.019 106.737 117.019C108.336 117.019 109.272 117.955 109.272 119.541V124H108.492ZM104.722 122.076C104.722 122.908 105.359 123.467 106.321 123.467C107.595 123.467 108.401 122.635 108.401 121.348V120.737C107.816 120.685 107.413 120.672 107.036 120.672C105.476 120.672 104.722 121.127 104.722 122.076ZM112.597 120.334V124H111.687V117.149H112.532V118.709C113 117.695 114.014 117.045 115.145 117.045V117.994C113.702 117.942 112.597 118.839 112.597 120.334ZM117.667 120.009V124H116.757V117.149H117.602V118.436C118.044 117.591 118.876 117.019 119.864 117.019C121.294 117.019 122.217 117.929 122.217 119.554V124H121.307V119.866C121.307 118.553 120.709 117.812 119.591 117.812C118.525 117.812 117.667 118.735 117.667 120.009ZM125.816 115.563C125.816 115.966 125.517 116.252 125.075 116.252C124.646 116.252 124.347 115.966 124.347 115.563C124.347 115.173 124.646 114.887 125.075 114.887C125.517 114.887 125.816 115.173 125.816 115.563ZM125.543 124H124.633V117.149H125.543V124ZM128.925 120.009V124H128.015V117.149H128.86V118.436C129.302 117.591 130.134 117.019 131.122 117.019C132.552 117.019 133.475 117.929 133.475 119.554V124H132.565V119.866C132.565 118.553 131.967 117.812 130.849 117.812C129.783 117.812 128.925 118.735 128.925 120.009ZM138.478 126.652C136.736 126.652 135.644 125.742 135.566 124.208H136.437C136.515 125.326 137.243 125.924 138.465 125.924C139.817 125.924 140.532 125.209 140.532 123.857V122.427C140.116 123.389 139.284 123.948 138.27 123.948C136.541 123.948 135.384 122.557 135.384 120.477C135.384 118.397 136.528 117.019 138.257 117.019C139.284 117.019 140.142 117.604 140.584 118.605V117.149H141.429V123.844C141.429 125.612 140.35 126.652 138.478 126.652ZM136.294 120.477C136.294 122.154 137.087 123.168 138.4 123.168C139.687 123.168 140.545 122.128 140.545 120.542C140.545 118.865 139.7 117.799 138.4 117.799C137.1 117.799 136.294 118.813 136.294 120.477ZM149.028 122.089C149.028 123.35 148.014 124.13 146.324 124.13C144.621 124.13 143.581 123.272 143.451 121.855H144.322C144.387 122.83 145.154 123.441 146.324 123.441C147.442 123.441 148.118 123.012 148.118 122.232C148.118 121.556 147.728 121.244 146.688 121.036L145.7 120.841C144.4 120.594 143.711 119.957 143.711 118.969C143.711 117.825 144.725 117.019 146.22 117.019C147.793 117.019 148.833 117.864 148.937 119.229H148.079C147.988 118.28 147.299 117.721 146.22 117.721C145.258 117.721 144.595 118.176 144.595 118.891C144.595 119.567 145.011 119.892 146.025 120.087L147.052 120.282C148.417 120.542 149.028 121.114 149.028 122.089Z" fill="white" fill-opacity="0.5"/>
<path d="M62.606 159.314H60.786V157.208C57.328 156.844 55.274 154.66 55.092 151.54H57.744C57.874 153.698 59.2 155.076 61.748 155.076C63.854 155.076 65.518 154.036 65.518 152.242C65.518 150.76 64.53 150.032 62.658 149.616L60.318 149.096C57.952 148.602 55.69 147.51 55.69 144.364C55.69 141.66 57.77 139.58 60.786 139.216V137.058H62.606V139.216C65.648 139.554 67.91 141.634 68.118 144.78H65.466C65.336 142.778 63.88 141.348 61.774 141.348C59.642 141.348 58.368 142.57 58.368 144.182C58.368 145.846 59.746 146.444 61.28 146.782L63.62 147.276C66.454 147.874 68.326 149.148 68.326 151.904C68.326 154.764 66.246 157 62.606 157.234V159.314ZM89.1674 152.06C89.1674 155.128 86.5674 157.234 82.7454 157.234C78.8974 157.234 76.2714 155.128 76.2714 152.06C76.2714 149.928 77.7274 148.524 79.5734 147.848C78.0914 147.198 76.9734 145.82 76.9734 144.026C76.9734 141.166 79.3654 139.164 82.7454 139.164C86.0734 139.164 88.4914 141.166 88.4914 144.026C88.4914 145.82 87.3474 147.198 85.8914 147.848C87.7374 148.524 89.1674 149.928 89.1674 152.06ZM79.6774 144.104C79.6774 145.82 80.9254 146.86 82.7454 146.86C84.5394 146.86 85.7874 145.82 85.7874 144.104C85.7874 142.362 84.5394 141.27 82.7454 141.27C80.9254 141.27 79.6774 142.362 79.6774 144.104ZM79.0274 152.008C79.0274 153.958 80.5354 155.128 82.7454 155.128C84.9294 155.128 86.4634 153.958 86.4634 152.008C86.4634 150.11 84.9294 148.966 82.7454 148.966C80.5354 148.966 79.0274 150.11 79.0274 152.008ZM97.6115 157.26C94.1795 157.26 91.5535 155.024 91.4235 151.904H94.0495C94.2315 153.776 95.6615 154.894 97.6115 154.894C100.03 154.894 101.226 153.386 101.226 151.384C101.226 149.564 99.9255 147.978 97.5855 147.978C96.0255 147.978 94.8555 148.628 94.1275 149.902L91.9955 149.226L93.5555 139.424H102.942V141.764H95.4535L94.6735 146.834C95.6615 146.054 96.7795 145.69 97.9755 145.69C101.85 145.69 103.956 148.394 103.956 151.384C103.956 154.53 101.694 157.26 97.6115 157.26ZM110.112 155.128C110.112 156.298 109.306 157.13 108.11 157.13C106.94 157.13 106.108 156.298 106.108 155.128C106.108 153.906 106.94 153.074 108.11 153.074C109.306 153.074 110.112 153.906 110.112 155.128ZM124.198 154.66V157H112.836V155.492L118.322 149.564C120.402 147.302 121.208 146.08 121.208 144.494C121.208 142.752 119.986 141.53 118.192 141.53C116.242 141.53 114.942 142.804 114.942 144.754H112.368C112.368 141.504 114.812 139.164 118.296 139.164C121.572 139.164 123.964 141.296 123.964 144.182C123.964 146.184 123.21 147.588 120.324 150.656L116.788 154.66H124.198ZM138.062 154.66V157H126.7V155.492L132.186 149.564C134.266 147.302 135.072 146.08 135.072 144.494C135.072 142.752 133.85 141.53 132.056 141.53C130.106 141.53 128.806 142.804 128.806 144.754H126.232C126.232 141.504 128.676 139.164 132.16 139.164C135.436 139.164 137.828 141.296 137.828 144.182C137.828 146.184 137.074 147.588 134.188 150.656L130.652 154.66H138.062ZM151.925 154.66V157H140.563V155.492L146.049 149.564C148.129 147.302 148.935 146.08 148.935 144.494C148.935 142.752 147.713 141.53 145.919 141.53C143.969 141.53 142.669 142.804 142.669 144.754H140.095C140.095 141.504 142.539 139.164 146.023 139.164C149.299 139.164 151.691 141.296 151.691 144.182C151.691 146.184 150.937 147.588 148.051 150.656L144.515 154.66H151.925ZM158.71 155.882C158.71 158.352 156.76 160.276 153.9 160.328V158.846C155.59 158.794 156.734 157.884 156.89 156.61C156.656 156.688 156.5 156.714 156.318 156.714C155.33 156.714 154.602 155.908 154.602 154.946C154.602 153.828 155.434 153.1 156.5 153.1C157.93 153.1 158.71 154.14 158.71 155.882ZM160.848 148.238C160.848 142.414 163.162 139.164 167.322 139.164C171.482 139.164 173.822 142.414 173.822 148.238C173.822 154.062 171.534 157.26 167.322 157.26C163.11 157.26 160.848 154.062 160.848 148.238ZM163.552 148.238C163.552 152.58 164.852 154.894 167.322 154.894C169.792 154.894 171.118 152.606 171.118 148.238C171.118 143.844 169.792 141.53 167.322 141.53C164.904 141.53 163.552 143.844 163.552 148.238ZM176.362 148.238C176.362 142.414 178.676 139.164 182.836 139.164C186.996 139.164 189.336 142.414 189.336 148.238C189.336 154.062 187.048 157.26 182.836 157.26C178.624 157.26 176.362 154.062 176.362 148.238ZM179.066 148.238C179.066 152.58 180.366 154.894 182.836 154.894C185.306 154.894 186.632 152.606 186.632 148.238C186.632 143.844 185.306 141.53 182.836 141.53C180.418 141.53 179.066 143.844 179.066 148.238Z" fill="white"/>
<rect x="229" y="92" width="181" height="86" rx="6" fill="#1B1B1B"/>
<rect x="229.5" y="92.5" width="180" height="85" rx="5.5" stroke="white" stroke-opacity="0.1"/>
<path d="M295.981 123.155V124H290.378V114.666H295.89V115.511H291.353V118.761H295.5V119.606H291.353V123.155H295.981ZM298.396 124H297.382L299.904 120.49L297.538 117.149H298.578L300.515 119.918L302.465 117.149H303.44L301.1 120.516L303.596 124H302.556L300.463 121.062L298.396 124ZM311.494 120.568C311.494 122.687 310.311 124.13 308.491 124.13C307.464 124.13 306.593 123.571 306.125 122.596V126.509H305.215V117.149H306.06V118.631C306.528 117.617 307.438 117.019 308.491 117.019C310.311 117.019 311.494 118.475 311.494 120.568ZM310.571 120.568C310.571 118.839 309.674 117.812 308.335 117.812C307.061 117.812 306.112 118.826 306.112 120.568C306.112 122.271 307.035 123.337 308.335 123.337C309.674 123.337 310.571 122.323 310.571 120.568ZM316.15 124.13C314.226 124.13 312.952 122.687 312.952 120.516C312.952 118.514 314.278 117.019 316.098 117.019C318.048 117.019 319.322 118.592 319.166 120.789H313.862C313.94 122.414 314.798 123.415 316.137 123.415C317.281 123.415 318.074 122.778 318.295 121.686H319.192C318.88 123.207 317.723 124.13 316.15 124.13ZM316.085 117.721C314.85 117.721 313.979 118.67 313.862 120.165H318.217C318.139 118.631 317.346 117.721 316.085 117.721ZM322.08 120.009V124H321.17V117.149H322.015V118.436C322.457 117.591 323.289 117.019 324.277 117.019C325.707 117.019 326.63 117.929 326.63 119.554V124H325.72V119.866C325.72 118.553 325.122 117.812 324.004 117.812C322.938 117.812 322.08 118.735 322.08 120.009ZM334.168 122.089C334.168 123.35 333.154 124.13 331.464 124.13C329.761 124.13 328.721 123.272 328.591 121.855H329.462C329.527 122.83 330.294 123.441 331.464 123.441C332.582 123.441 333.258 123.012 333.258 122.232C333.258 121.556 332.868 121.244 331.828 121.036L330.84 120.841C329.54 120.594 328.851 119.957 328.851 118.969C328.851 117.825 329.865 117.019 331.36 117.019C332.933 117.019 333.973 117.864 334.077 119.229H333.219C333.128 118.28 332.439 117.721 331.36 117.721C330.398 117.721 329.735 118.176 329.735 118.891C329.735 119.567 330.151 119.892 331.165 120.087L332.192 120.282C333.557 120.542 334.168 121.114 334.168 122.089ZM338.94 124.13C337.016 124.13 335.742 122.687 335.742 120.516C335.742 118.514 337.068 117.019 338.888 117.019C340.838 117.019 342.112 118.592 341.956 120.789H336.652C336.73 122.414 337.588 123.415 338.927 123.415C340.071 123.415 340.864 122.778 341.085 121.686H341.982C341.67 123.207 340.513 124.13 338.94 124.13ZM338.875 117.721C337.64 117.721 336.769 118.67 336.652 120.165H341.007C340.929 118.631 340.136 117.721 338.875 117.721ZM349.082 122.089C349.082 123.35 348.068 124.13 346.378 124.13C344.675 124.13 343.635 123.272 343.505 121.855H344.376C344.441 122.83 345.208 123.441 346.378 123.441C347.496 123.441 348.172 123.012 348.172 122.232C348.172 121.556 347.782 121.244 346.742 121.036L345.754 120.841C344.454 120.594 343.765 119.957 343.765 118.969C343.765 117.825 344.779 117.019 346.274 117.019C347.847 117.019 348.887 117.864 348.991 119.229H348.133C348.042 118.28 347.353 117.721 346.274 117.721C345.312 117.721 344.649 118.176 344.649 118.891C344.649 119.567 345.065 119.892 346.079 120.087L347.106 120.282C348.471 120.542 349.082 121.114 349.082 122.089Z" fill="white" fill-opacity="0.5"/>
<path d="M258.736 151.02H250.65V148.654H258.736V151.02ZM273.434 159.314H271.614V157.208C268.156 156.844 266.102 154.66 265.92 151.54H268.572C268.702 153.698 270.028 155.076 272.576 155.076C274.682 155.076 276.346 154.036 276.346 152.242C276.346 150.76 275.358 150.032 273.486 149.616L271.146 149.096C268.78 148.602 266.518 147.51 266.518 144.364C266.518 141.66 268.598 139.58 271.614 139.216V137.058H273.434V139.216C276.476 139.554 278.738 141.634 278.946 144.78H276.294C276.164 142.778 274.708 141.348 272.602 141.348C270.47 141.348 269.196 142.57 269.196 144.182C269.196 145.846 270.574 146.444 272.108 146.782L274.448 147.276C277.282 147.874 279.154 149.148 279.154 151.904C279.154 154.764 277.074 157 273.434 157.234V159.314ZM287.594 157.26C284.162 157.26 281.536 155.024 281.406 151.904H284.032C284.214 153.776 285.644 154.894 287.594 154.894C290.012 154.894 291.208 153.386 291.208 151.384C291.208 149.564 289.908 147.978 287.568 147.978C286.008 147.978 284.838 148.628 284.11 149.902L281.978 149.226L283.538 139.424H292.924V141.764H285.436L284.656 146.834C285.644 146.054 286.762 145.69 287.958 145.69C291.832 145.69 293.938 148.394 293.938 151.384C293.938 154.53 291.676 157.26 287.594 157.26ZM307.427 154.66V157H296.065V155.492L301.551 149.564C303.631 147.302 304.437 146.08 304.437 144.494C304.437 142.752 303.215 141.53 301.421 141.53C299.471 141.53 298.171 142.804 298.171 144.754H295.597C295.597 141.504 298.041 139.164 301.525 139.164C304.801 139.164 307.193 141.296 307.193 144.182C307.193 146.184 306.439 147.588 303.553 150.656L300.017 154.66H307.427ZM314.212 155.128C314.212 156.298 313.406 157.13 312.21 157.13C311.04 157.13 310.208 156.298 310.208 155.128C310.208 153.906 311.04 153.074 312.21 153.074C313.406 153.074 314.212 153.906 314.212 155.128ZM321.069 157H318.417V141.712H315.011V139.424H321.069V157ZM330.301 157.26C326.869 157.26 324.243 155.024 324.113 151.904H326.739C326.921 153.776 328.351 154.894 330.301 154.894C332.719 154.894 333.915 153.386 333.915 151.384C333.915 149.564 332.615 147.978 330.275 147.978C328.715 147.978 327.545 148.628 326.817 149.902L324.685 149.226L326.245 139.424H335.631V141.764H328.143L327.363 146.834C328.351 146.054 329.469 145.69 330.665 145.69C334.539 145.69 336.645 148.394 336.645 151.384C336.645 154.53 334.383 157.26 330.301 157.26ZM338.821 148.238C338.821 142.414 341.135 139.164 345.295 139.164C349.455 139.164 351.795 142.414 351.795 148.238C351.795 154.062 349.507 157.26 345.295 157.26C341.083 157.26 338.821 154.062 338.821 148.238ZM341.525 148.238C341.525 152.58 342.825 154.894 345.295 154.894C347.765 154.894 349.091 152.606 349.091 148.238C349.091 143.844 347.765 141.53 345.295 141.53C342.877 141.53 341.525 143.844 341.525 148.238ZM357.935 155.882C357.935 158.352 355.985 160.276 353.125 160.328V158.846C354.815 158.794 355.959 157.884 356.115 156.61C355.881 156.688 355.725 156.714 355.543 156.714C354.555 156.714 353.827 155.908 353.827 154.946C353.827 153.828 354.659 153.1 355.725 153.1C357.155 153.1 357.935 154.14 357.935 155.882ZM366.229 157.26C362.797 157.26 360.171 155.024 360.041 151.904H362.667C362.849 153.776 364.279 154.894 366.229 154.894C368.647 154.894 369.843 153.386 369.843 151.384C369.843 149.564 368.543 147.978 366.203 147.978C364.643 147.978 363.473 148.628 362.745 149.902L360.613 149.226L362.173 139.424H371.559V141.764H364.071L363.291 146.834C364.279 146.054 365.397 145.69 366.593 145.69C370.467 145.69 372.573 148.394 372.573 151.384C372.573 154.53 370.311 157.26 366.229 157.26ZM374.749 148.238C374.749 142.414 377.063 139.164 381.223 139.164C385.383 139.164 387.723 142.414 387.723 148.238C387.723 154.062 385.435 157.26 381.223 157.26C377.011 157.26 374.749 154.062 374.749 148.238ZM377.453 148.238C377.453 152.58 378.753 154.894 381.223 154.894C383.693 154.894 385.019 152.606 385.019 148.238C385.019 143.844 383.693 141.53 381.223 141.53C378.805 141.53 377.453 143.844 377.453 148.238Z" fill="white"/>
<path d="M39.308 229L35.222 219.118V229H33.404V216.076H35.834L40.172 226.57L44.492 216.076H46.94V229H45.104V219.1L41 229H39.308ZM53.5861 229.18C50.8861 229.18 48.9061 227.056 48.9061 224.23C48.9061 221.404 50.8861 219.28 53.5861 219.28C56.2861 219.28 58.2661 221.404 58.2661 224.23C58.2661 227.056 56.2861 229.18 53.5861 229.18ZM53.5861 227.578C55.1521 227.578 56.3941 226.318 56.3941 224.23C56.3941 222.142 55.1521 220.9 53.5861 220.9C52.0201 220.9 50.7961 222.142 50.7961 224.23C50.7961 226.318 52.0201 227.578 53.5861 227.578ZM61.9374 223.618V229H60.1194V219.46H61.8114V221.044C62.4594 219.982 63.5394 219.28 64.8534 219.28C66.8154 219.28 68.1114 220.54 68.1114 222.826V229H66.2934V223.438C66.2934 221.8 65.5734 220.882 64.2234 220.882C62.9814 220.882 61.9374 221.926 61.9374 223.618ZM75.8725 227.236V228.838C75.3145 229.09 74.8285 229.18 74.2525 229.18C72.4885 229.18 71.2645 228.226 71.2645 226.12V221.008H69.1585V219.46H71.2645V216.634H73.0825V219.46H75.9625V221.008H73.0825V225.706C73.0825 227.02 73.7125 227.488 74.6845 227.488C75.1165 227.488 75.4945 227.416 75.8725 227.236ZM79.5155 223.618V229H77.6975V216.076H79.5155V220.99C80.1455 219.964 81.1175 219.28 82.4315 219.28C84.3935 219.28 85.6895 220.54 85.6895 222.826V229H83.8715V223.438C83.8715 221.8 83.1515 220.882 81.8015 220.882C80.5595 220.882 79.5155 221.926 79.5155 223.618ZM89.9398 229H88.1038V216.076H89.9398V229ZM100.383 219.46L95.6131 232.474H93.6331L95.0011 228.874L91.2391 219.46H93.2011L95.9731 226.732L98.5471 219.46H100.383ZM113.77 227.272V229H105.58V216.076H113.644V217.804H107.56V221.476H113.104V223.204H107.56V227.272H113.77ZM116.938 229H114.886L118.27 224.122L115.102 219.46H117.208L119.566 223.06L121.924 219.46H123.886L120.754 224.176L124.102 229H122.014L119.458 225.202L116.938 229ZM134.671 224.23C134.671 227.11 133.015 229.18 130.459 229.18C129.163 229.18 128.065 228.532 127.381 227.38V232.474H125.563V219.46H127.255V221.206C127.939 219.982 129.109 219.28 130.459 219.28C132.997 219.28 134.671 221.35 134.671 224.23ZM132.781 224.23C132.781 222.088 131.647 220.882 130.081 220.882C128.569 220.882 127.381 222.088 127.381 224.23C127.381 226.336 128.551 227.56 130.081 227.56C131.647 227.56 132.781 226.372 132.781 224.23ZM140.438 229.18C137.684 229.18 135.83 227.182 135.83 224.176C135.83 221.35 137.756 219.28 140.384 219.28C143.228 219.28 145.118 221.584 144.794 224.68H137.684C137.828 226.624 138.8 227.758 140.402 227.758C141.752 227.758 142.688 227.02 142.994 225.778H144.794C144.326 227.902 142.688 229.18 140.438 229.18ZM140.348 220.648C138.89 220.648 137.9 221.692 137.702 223.474H142.868C142.778 221.71 141.824 220.648 140.348 220.648ZM148.545 223.618V229H146.727V219.46H148.419V221.044C149.067 219.982 150.147 219.28 151.461 219.28C153.423 219.28 154.719 220.54 154.719 222.826V229H152.901V223.438C152.901 221.8 152.181 220.882 150.831 220.882C149.589 220.882 148.545 221.926 148.545 223.618ZM164.693 226.156C164.693 228.028 163.235 229.18 160.697 229.18C158.177 229.18 156.683 227.938 156.503 225.886H158.249C158.321 227.074 159.275 227.812 160.733 227.812C162.011 227.812 162.857 227.362 162.857 226.462C162.857 225.67 162.371 225.328 161.183 225.094L159.635 224.806C157.871 224.464 156.881 223.564 156.881 222.124C156.881 220.45 158.339 219.28 160.553 219.28C162.839 219.28 164.387 220.504 164.549 222.466H162.803C162.695 221.314 161.849 220.648 160.571 220.648C159.419 220.648 158.645 221.134 158.645 221.962C158.645 222.736 159.131 223.096 160.283 223.312L161.903 223.618C163.793 223.96 164.693 224.788 164.693 226.156ZM170.602 229.18C167.848 229.18 165.994 227.182 165.994 224.176C165.994 221.35 167.92 219.28 170.548 219.28C173.392 219.28 175.282 221.584 174.958 224.68H167.848C167.992 226.624 168.964 227.758 170.566 227.758C171.916 227.758 172.852 227.02 173.158 225.778H174.958C174.49 227.902 172.852 229.18 170.602 229.18ZM170.512 220.648C169.054 220.648 168.064 221.692 167.866 223.474H173.032C172.942 221.71 171.988 220.648 170.512 220.648ZM184.451 226.156C184.451 228.028 182.993 229.18 180.455 229.18C177.935 229.18 176.441 227.938 176.261 225.886H178.007C178.079 227.074 179.033 227.812 180.491 227.812C181.769 227.812 182.615 227.362 182.615 226.462C182.615 225.67 182.129 225.328 180.941 225.094L179.393 224.806C177.629 224.464 176.639 223.564 176.639 222.124C176.639 220.45 178.097 219.28 180.311 219.28C182.597 219.28 184.145 220.504 184.307 222.466H182.561C182.453 221.314 181.607 220.648 180.329 220.648C179.177 220.648 178.403 221.134 178.403 221.962C178.403 222.736 178.889 223.096 180.041 223.312L181.661 223.618C183.551 223.96 184.451 224.788 184.451 226.156Z" fill="white"/>
<path d="M334.958 230.602H333.698V229.144C331.304 228.892 329.882 227.38 329.756 225.22H331.592C331.682 226.714 332.6 227.668 334.364 227.668C335.822 227.668 336.974 226.948 336.974 225.706C336.974 224.68 336.29 224.176 334.994 223.888L333.374 223.528C331.736 223.186 330.17 222.43 330.17 220.252C330.17 218.38 331.61 216.94 333.698 216.688V215.194H334.958V216.688C337.064 216.922 338.63 218.362 338.774 220.54H336.938C336.848 219.154 335.84 218.164 334.382 218.164C332.906 218.164 332.024 219.01 332.024 220.126C332.024 221.278 332.978 221.692 334.04 221.926L335.66 222.268C337.622 222.682 338.918 223.564 338.918 225.472C338.918 227.452 337.478 229 334.958 229.162V230.602ZM348.073 229H346.237V218.416H343.879V216.832H348.073V229ZM353.222 227.704C353.222 228.514 352.664 229.09 351.836 229.09C351.026 229.09 350.45 228.514 350.45 227.704C350.45 226.858 351.026 226.282 351.836 226.282C352.664 226.282 353.222 226.858 353.222 227.704ZM362.974 227.38V229H355.108V227.956L358.906 223.852C360.346 222.286 360.904 221.44 360.904 220.342C360.904 219.136 360.058 218.29 358.816 218.29C357.466 218.29 356.566 219.172 356.566 220.522H354.784C354.784 218.272 356.476 216.652 358.888 216.652C361.156 216.652 362.812 218.128 362.812 220.126C362.812 221.512 362.29 222.484 360.292 224.608L357.844 227.38H362.974ZM368.738 229.18C366.362 229.18 364.544 227.632 364.454 225.472H366.272C366.398 226.768 367.388 227.542 368.738 227.542C370.412 227.542 371.24 226.498 371.24 225.112C371.24 223.852 370.34 222.754 368.72 222.754C367.64 222.754 366.83 223.204 366.326 224.086L364.85 223.618L365.93 216.832H372.428V218.452H367.244L366.704 221.962C367.388 221.422 368.162 221.17 368.99 221.17C371.672 221.17 373.13 223.042 373.13 225.112C373.13 227.29 371.564 229.18 368.738 229.18ZM374.636 222.934C374.636 218.902 376.238 216.652 379.118 216.652C381.998 216.652 383.618 218.902 383.618 222.934C383.618 226.966 382.034 229.18 379.118 229.18C376.202 229.18 374.636 226.966 374.636 222.934ZM376.508 222.934C376.508 225.94 377.408 227.542 379.118 227.542C380.828 227.542 381.746 225.958 381.746 222.934C381.746 219.892 380.828 218.29 379.118 218.29C377.444 218.29 376.508 219.892 376.508 222.934ZM387.869 228.226C387.869 229.936 386.519 231.268 384.539 231.304V230.278C385.709 230.242 386.501 229.612 386.609 228.73C386.447 228.784 386.339 228.802 386.213 228.802C385.529 228.802 385.025 228.244 385.025 227.578C385.025 226.804 385.601 226.3 386.339 226.3C387.329 226.3 387.869 227.02 387.869 228.226ZM393.611 229.18C391.235 229.18 389.417 227.632 389.327 225.472H391.145C391.271 226.768 392.261 227.542 393.611 227.542C395.285 227.542 396.113 226.498 396.113 225.112C396.113 223.852 395.213 222.754 393.593 222.754C392.513 222.754 391.703 223.204 391.199 224.086L389.723 223.618L390.803 216.832H397.301V218.452H392.117L391.577 221.962C392.261 221.422 393.035 221.17 393.863 221.17C396.545 221.17 398.003 223.042 398.003 225.112C398.003 227.29 396.437 229.18 393.611 229.18ZM399.509 222.934C399.509 218.902 401.111 216.652 403.991 216.652C406.871 216.652 408.491 218.902 408.491 222.934C408.491 226.966 406.907 229.18 403.991 229.18C401.075 229.18 399.509 226.966 399.509 222.934ZM401.381 222.934C401.381 225.94 402.281 227.542 403.991 227.542C405.701 227.542 406.619 225.958 406.619 222.934C406.619 219.892 405.701 218.29 403.991 218.29C402.317 218.29 401.381 219.892 401.381 222.934Z" fill="white"/>
<rect x="32" y="255" width="378" height="232" rx="6" fill="#1B1B1B"/>
<rect x="32.5" y="255.5" width="377" height="231" rx="5.5" stroke="white" stroke-opacity="0.1"/>
<g clip-path="url(#clip0_1942_19581)">
<path d="M229.649 371C229.649 382.929 227.035 394.714 221.991 405.525C216.947 416.335 209.595 425.909 200.453 433.573C191.311 441.236 180.6 446.804 169.075 449.883C157.55 452.962 145.49 453.478 133.744 451.395C121.997 449.313 110.85 444.681 101.087 437.827C91.3228 430.973 83.1796 422.062 77.2299 411.722C71.2802 401.382 67.6685 389.864 66.6489 377.978C65.6293 366.093 67.2266 354.128 71.3284 342.926L108.14 356.405C106.008 362.229 105.178 368.449 105.708 374.628C106.238 380.807 108.115 386.795 111.208 392.17C114.302 397.546 118.535 402.178 123.611 405.741C128.687 409.305 134.482 411.713 140.588 412.795C146.695 413.878 152.965 413.61 158.956 412.009C164.948 410.408 170.516 407.514 175.269 403.53C180.021 399.546 183.843 394.568 186.466 388.948C189.088 383.328 190.447 377.202 190.447 371H229.649Z" fill="#55D6BE"/>
<path d="M148 452.65C136.07 452.65 124.286 450.036 113.475 444.991C102.665 439.947 93.0908 432.595 85.4271 423.453C77.7634 414.311 72.1961 403.6 69.1169 392.075C66.0377 380.55 65.5214 368.49 67.6043 356.744C69.6872 344.998 74.3187 333.851 81.173 324.087C88.0273 314.323 96.9378 306.18 107.278 300.23C117.617 294.28 129.136 290.669 141.021 289.649C152.907 288.63 164.872 290.227 176.074 294.329L162.595 331.141C156.771 329.008 150.551 328.178 144.372 328.708C138.193 329.238 132.205 331.116 126.829 334.209C121.454 337.302 116.822 341.535 113.258 346.611C109.695 351.687 107.287 357.482 106.204 363.589C105.122 369.695 105.39 375.965 106.991 381.956C108.592 387.948 111.486 393.516 115.47 398.269C119.454 403.022 124.431 406.844 130.051 409.466C135.672 412.088 141.798 413.447 148 413.447V452.65Z" fill="#EEBE42"/>
<path d="M69.1323 349.868C74.2956 330.598 86.3348 313.886 102.977 302.885C119.619 291.885 139.713 287.358 159.465 290.159C179.216 292.96 197.259 302.896 210.187 318.09C223.114 333.284 230.031 352.685 229.633 372.63L190.439 371.847C190.646 361.478 187.05 351.392 180.329 343.493C173.608 335.595 164.228 330.429 153.96 328.973C143.692 327.517 133.246 329.87 124.594 335.589C115.942 341.308 109.683 349.996 106.999 360.014L69.1323 349.868Z" fill="#EE4266"/>
<rect width="12" height="12" rx="6" transform="matrix(0.999985 0.0054928 -0.0163752 0.999866 262.469 333.97)" fill="#55D6BE"/>
<path d="M286.214 345.501H285.239L285.341 336.168H288.669C290.645 336.168 291.869 337.195 291.849 338.989C291.834 340.393 290.899 341.446 289.428 341.693L292.025 345.501H290.855L288.386 341.81H286.254L286.214 345.501ZM286.307 336.987L286.263 340.991H288.538C289.968 340.991 290.86 340.289 290.874 338.989C290.888 337.689 290.012 336.987 288.582 336.987H286.307ZM296.286 345.631C294.362 345.631 293.103 344.189 293.127 342.018C293.149 340.016 294.491 338.521 296.311 338.521C298.261 338.521 299.518 340.094 299.338 342.291H294.034C294.094 343.916 294.941 344.917 296.28 344.917C297.424 344.917 298.224 344.28 298.457 343.188H299.354C299.026 344.709 297.859 345.631 296.286 345.631ZM296.29 339.223C295.055 339.223 294.174 340.172 294.041 341.667H298.396C298.335 340.133 297.551 339.223 296.29 339.223ZM302.26 341.511L302.217 345.501H301.307L301.382 338.651H302.227L302.213 339.938C302.664 339.093 303.502 338.521 304.49 338.521C305.92 338.521 306.833 339.431 306.815 341.056L306.767 345.501H305.857L305.902 341.368C305.916 340.055 305.326 339.314 304.208 339.314C303.142 339.314 302.274 340.237 302.26 341.511ZM312.703 344.631L312.694 345.436C312.341 345.579 312.042 345.631 311.704 345.631C310.573 345.631 309.708 345.047 309.724 343.565L309.77 339.418H308.158L308.166 338.651H309.778L309.8 336.623H310.71L310.688 338.651H312.833L312.825 339.418H310.68L310.637 343.37C310.625 344.436 311.141 344.8 311.895 344.8C312.181 344.8 312.416 344.748 312.703 344.631Z" fill="white"/>
<rect width="12" height="12" rx="6" transform="matrix(0.999985 0.0054928 -0.0163752 0.999866 262.131 364.968)" fill="#EE4266"/>
<path d="M285.937 376.5H284.962L285.064 367.166H290.42L290.411 368.011H286.03L285.99 371.651H289.76L289.751 372.496H285.981L285.937 376.5ZM294.779 376.63C292.894 376.63 291.545 375.135 291.567 373.068C291.59 371.014 292.971 369.532 294.856 369.532C296.754 369.532 298.103 371.014 298.08 373.068C298.058 375.135 296.677 376.63 294.779 376.63ZM294.787 375.837C296.126 375.837 297.139 374.771 297.157 373.068C297.176 371.391 296.186 370.325 294.847 370.325C293.521 370.325 292.509 371.391 292.49 373.068C292.472 374.771 293.461 375.837 294.787 375.837ZM302.756 376.63C300.871 376.63 299.522 375.135 299.545 373.068C299.567 371.014 300.948 369.532 302.833 369.532C304.731 369.532 306.08 371.014 306.058 373.068C306.035 375.135 304.654 376.63 302.756 376.63ZM302.765 375.837C304.104 375.837 305.116 374.771 305.135 373.068C305.153 371.391 304.164 370.325 302.825 370.325C301.499 370.325 300.486 371.391 300.468 373.068C300.449 374.771 301.439 375.837 302.765 375.837ZM307.522 373.068C307.545 370.962 308.731 369.519 310.577 369.519C311.604 369.519 312.469 370.104 312.913 371.079L312.956 367.166H313.866L313.764 376.5H312.919L312.935 375.057C312.443 376.058 311.553 376.63 310.5 376.63C308.654 376.63 307.5 375.174 307.522 373.068ZM308.445 373.068C308.426 374.81 309.299 375.837 310.638 375.837C311.964 375.837 312.886 374.758 312.905 373.042C312.924 371.313 311.998 370.312 310.698 370.312C309.359 370.312 308.464 371.326 308.445 373.068Z" fill="white"/>
<rect width="12" height="12" rx="6" transform="matrix(0.999985 0.0054928 -0.0163752 0.999866 261.794 395.966)" fill="#EEBE42"/>
<path d="M285.82 407.498H284.845L284.947 398.164H288.275C290.251 398.164 291.475 399.191 291.455 400.985C291.44 402.389 290.505 403.442 289.034 403.689L291.631 407.498H290.461L287.992 403.806H285.86L285.82 407.498ZM285.913 398.983L285.869 402.987H288.144C289.574 402.987 290.466 402.285 290.48 400.985C290.494 399.685 289.618 398.983 288.188 398.983H285.913ZM295.892 407.628C293.968 407.628 292.709 406.185 292.733 404.014C292.755 402.012 294.097 400.517 295.917 400.517C297.867 400.517 299.124 402.09 298.944 404.287H293.64C293.7 405.912 294.547 406.913 295.886 406.913C297.03 406.913 297.83 406.276 298.063 405.184H298.96C298.632 406.705 297.465 407.628 295.892 407.628ZM295.896 401.219C294.661 401.219 293.78 402.168 293.647 403.663H298.002C297.94 402.129 297.157 401.219 295.896 401.219ZM306.056 405.587C306.042 406.848 305.02 407.628 303.33 407.628C301.627 407.628 300.596 406.77 300.481 405.353H301.352C301.407 406.328 302.167 406.939 303.337 406.939C304.455 406.939 305.136 406.51 305.144 405.73C305.152 405.054 304.765 404.742 303.727 404.534L302.741 404.339C301.444 404.092 300.762 403.455 300.773 402.467C300.785 401.323 301.808 400.517 303.303 400.517C304.876 400.517 305.907 401.362 305.996 402.727H305.138C305.057 401.778 304.374 401.219 303.295 401.219C302.333 401.219 301.665 401.674 301.658 402.389C301.65 403.065 302.063 403.39 303.075 403.585L304.099 403.78C305.462 404.04 306.066 404.612 306.056 405.587ZM311.598 406.627L311.589 407.433C311.236 407.576 310.937 407.628 310.599 407.628C309.468 407.628 308.603 407.043 308.619 405.561L308.665 401.414H307.053L307.061 400.647H308.673L308.695 398.619H309.605L309.583 400.647H311.728L311.72 401.414H309.575L309.532 405.366C309.52 406.432 310.036 406.796 310.79 406.796C311.076 406.796 311.311 406.744 311.598 406.627ZM317.741 407.498L317.755 406.25C317.342 407.108 316.505 407.628 315.439 407.628C314.022 407.628 313.107 406.835 313.121 405.6C313.135 404.261 314.209 403.559 316.289 403.559C316.705 403.559 317.017 403.585 317.692 403.637L317.698 403.065C317.711 401.921 317.107 401.245 316.067 401.245C314.949 401.245 314.24 401.934 314.215 403.052H313.383C313.438 401.531 314.502 400.517 316.062 400.517C317.661 400.517 318.587 401.453 318.57 403.039L318.521 407.498H317.741ZM313.992 405.574C313.983 406.406 314.614 406.965 315.576 406.965C316.85 406.965 317.665 406.133 317.679 404.846L317.686 404.235C317.101 404.183 316.698 404.17 316.321 404.17C314.761 404.17 314.002 404.625 313.992 405.574ZM325.347 404.729L325.391 400.647H326.288L326.213 407.498H325.368L325.382 406.263C325.022 407.056 324.184 407.628 323.183 407.628C321.792 407.628 320.878 406.835 320.896 405.106L320.945 400.647H321.855L321.809 404.911C321.793 406.302 322.477 406.835 323.439 406.835C324.531 406.835 325.333 405.951 325.347 404.729ZM329.634 403.832L329.594 407.498H328.684L328.759 400.647H329.604L329.587 402.207C330.066 401.193 331.087 400.543 332.218 400.543L332.208 401.492C330.765 401.44 329.651 402.337 329.634 403.832ZM337.967 407.498L337.98 406.25C337.568 407.108 336.73 407.628 335.664 407.628C334.247 407.628 333.333 406.835 333.346 405.6C333.361 404.261 334.435 403.559 336.515 403.559C336.931 403.559 337.242 403.585 337.918 403.637L337.924 403.065C337.936 401.921 337.333 401.245 336.293 401.245C335.175 401.245 334.465 401.934 334.44 403.052H333.608C333.664 401.531 334.728 400.517 336.288 400.517C337.887 400.517 338.813 401.453 338.795 403.039L338.747 407.498H337.967ZM334.218 405.574C334.209 406.406 334.84 406.965 335.802 406.965C337.076 406.965 337.891 406.133 337.905 404.846L337.911 404.235C337.327 404.183 336.924 404.17 336.547 404.17C334.987 404.17 334.228 404.625 334.218 405.574ZM342.114 403.507L342.071 407.498H341.161L341.236 400.647H342.081L342.067 401.934C342.518 401.089 343.356 400.517 344.344 400.517C345.774 400.517 346.687 401.427 346.669 403.052L346.621 407.498H345.711L345.756 403.364C345.77 402.051 345.18 401.31 344.062 401.31C342.996 401.31 342.128 402.233 342.114 403.507ZM352.557 406.627L352.548 407.433C352.195 407.576 351.896 407.628 351.558 407.628C350.427 407.628 349.562 407.043 349.578 405.561L349.624 401.414H348.012L348.02 400.647H349.632L349.654 398.619H350.564L350.542 400.647H352.687L352.679 401.414H350.534L350.491 405.366C350.479 406.432 350.995 406.796 351.749 406.796C352.035 406.796 352.27 406.744 352.557 406.627ZM359.618 405.587C359.605 406.848 358.582 407.628 356.892 407.628C355.189 407.628 354.158 406.77 354.044 405.353H354.915C354.969 406.328 355.73 406.939 356.9 406.939C358.018 406.939 358.698 406.51 358.707 405.73C358.714 405.054 358.327 404.742 357.29 404.534L356.304 404.339C355.007 404.092 354.324 403.455 354.335 402.467C354.348 401.323 355.37 400.517 356.865 400.517C358.438 400.517 359.469 401.362 359.558 402.727H358.7C358.62 401.778 357.937 401.219 356.858 401.219C355.896 401.219 355.228 401.674 355.22 402.389C355.213 403.065 355.625 403.39 356.637 403.585L357.662 403.78C359.024 404.04 359.629 404.612 359.618 405.587Z" fill="white"/>
</g>
<path d="M38.786 533.158V538H36.788V533.158L32.144 525.076H34.304L37.85 531.304L41.432 525.076H43.448L38.786 533.158ZM47.0629 538.18C44.3089 538.18 42.4549 536.182 42.4549 533.176C42.4549 530.35 44.3809 528.28 47.0089 528.28C49.8529 528.28 51.7429 530.584 51.4189 533.68H44.3089C44.4529 535.624 45.4249 536.758 47.0269 536.758C48.3769 536.758 49.3129 536.02 49.6189 534.778H51.4189C50.9509 536.902 49.3129 538.18 47.0629 538.18ZM46.9729 529.648C45.5149 529.648 44.5249 530.692 44.3269 532.474H49.4929C49.4029 530.71 48.4489 529.648 46.9729 529.648ZM59.1298 538V536.524C58.5358 537.586 57.4738 538.18 56.0698 538.18C54.0898 538.18 52.7938 537.046 52.7938 535.3C52.7938 533.428 54.2878 532.456 57.1318 532.456C57.6898 532.456 58.1398 532.474 58.9138 532.564V531.862C58.9138 530.494 58.1758 529.72 56.9158 529.72C55.5838 529.72 54.7738 530.512 54.7198 531.844H53.0638C53.1538 529.702 54.6838 528.28 56.9158 528.28C59.2738 528.28 60.6418 529.612 60.6418 531.88V538H59.1298ZM54.5218 535.246C54.5218 536.236 55.2598 536.884 56.4298 536.884C57.9598 536.884 58.9138 535.93 58.9138 534.472V533.698C58.2118 533.608 57.7078 533.59 57.2398 533.59C55.4218 533.59 54.5218 534.13 54.5218 535.246ZM64.8905 533.122V538H63.0725V528.46H64.7645V530.476C65.4305 529.162 66.8705 528.334 68.4365 528.334V530.224C66.3845 530.116 64.8905 531.016 64.8905 533.122ZM71.7112 538H69.8752V525.076H71.7112V538ZM82.1546 528.46L77.3846 541.474H75.4046L76.7726 537.874L73.0106 528.46H74.9726L77.7446 535.732L80.3186 528.46H82.1546ZM95.5413 536.272V538H87.3513V525.076H95.4153V526.804H89.3313V530.476H94.8753V532.204H89.3313V536.272H95.5413ZM98.709 538H96.657L100.041 533.122L96.873 528.46H98.979L101.337 532.06L103.695 528.46H105.657L102.525 533.176L105.873 538H103.785L101.229 534.202L98.709 538ZM116.442 533.23C116.442 536.11 114.786 538.18 112.23 538.18C110.934 538.18 109.836 537.532 109.152 536.38V541.474H107.334V528.46H109.026V530.206C109.71 528.982 110.88 528.28 112.23 528.28C114.768 528.28 116.442 530.35 116.442 533.23ZM114.552 533.23C114.552 531.088 113.418 529.882 111.852 529.882C110.34 529.882 109.152 531.088 109.152 533.23C109.152 535.336 110.322 536.56 111.852 536.56C113.418 536.56 114.552 535.372 114.552 533.23ZM122.209 538.18C119.455 538.18 117.601 536.182 117.601 533.176C117.601 530.35 119.527 528.28 122.155 528.28C124.999 528.28 126.889 530.584 126.565 533.68H119.455C119.599 535.624 120.571 536.758 122.173 536.758C123.523 536.758 124.459 536.02 124.765 534.778H126.565C126.097 536.902 124.459 538.18 122.209 538.18ZM122.119 529.648C120.661 529.648 119.671 530.692 119.473 532.474H124.639C124.549 530.71 123.595 529.648 122.119 529.648ZM130.316 532.618V538H128.498V528.46H130.19V530.044C130.838 528.982 131.918 528.28 133.232 528.28C135.194 528.28 136.49 529.54 136.49 531.826V538H134.672V532.438C134.672 530.8 133.952 529.882 132.602 529.882C131.36 529.882 130.316 530.926 130.316 532.618ZM146.465 535.156C146.465 537.028 145.007 538.18 142.469 538.18C139.949 538.18 138.455 536.938 138.275 534.886H140.021C140.093 536.074 141.047 536.812 142.505 536.812C143.783 536.812 144.629 536.362 144.629 535.462C144.629 534.67 144.143 534.328 142.955 534.094L141.407 533.806C139.643 533.464 138.653 532.564 138.653 531.124C138.653 529.45 140.111 528.28 142.325 528.28C144.611 528.28 146.159 529.504 146.321 531.466H144.575C144.467 530.314 143.621 529.648 142.343 529.648C141.191 529.648 140.417 530.134 140.417 530.962C140.417 531.736 140.903 532.096 142.055 532.312L143.675 532.618C145.565 532.96 146.465 533.788 146.465 535.156ZM152.373 538.18C149.619 538.18 147.765 536.182 147.765 533.176C147.765 530.35 149.691 528.28 152.319 528.28C155.163 528.28 157.053 530.584 156.729 533.68H149.619C149.763 535.624 150.735 536.758 152.337 536.758C153.687 536.758 154.623 536.02 154.929 534.778H156.729C156.261 536.902 154.623 538.18 152.373 538.18ZM152.283 529.648C150.825 529.648 149.835 530.692 149.637 532.474H154.803C154.713 530.71 153.759 529.648 152.283 529.648ZM166.222 535.156C166.222 537.028 164.764 538.18 162.226 538.18C159.706 538.18 158.212 536.938 158.032 534.886H159.778C159.85 536.074 160.804 536.812 162.262 536.812C163.54 536.812 164.386 536.362 164.386 535.462C164.386 534.67 163.9 534.328 162.712 534.094L161.164 533.806C159.4 533.464 158.41 532.564 158.41 531.124C158.41 529.45 159.868 528.28 162.082 528.28C164.368 528.28 165.916 529.504 166.078 531.466H164.332C164.224 530.314 163.378 529.648 162.1 529.648C160.948 529.648 160.174 530.134 160.174 530.962C160.174 531.736 160.66 532.096 161.812 532.312L163.432 532.618C165.322 532.96 166.222 533.788 166.222 535.156Z" fill="white"/>
<path d="M334.958 539.602H333.698V538.144C331.304 537.892 329.882 536.38 329.756 534.22H331.592C331.682 535.714 332.6 536.668 334.364 536.668C335.822 536.668 336.974 535.948 336.974 534.706C336.974 533.68 336.29 533.176 334.994 532.888L333.374 532.528C331.736 532.186 330.17 531.43 330.17 529.252C330.17 527.38 331.61 525.94 333.698 525.688V524.194H334.958V525.688C337.064 525.922 338.63 527.362 338.774 529.54H336.938C336.848 528.154 335.84 527.164 334.382 527.164C332.906 527.164 332.024 528.01 332.024 529.126C332.024 530.278 332.978 530.692 334.04 530.926L335.66 531.268C337.622 531.682 338.918 532.564 338.918 534.472C338.918 536.452 337.478 538 334.958 538.162V539.602ZM348.073 538H346.237V527.416H343.879V525.832H348.073V538ZM353.222 536.704C353.222 537.514 352.664 538.09 351.836 538.09C351.026 538.09 350.45 537.514 350.45 536.704C350.45 535.858 351.026 535.282 351.836 535.282C352.664 535.282 353.222 535.858 353.222 536.704ZM362.974 536.38V538H355.108V536.956L358.906 532.852C360.346 531.286 360.904 530.44 360.904 529.342C360.904 528.136 360.058 527.29 358.816 527.29C357.466 527.29 356.566 528.172 356.566 529.522H354.784C354.784 527.272 356.476 525.652 358.888 525.652C361.156 525.652 362.812 527.128 362.812 529.126C362.812 530.512 362.29 531.484 360.292 533.608L357.844 536.38H362.974ZM368.738 538.18C366.362 538.18 364.544 536.632 364.454 534.472H366.272C366.398 535.768 367.388 536.542 368.738 536.542C370.412 536.542 371.24 535.498 371.24 534.112C371.24 532.852 370.34 531.754 368.72 531.754C367.64 531.754 366.83 532.204 366.326 533.086L364.85 532.618L365.93 525.832H372.428V527.452H367.244L366.704 530.962C367.388 530.422 368.162 530.17 368.99 530.17C371.672 530.17 373.13 532.042 373.13 534.112C373.13 536.29 371.564 538.18 368.738 538.18ZM374.636 531.934C374.636 527.902 376.238 525.652 379.118 525.652C381.998 525.652 383.618 527.902 383.618 531.934C383.618 535.966 382.034 538.18 379.118 538.18C376.202 538.18 374.636 535.966 374.636 531.934ZM376.508 531.934C376.508 534.94 377.408 536.542 379.118 536.542C380.828 536.542 381.746 534.958 381.746 531.934C381.746 528.892 380.828 527.29 379.118 527.29C377.444 527.29 376.508 528.892 376.508 531.934ZM387.869 537.226C387.869 538.936 386.519 540.268 384.539 540.304V539.278C385.709 539.242 386.501 538.612 386.609 537.73C386.447 537.784 386.339 537.802 386.213 537.802C385.529 537.802 385.025 537.244 385.025 536.578C385.025 535.804 385.601 535.3 386.339 535.3C387.329 535.3 387.869 536.02 387.869 537.226ZM393.611 538.18C391.235 538.18 389.417 536.632 389.327 534.472H391.145C391.271 535.768 392.261 536.542 393.611 536.542C395.285 536.542 396.113 535.498 396.113 534.112C396.113 532.852 395.213 531.754 393.593 531.754C392.513 531.754 391.703 532.204 391.199 533.086L389.723 532.618L390.803 525.832H397.301V527.452H392.117L391.577 530.962C392.261 530.422 393.035 530.17 393.863 530.17C396.545 530.17 398.003 532.042 398.003 534.112C398.003 536.29 396.437 538.18 393.611 538.18ZM399.509 531.934C399.509 527.902 401.111 525.652 403.991 525.652C406.871 525.652 408.491 527.902 408.491 531.934C408.491 535.966 406.907 538.18 403.991 538.18C401.075 538.18 399.509 535.966 399.509 531.934ZM401.381 531.934C401.381 534.94 402.281 536.542 403.991 536.542C405.701 536.542 406.619 534.958 406.619 531.934C406.619 528.892 405.701 527.29 403.991 527.29C402.317 527.29 401.381 528.892 401.381 531.934Z" fill="white"/>
<rect width="12" height="12" rx="6" transform="matrix(0.999985 0.0054928 -0.0163752 0.999866 32.2456 570.468)" fill="#55D6BE"/>
<path d="M60.9867 581.155L60.9775 582H55.3745L55.4761 572.666H60.9881L60.9789 573.511H56.4419L56.4065 576.761H60.5535L60.5443 577.606H56.3973L56.3587 581.155H60.9867ZM67.4355 582L67.4491 580.752C67.0368 581.61 66.1991 582.13 65.1331 582.13C63.7161 582.13 62.8018 581.337 62.8152 580.102C62.8298 578.763 63.9034 578.061 65.9834 578.061C66.3994 578.061 66.7111 578.087 67.3866 578.139L67.3928 577.567C67.4052 576.423 66.8016 575.747 65.7616 575.747C64.6436 575.747 63.9341 576.436 63.9089 577.554H63.0769C63.1325 576.033 64.1965 575.019 65.7565 575.019C67.3555 575.019 68.2813 575.955 68.2641 577.541L68.2155 582H67.4355ZM63.6865 580.076C63.6774 580.908 64.3083 581.467 65.2703 581.467C66.5443 581.467 67.3594 580.635 67.3734 579.348L67.3801 578.737C66.7956 578.685 66.3928 578.672 66.0158 578.672C64.4558 578.672 63.6968 579.127 63.6865 580.076ZM71.5797 578.334L71.5398 582H70.6298L70.7043 575.149H71.5493L71.5324 576.709C72.0114 575.695 73.0325 575.045 74.1635 575.045L74.1532 575.994C72.7107 575.942 71.596 576.839 71.5797 578.334ZM76.6535 578.009L76.6101 582H75.7001L75.7747 575.149H76.6197L76.6057 576.436C77.0569 575.591 77.8951 575.019 78.8831 575.019C80.3131 575.019 81.2262 575.929 81.2085 577.554L81.1601 582H80.2501L80.2951 577.866C80.3094 576.553 79.7194 575.812 78.6014 575.812C77.5354 575.812 76.6674 576.735 76.6535 578.009ZM84.8509 573.563C84.8465 573.966 84.5444 574.252 84.1024 574.252C83.6734 574.252 83.3775 573.966 83.3819 573.563C83.3861 573.173 83.6883 572.887 84.1173 572.887C84.5593 572.887 84.8551 573.173 84.8509 573.563ZM84.4861 582H83.5761L83.6506 575.149H84.5606L84.4861 582ZM87.9113 578.009L87.8679 582H86.9579L87.0325 575.149H87.8775L87.8635 576.436C88.3147 575.591 89.1529 575.019 90.1409 575.019C91.5709 575.019 92.484 575.929 92.4663 577.554L92.4179 582H91.5079L91.5529 577.866C91.5672 576.553 90.9773 575.812 89.8593 575.812C88.7933 575.812 87.9252 576.735 87.9113 578.009ZM97.392 584.652C95.65 584.652 94.5679 583.742 94.5066 582.208H95.3776C95.4435 583.326 96.165 583.924 97.387 583.924C98.739 583.924 99.4617 583.209 99.4764 581.857L99.492 580.427C99.0655 581.389 98.2275 581.948 97.2135 581.948C95.4845 581.948 94.3426 580.557 94.3652 578.477C94.3879 576.397 95.5469 575.019 97.2759 575.019C98.3029 575.019 99.1545 575.604 99.5856 576.605L99.6014 575.149H100.446L100.374 581.844C100.354 583.612 99.264 584.652 97.392 584.652ZM95.2752 578.477C95.257 580.154 96.0389 581.168 97.3519 581.168C98.6389 581.168 99.5083 580.128 99.5255 578.542C99.5438 576.865 98.7104 575.799 97.4104 575.799C96.1104 575.799 95.2933 576.813 95.2752 578.477ZM107.992 580.089C107.979 581.35 106.956 582.13 105.266 582.13C103.563 582.13 102.532 581.272 102.418 579.855H103.289C103.343 580.83 104.104 581.441 105.274 581.441C106.392 581.441 107.072 581.012 107.081 580.232C107.088 579.556 106.702 579.244 105.664 579.036L104.678 578.841C103.381 578.594 102.699 577.957 102.709 576.969C102.722 575.825 103.744 575.019 105.239 575.019C106.812 575.019 107.843 575.864 107.932 577.229H107.074C106.994 576.28 106.311 575.721 105.232 575.721C104.27 575.721 103.602 576.176 103.594 576.891C103.587 577.567 103.999 577.892 105.011 578.087L106.036 578.282C107.398 578.542 108.003 579.114 107.992 580.089Z" fill="white"/>
<rect width="12" height="12" rx="6" transform="matrix(0.999985 0.0054928 -0.0163752 0.999866 129.134 570.468)" fill="#EE4266"/>
<path d="M157.822 581.155L157.813 582H152.21L152.312 572.666H157.824L157.814 573.511H153.277L153.242 576.761H157.389L157.38 577.606H153.233L153.194 581.155H157.822ZM160.228 582H159.214L161.774 578.49L159.445 575.149H160.485L162.391 577.918L164.372 575.149H165.347L162.97 578.516L165.428 582H164.388L162.327 579.062L160.228 582ZM173.363 578.568C173.34 580.687 172.141 582.13 170.321 582.13C169.294 582.13 168.429 581.571 167.972 580.596L167.929 584.509H167.019L167.121 575.149H167.966L167.95 576.631C168.429 575.617 169.345 575.019 170.398 575.019C172.218 575.019 173.385 576.475 173.363 578.568ZM172.44 578.568C172.458 576.839 171.573 575.812 170.234 575.812C168.96 575.812 168 576.826 167.981 578.568C167.962 580.271 168.874 581.337 170.174 581.337C171.513 581.337 172.421 580.323 172.44 578.568ZM177.98 582.13C176.056 582.13 174.798 580.687 174.821 578.516C174.843 576.514 176.185 575.019 178.005 575.019C179.955 575.019 181.212 576.592 181.032 578.789H175.728C175.789 580.414 176.636 581.415 177.975 581.415C179.119 581.415 179.919 580.778 180.152 579.686H181.049C180.72 581.207 179.553 582.13 177.98 582.13ZM177.985 575.721C176.75 575.721 175.868 576.67 175.735 578.165H180.09C180.029 576.631 179.246 575.721 177.985 575.721ZM183.955 578.009L183.911 582H183.001L183.076 575.149H183.921L183.907 576.436C184.358 575.591 185.196 575.019 186.184 575.019C187.614 575.019 188.527 575.929 188.51 577.554L188.461 582H187.551L187.596 577.866C187.611 576.553 187.021 575.812 185.903 575.812C184.837 575.812 183.969 576.735 183.955 578.009ZM196.02 580.089C196.006 581.35 194.984 582.13 193.294 582.13C191.591 582.13 190.56 581.272 190.446 579.855H191.317C191.371 580.83 192.131 581.441 193.301 581.441C194.419 581.441 195.1 581.012 195.109 580.232C195.116 579.556 194.729 579.244 193.692 579.036L192.706 578.841C191.408 578.594 190.726 577.957 190.737 576.969C190.75 575.825 191.772 575.019 193.267 575.019C194.84 575.019 195.871 575.864 195.96 577.229H195.102C195.022 576.28 194.339 575.721 193.26 575.721C192.298 575.721 191.63 576.176 191.622 576.891C191.615 577.567 192.027 577.892 193.039 578.087L194.064 578.282C195.426 578.542 196.031 579.114 196.02 580.089ZM200.77 582.13C198.846 582.13 197.588 580.687 197.611 578.516C197.633 576.514 198.975 575.019 200.795 575.019C202.745 575.019 204.002 576.592 203.822 578.789H198.518C198.579 580.414 199.426 581.415 200.765 581.415C201.909 581.415 202.709 580.778 202.942 579.686H203.839C203.51 581.207 202.343 582.13 200.77 582.13ZM200.775 575.721C199.54 575.721 198.658 576.67 198.525 578.165H202.88C202.819 576.631 202.036 575.721 200.775 575.721ZM210.934 580.089C210.92 581.35 209.898 582.13 208.208 582.13C206.505 582.13 205.474 581.272 205.36 579.855H206.231C206.285 580.83 207.045 581.441 208.215 581.441C209.333 581.441 210.014 581.012 210.023 580.232C210.03 579.556 209.643 579.244 208.606 579.036L207.62 578.841C206.322 578.594 205.64 577.957 205.651 576.969C205.664 575.825 206.686 575.019 208.181 575.019C209.754 575.019 210.785 575.864 210.874 577.229H210.016C209.936 576.28 209.253 575.721 208.174 575.721C207.212 575.721 206.544 576.176 206.536 576.891C206.529 577.567 206.941 577.892 207.953 578.087L208.978 578.282C210.34 578.542 210.945 579.114 210.934 580.089Z" fill="white"/>
<rect x="345" y="560" width="65" height="33" rx="6" fill="#1B1B1B"/>
<rect x="345.5" y="560.5" width="64" height="32" rx="5.5" stroke="white" stroke-opacity="0.1"/>
<path d="M360.983 578.503V582H360.008V578.503L356.615 572.666H357.681L360.528 577.593L363.388 572.666H364.402L360.983 578.503ZM367.507 582.13C365.583 582.13 364.309 580.687 364.309 578.516C364.309 576.514 365.635 575.019 367.455 575.019C369.405 575.019 370.679 576.592 370.523 578.789H365.219C365.297 580.414 366.155 581.415 367.494 581.415C368.638 581.415 369.431 580.778 369.652 579.686H370.549C370.237 581.207 369.08 582.13 367.507 582.13ZM367.442 575.721C366.207 575.721 365.336 576.67 365.219 578.165H369.574C369.496 576.631 368.703 575.721 367.442 575.721ZM376.739 582V580.752C376.336 581.61 375.504 582.13 374.438 582.13C373.021 582.13 372.098 581.337 372.098 580.102C372.098 578.763 373.164 578.061 375.244 578.061C375.66 578.061 375.972 578.087 376.648 578.139V577.567C376.648 576.423 376.037 575.747 374.997 575.747C373.879 575.747 373.177 576.436 373.164 577.554H372.332C372.371 576.033 373.424 575.019 374.984 575.019C376.583 575.019 377.519 575.955 377.519 577.541V582H376.739ZM372.969 580.076C372.969 580.908 373.606 581.467 374.568 581.467C375.842 581.467 376.648 580.635 376.648 579.348V578.737C376.063 578.685 375.66 578.672 375.283 578.672C373.723 578.672 372.969 579.127 372.969 580.076ZM380.843 578.334V582H379.933V575.149H380.778V576.709C381.246 575.695 382.26 575.045 383.391 575.045V575.994C381.948 575.942 380.843 576.839 380.843 578.334Z" fill="white"/>
<path d="M390.94 574.22L394 577.28L397.06 574.22L398 575.167L394 579.167L390 575.167L390.94 574.22Z" fill="white"/>
<rect x="33.6143" y="613" width="20" height="200" rx="2" fill="#1B1B1B"/>
<rect x="33.6143" y="669" width="20" height="144" rx="2" fill="#55D6BE"/>
<rect x="33.6143" y="741" width="20" height="72" rx="2" fill="#EE4266"/>
<path d="M38.7631 829.666L38.6952 835.905C38.672 838.037 37.4374 839.194 35.5264 839.194C33.7064 839.194 32.5228 838.05 32.4516 836.23H33.4266C33.4901 837.569 34.3269 838.323 35.5359 838.323C36.8229 838.323 37.7019 837.582 37.7193 835.983L37.7881 829.666H38.7631ZM45.352 838.999L45.3656 837.751C44.9533 838.609 44.1156 839.129 43.0496 839.129C41.6326 839.129 40.7183 838.336 40.7317 837.101C40.7463 835.762 41.8199 835.06 43.8999 835.06C44.3159 835.06 44.6276 835.086 45.3031 835.138L45.3093 834.566C45.3217 833.422 44.7181 832.746 43.6781 832.746C42.5601 832.746 41.8506 833.435 41.8254 834.553H40.9934C41.049 833.032 42.113 832.018 43.673 832.018C45.272 832.018 46.1978 832.954 46.1806 834.54L46.132 838.999H45.352ZM41.603 837.075C41.5939 837.907 42.2248 838.466 43.1868 838.466C44.4608 838.466 45.2759 837.634 45.2899 836.347L45.2966 835.736C44.7121 835.684 44.3093 835.671 43.9323 835.671C42.3723 835.671 41.6133 836.126 41.603 837.075ZM49.4997 835.008L49.4563 838.999H48.5463L48.6209 832.148H49.4659L49.4518 833.435C49.903 832.59 50.7413 832.018 51.7293 832.018C53.1593 832.018 54.0724 832.928 54.0547 834.553L54.0063 838.999H53.0963L53.1413 834.865C53.1556 833.552 52.5656 832.811 51.4476 832.811C50.3816 832.811 49.5136 833.734 49.4997 835.008Z" fill="white"/>
<rect x="92.2808" y="613" width="19.5887" height="200" rx="2" fill="#1B1B1B"/>
<rect x="92.5542" y="653" width="19.5887" height="160" rx="2" fill="#55D6BE"/>
<rect x="92.6919" y="716" width="19.5887" height="97" rx="2" fill="#EE4266"/>
<path d="M92.9515 838.999H91.9765L92.0781 829.666H97.4341L97.4249 830.511H93.0439L93.0043 834.15H96.7743L96.7651 834.995H92.9951L92.9515 838.999ZM101.741 839.129C99.8168 839.129 98.5585 837.686 98.5821 835.515C98.6039 833.513 99.9462 832.018 101.766 832.018C103.716 832.018 104.973 833.591 104.793 835.788H99.4891C99.5494 837.413 100.397 838.414 101.736 838.414C102.88 838.414 103.679 837.777 103.912 836.685H104.809C104.481 838.206 103.314 839.129 101.741 839.129ZM101.746 832.72C100.511 832.72 99.6292 833.669 99.4959 835.164H103.851C103.79 833.63 103.007 832.72 101.746 832.72ZM113.078 835.567C113.056 837.673 111.857 839.129 110.024 839.129C108.971 839.129 108.093 838.557 107.623 837.556L107.607 838.999H106.762L106.864 829.666H107.774L107.731 833.591C108.184 832.59 109.061 832.018 110.101 832.018C111.934 832.018 113.101 833.461 113.078 835.567ZM112.155 835.567C112.174 833.825 111.288 832.811 109.949 832.811C108.662 832.811 107.716 833.812 107.697 835.541C107.678 837.257 108.576 838.336 109.889 838.336C111.228 838.336 112.137 837.309 112.155 835.567Z" fill="white"/>
<rect x="151.948" y="613" width="20" height="200" rx="2" fill="#1B1B1B"/>
<rect x="151.948" y="705" width="20" height="108" rx="2" fill="#55D6BE"/>
<rect x="151.948" y="753" width="20" height="60" rx="2" fill="#EE4266"/>
<path d="M155.216 838.999L151.922 831.083L151.836 838.999H150.926L151.028 829.666H152.289L155.658 837.803L159.231 829.666H160.479L160.377 838.999H159.48L159.566 831.083L156.074 838.999H155.216ZM167.126 838.999L167.14 837.751C166.727 838.609 165.89 839.129 164.824 839.129C163.407 839.129 162.492 838.336 162.506 837.101C162.52 835.762 163.594 835.06 165.674 835.06C166.09 835.06 166.402 835.086 167.077 835.138L167.083 834.566C167.096 833.422 166.492 832.746 165.452 832.746C164.334 832.746 163.625 833.435 163.599 834.553H162.767C162.823 833.032 163.887 832.018 165.447 832.018C167.046 832.018 167.972 832.954 167.954 834.54L167.906 838.999H167.126ZM163.377 837.075C163.368 837.907 163.999 838.466 164.961 838.466C166.235 838.466 167.05 837.634 167.064 836.347L167.07 835.736C166.486 835.684 166.083 835.671 165.706 835.671C164.146 835.671 163.387 836.126 163.377 837.075ZM171.27 835.333L171.23 838.999H170.32L170.395 832.148H171.24L171.223 833.708C171.702 832.694 172.723 832.044 173.854 832.044L173.844 832.993C172.401 832.941 171.286 833.838 171.27 835.333Z" fill="white"/>
<rect x="211.614" y="613" width="20" height="200" rx="2" fill="#1B1B1B"/>
<rect x="211.614" y="729" width="20" height="84" rx="2" fill="#55D6BE"/>
<rect x="211.614" y="769" width="20" height="44" rx="2" fill="#EE4266"/>
<path d="M218.021 838.999L217.074 836.412H212.719L211.703 838.999H210.741L214.47 829.666H215.536L219.048 838.999H218.021ZM214.966 830.706L213.027 835.619H216.771L214.966 830.706ZM227.208 835.567C227.185 837.686 225.987 839.129 224.167 839.129C223.14 839.129 222.275 838.57 221.817 837.595L221.775 841.508H220.865L220.967 832.148H221.812L221.795 833.63C222.274 832.616 223.191 832.018 224.244 832.018C226.064 832.018 227.231 833.474 227.208 835.567ZM226.285 835.567C226.304 833.838 225.418 832.811 224.079 832.811C222.805 832.811 221.845 833.825 221.826 835.567C221.808 837.27 222.719 838.336 224.019 838.336C225.358 838.336 226.266 837.322 226.285 835.567ZM230.086 835.333L230.046 838.999H229.136L229.211 832.148H230.056L230.039 833.708C230.518 832.694 231.539 832.044 232.67 832.044L232.66 832.993C231.217 832.941 230.102 833.838 230.086 835.333Z" fill="white"/>
<rect x="271.991" y="613" width="20" height="200" rx="2" fill="#1B1B1B"/>
<rect x="271.57" y="677" width="20" height="136" rx="2" fill="#55D6BE"/>
<rect x="271.711" y="762" width="20" height="51" rx="2" fill="#EE4266"/>
<path d="M274.268 838.999L270.975 831.083L270.888 838.999H269.978L270.08 829.666H271.341L274.71 837.803L278.283 829.666H279.531L279.429 838.999H278.532L278.619 831.083L275.126 838.999H274.268ZM286.178 838.999L286.192 837.751C285.779 838.609 284.942 839.129 283.876 839.129C282.459 839.129 281.544 838.336 281.558 837.101C281.572 835.762 282.646 835.06 284.726 835.06C285.142 835.06 285.454 835.086 286.129 835.138L286.135 834.566C286.148 833.422 285.544 832.746 284.504 832.746C283.386 832.746 282.677 833.435 282.652 834.553H281.82C281.875 833.032 282.939 832.018 284.499 832.018C286.098 832.018 287.024 832.954 287.007 834.54L286.958 838.999H286.178ZM282.429 837.075C282.42 837.907 283.051 838.466 284.013 838.466C285.287 838.466 286.102 837.634 286.116 836.347L286.123 835.736C285.538 835.684 285.135 835.671 284.758 835.671C283.198 835.671 282.439 836.126 282.429 837.075ZM294.522 832.148L290.91 841.508H289.935L290.964 838.908L288.321 832.148H289.296L291.444 837.816L293.599 832.148H294.522Z" fill="white"/>
<rect x="332.667" y="613" width="20" height="200" rx="2" fill="#1B1B1B"/>
<rect x="332.229" y="660" width="20" height="153" rx="2" fill="#55D6BE"/>
<rect x="332.229" y="772" width="20" height="41" rx="2" fill="#EE4266"/>
<path d="M337.425 829.666L337.357 835.905C337.334 838.037 336.099 839.194 334.188 839.194C332.368 839.194 331.185 838.05 331.114 836.23H332.089C332.152 837.569 332.989 838.323 334.198 838.323C335.485 838.323 336.364 837.582 336.381 835.983L336.45 829.666H337.425ZM344.213 836.23L344.258 832.148H345.155L345.08 838.999H344.235L344.249 837.764C343.889 838.557 343.051 839.129 342.05 839.129C340.659 839.129 339.744 838.336 339.763 836.607L339.812 832.148H340.722L340.675 836.412C340.66 837.803 341.343 838.336 342.305 838.336C343.397 838.336 344.2 837.452 344.213 836.23ZM348.505 835.008L348.461 838.999H347.551L347.626 832.148H348.471L348.457 833.435C348.908 832.59 349.746 832.018 350.734 832.018C352.164 832.018 353.077 832.928 353.06 834.553L353.011 838.999H352.101L352.146 834.865C352.16 833.552 351.571 832.811 350.453 832.811C349.387 832.811 348.518 833.734 348.505 835.008Z" fill="white"/>
<rect x="390" y="613" width="20" height="200" rx="2" fill="#1B1B1B"/>
<rect x="390" y="705" width="20" height="108" rx="2" fill="#55D6BE"/>
<rect x="390" y="753" width="20" height="60" rx="2" fill="#EE4266"/>
<path d="M397.225 829.666L397.157 835.905C397.133 838.037 395.899 839.194 393.988 839.194C392.168 839.194 390.984 838.05 390.913 836.23H391.888C391.951 837.569 392.788 838.323 393.997 838.323C395.284 838.323 396.163 837.582 396.181 835.983L396.25 829.666H397.225ZM404.013 836.23L404.057 832.148H404.954L404.879 838.999H404.034L404.048 837.764C403.688 838.557 402.85 839.129 401.849 839.129C400.458 839.129 399.544 838.336 399.563 836.607L399.611 832.148H400.521L400.475 836.412C400.459 837.803 401.143 838.336 402.105 838.336C403.197 838.336 403.999 837.452 404.013 836.23ZM408.26 838.999H407.35L407.452 829.666H408.362L408.26 838.999Z" fill="white"/>
<g filter="url(#filter2_b_1942_19581)">
<rect width="442" height="82" transform="translate(0 872)" fill="white" fill-opacity="0.05"/>
<rect y="872" width="442" height="1" fill="white" fill-opacity="0.1"/>
<path d="M82.2498 897.742L86.4165 901.492V908H84.7498V903H79.7498V908H78.0832V901.492L82.2498 897.742ZM82.2498 895.5L73.9165 903H76.4165V909.667H81.4165V904.667H83.0832V909.667H88.0832V903H90.5832" fill="white" fill-opacity="0.5"/>
<path d="M51.455 929H48.803V919.666H51.455C54.445 919.666 56.096 921.564 56.096 924.294C56.096 926.985 54.38 929 51.455 929ZM49.778 920.511V928.155H51.429C53.795 928.155 55.108 926.608 55.108 924.294C55.108 921.993 53.821 920.511 51.429 920.511H49.778ZM62.3113 929V927.752C61.9083 928.61 61.0763 929.13 60.0103 929.13C58.5933 929.13 57.6703 928.337 57.6703 927.102C57.6703 925.763 58.7363 925.061 60.8163 925.061C61.2323 925.061 61.5443 925.087 62.2203 925.139V924.567C62.2203 923.423 61.6093 922.747 60.5693 922.747C59.4513 922.747 58.7493 923.436 58.7363 924.554H57.9043C57.9433 923.033 58.9963 922.019 60.5563 922.019C62.1553 922.019 63.0913 922.955 63.0913 924.541V929H62.3113ZM58.5413 927.076C58.5413 927.908 59.1783 928.467 60.1403 928.467C61.4143 928.467 62.2203 927.635 62.2203 926.348V925.737C61.6353 925.685 61.2323 925.672 60.8553 925.672C59.2953 925.672 58.5413 926.127 58.5413 927.076ZM70.6276 927.089C70.6276 928.35 69.6136 929.13 67.9236 929.13C66.2206 929.13 65.1806 928.272 65.0506 926.855H65.9216C65.9866 927.83 66.7536 928.441 67.9236 928.441C69.0416 928.441 69.7176 928.012 69.7176 927.232C69.7176 926.556 69.3276 926.244 68.2876 926.036L67.2996 925.841C65.9996 925.594 65.3106 924.957 65.3106 923.969C65.3106 922.825 66.3246 922.019 67.8196 922.019C69.3926 922.019 70.4326 922.864 70.5366 924.229H69.6786C69.5876 923.28 68.8986 922.721 67.8196 922.721C66.8576 922.721 66.1946 923.176 66.1946 923.891C66.1946 924.567 66.6106 924.892 67.6246 925.087L68.6516 925.282C70.0166 925.542 70.6276 926.114 70.6276 927.089ZM73.6187 925.009V929H72.7087V919.666H73.6187V923.41C74.0477 922.591 74.8277 922.019 75.8157 922.019C77.2457 922.019 78.1687 922.929 78.1687 924.554V929H77.2587V924.866C77.2587 923.553 76.6607 922.812 75.5427 922.812C74.4767 922.812 73.6187 923.735 73.6187 925.009ZM86.8637 925.568C86.8637 927.674 85.6807 929.13 83.8477 929.13C82.7947 929.13 81.9107 928.558 81.4297 927.557V929H80.5847V919.666H81.4947V923.592C81.9367 922.591 82.8077 922.019 83.8477 922.019C85.6807 922.019 86.8637 923.462 86.8637 925.568ZM85.9407 925.568C85.9407 923.826 85.0437 922.812 83.7047 922.812C82.4177 922.812 81.4817 923.813 81.4817 925.542C81.4817 927.258 82.3917 928.337 83.7047 928.337C85.0437 928.337 85.9407 927.31 85.9407 925.568ZM91.5718 929.13C89.6868 929.13 88.3218 927.635 88.3218 925.568C88.3218 923.514 89.6868 922.032 91.5718 922.032C93.4698 922.032 94.8348 923.514 94.8348 925.568C94.8348 927.635 93.4698 929.13 91.5718 929.13ZM91.5718 928.337C92.9108 928.337 93.9118 927.271 93.9118 925.568C93.9118 923.891 92.9108 922.825 91.5718 922.825C90.2458 922.825 89.2448 923.891 89.2448 925.568C89.2448 927.271 90.2458 928.337 91.5718 928.337ZM101.018 929V927.752C100.615 928.61 99.7834 929.13 98.7174 929.13C97.3004 929.13 96.3774 928.337 96.3774 927.102C96.3774 925.763 97.4434 925.061 99.5234 925.061C99.9394 925.061 100.251 925.087 100.927 925.139V924.567C100.927 923.423 100.316 922.747 99.2764 922.747C98.1584 922.747 97.4564 923.436 97.4434 924.554H96.6114C96.6504 923.033 97.7034 922.019 99.2634 922.019C100.862 922.019 101.798 922.955 101.798 924.541V929H101.018ZM97.2484 927.076C97.2484 927.908 97.8854 928.467 98.8474 928.467C100.121 928.467 100.927 927.635 100.927 926.348V925.737C100.342 925.685 99.9394 925.672 99.5624 925.672C98.0024 925.672 97.2484 926.127 97.2484 927.076ZM105.123 925.334V929H104.213V922.149H105.058V923.709C105.526 922.695 106.54 922.045 107.671 922.045V922.994C106.228 922.942 105.123 923.839 105.123 925.334ZM108.763 925.568C108.763 923.462 109.933 922.019 111.779 922.019C112.806 922.019 113.677 922.604 114.132 923.579V919.666H115.042V929H114.197V927.557C113.716 928.558 112.832 929.13 111.779 929.13C109.933 929.13 108.763 927.674 108.763 925.568ZM109.686 925.568C109.686 927.31 110.57 928.337 111.909 928.337C113.235 928.337 114.145 927.258 114.145 925.542C114.145 923.813 113.209 922.812 111.909 922.812C110.57 922.812 109.686 923.826 109.686 925.568Z" fill="white" fill-opacity="0.5"/>
<path d="M177.75 901.835L180.93 896.337L182.227 897.087L178.305 903.875L173.422 901.062L169.845 907.25H182.25V908.75H167.25V895.25H168.75V906.155L172.875 899L177.75 901.835Z" fill="white"/>
<path d="M152.881 927L151.906 924.413H147.551L146.563 927H145.601L149.228 917.666H150.294L153.908 927H152.881ZM149.735 918.706L147.85 923.62H151.594L149.735 918.706ZM156.662 923.009V927H155.752V920.149H156.597V921.436C157.039 920.591 157.871 920.019 158.859 920.019C160.289 920.019 161.212 920.929 161.212 922.554V927H160.302V922.866C160.302 921.553 159.704 920.812 158.586 920.812C157.52 920.812 156.662 921.735 156.662 923.009ZM167.84 927V925.752C167.437 926.61 166.605 927.13 165.539 927.13C164.122 927.13 163.199 926.337 163.199 925.102C163.199 923.763 164.265 923.061 166.345 923.061C166.761 923.061 167.073 923.087 167.749 923.139V922.567C167.749 921.423 167.138 920.747 166.098 920.747C164.98 920.747 164.278 921.436 164.265 922.554H163.433C163.472 921.033 164.525 920.019 166.085 920.019C167.684 920.019 168.62 920.955 168.62 922.541V927H167.84ZM164.07 925.076C164.07 925.908 164.707 926.467 165.669 926.467C166.943 926.467 167.749 925.635 167.749 924.348V923.737C167.164 923.685 166.761 923.672 166.384 923.672C164.824 923.672 164.07 924.127 164.07 925.076ZM171.944 927H171.034V917.666H171.944V927ZM179.694 920.149L176.184 929.509H175.209L176.21 926.909L173.493 920.149H174.468L176.678 925.817L178.771 920.149H179.694ZM185.028 926.129V926.935C184.677 927.078 184.378 927.13 184.04 927.13C182.909 927.13 182.038 926.545 182.038 925.063V920.916H180.426V920.149H182.038V918.121H182.948V920.149H185.093V920.916H182.948V924.868C182.948 925.934 183.468 926.298 184.222 926.298C184.508 926.298 184.742 926.246 185.028 926.129ZM188.151 918.563C188.151 918.966 187.852 919.252 187.41 919.252C186.981 919.252 186.682 918.966 186.682 918.563C186.682 918.173 186.981 917.887 187.41 917.887C187.852 917.887 188.151 918.173 188.151 918.563ZM187.878 927H186.968V920.149H187.878V927ZM192.911 927.143C191.104 927.143 189.843 925.674 189.843 923.568C189.843 921.488 191.117 920.019 192.911 920.019C194.51 920.019 195.654 921.085 195.927 922.801H195.004C194.796 921.553 194.016 920.812 192.911 920.812C191.637 920.812 190.766 921.93 190.766 923.568C190.766 925.232 191.637 926.35 192.911 926.35C194.029 926.35 194.796 925.622 195.004 924.348H195.927C195.68 926.09 194.523 927.143 192.911 927.143ZM203.018 925.089C203.018 926.35 202.004 927.13 200.314 927.13C198.611 927.13 197.571 926.272 197.441 924.855H198.312C198.377 925.83 199.144 926.441 200.314 926.441C201.432 926.441 202.108 926.012 202.108 925.232C202.108 924.556 201.718 924.244 200.678 924.036L199.69 923.841C198.39 923.594 197.701 922.957 197.701 921.969C197.701 920.825 198.715 920.019 200.21 920.019C201.783 920.019 202.823 920.864 202.927 922.229H202.069C201.978 921.28 201.289 920.721 200.21 920.721C199.248 920.721 198.585 921.176 198.585 921.891C198.585 922.567 199.001 922.892 200.015 923.087L201.042 923.282C202.407 923.542 203.018 924.114 203.018 925.089Z" fill="white"/>
<path d="M274 901.332V896.75C274 896.352 273.842 895.971 273.561 895.689C273.279 895.408 272.898 895.25 272.5 895.25H269.365C269.05 894.38 268.225 893.75 267.25 893.75C266.275 893.75 265.45 894.38 265.135 895.25H262C261.175 895.25 260.5 895.925 260.5 896.75V907.25C260.5 907.648 260.658 908.029 260.939 908.311C261.221 908.592 261.602 908.75 262 908.75H266.582C267.527 909.68 268.818 910.25 270.25 910.25C273.153 910.25 275.5 907.903 275.5 905C275.5 903.568 274.93 902.278 274 901.332ZM267.25 895.25C267.662 895.25 268 895.587 268 896C268 896.412 267.662 896.75 267.25 896.75C266.838 896.75 266.5 896.412 266.5 896C266.5 895.587 266.838 895.25 267.25 895.25ZM262 907.25V896.75H263.5V898.25H271V896.75H272.5V900.26C271.818 899.938 271.06 899.75 270.25 899.75H263.5V901.25H266.575C266.125 901.677 265.78 902.188 265.51 902.75H263.5V904.25H265.06C265.023 904.498 265 904.745 265 905C265 905.81 265.188 906.568 265.51 907.25H262ZM270.25 908.75C268.18 908.75 266.5 907.07 266.5 905C266.5 902.93 268.18 901.25 270.25 901.25C272.32 901.25 274 902.93 274 905C274 907.07 272.32 908.75 270.25 908.75ZM270.625 905.188L272.77 906.455L272.208 907.37L269.5 905.75V902H270.625V905.188Z" fill="white" fill-opacity="0.5"/>
<path d="M239.833 927.195C237.233 927.195 235.27 925.076 235.27 922.32C235.27 919.577 237.233 917.471 239.833 917.471C242.056 917.471 243.889 918.966 244.253 921.189H243.226C242.927 919.525 241.549 918.342 239.833 918.342C237.766 918.342 236.271 920.032 236.271 922.32C236.271 924.634 237.766 926.324 239.833 926.324C241.562 926.324 242.94 925.128 243.226 923.464H244.253C243.889 925.687 242.056 927.195 239.833 927.195ZM249.01 927.13C247.125 927.13 245.76 925.635 245.76 923.568C245.76 921.514 247.125 920.032 249.01 920.032C250.908 920.032 252.273 921.514 252.273 923.568C252.273 925.635 250.908 927.13 249.01 927.13ZM249.01 926.337C250.349 926.337 251.35 925.271 251.35 923.568C251.35 921.891 250.349 920.825 249.01 920.825C247.684 920.825 246.683 921.891 246.683 923.568C246.683 925.271 247.684 926.337 249.01 926.337ZM255.155 923.009V927H254.245V920.149H255.09V921.436C255.532 920.591 256.364 920.019 257.352 920.019C258.782 920.019 259.705 920.929 259.705 922.554V927H258.795V922.866C258.795 921.553 258.197 920.812 257.079 920.812C256.013 920.812 255.155 921.735 255.155 923.009ZM265.631 926.129V926.935C265.28 927.078 264.981 927.13 264.643 927.13C263.512 927.13 262.641 926.545 262.641 925.063V920.916H261.029V920.149H262.641V918.121H263.551V920.149H265.696V920.916H263.551V924.868C263.551 925.934 264.071 926.298 264.825 926.298C265.111 926.298 265.345 926.246 265.631 926.129ZM268.482 923.334V927H267.572V920.149H268.417V921.709C268.885 920.695 269.899 920.045 271.03 920.045V920.994C269.587 920.942 268.482 921.839 268.482 923.334ZM276.854 927V925.752C276.451 926.61 275.619 927.13 274.553 927.13C273.136 927.13 272.213 926.337 272.213 925.102C272.213 923.763 273.279 923.061 275.359 923.061C275.775 923.061 276.087 923.087 276.763 923.139V922.567C276.763 921.423 276.152 920.747 275.112 920.747C273.994 920.747 273.292 921.436 273.279 922.554H272.447C272.486 921.033 273.539 920.019 275.099 920.019C276.698 920.019 277.634 920.955 277.634 922.541V927H276.854ZM273.084 925.076C273.084 925.908 273.721 926.467 274.683 926.467C275.957 926.467 276.763 925.635 276.763 924.348V923.737C276.178 923.685 275.775 923.672 275.398 923.672C273.838 923.672 273.084 924.127 273.084 925.076ZM282.61 927.143C280.803 927.143 279.542 925.674 279.542 923.568C279.542 921.488 280.816 920.019 282.61 920.019C284.209 920.019 285.353 921.085 285.626 922.801H284.703C284.495 921.553 283.715 920.812 282.61 920.812C281.336 920.812 280.465 921.93 280.465 923.568C280.465 925.232 281.336 926.35 282.61 926.35C283.728 926.35 284.495 925.622 284.703 924.348H285.626C285.379 926.09 284.222 927.143 282.61 927.143ZM291.117 926.129V926.935C290.766 927.078 290.467 927.13 290.129 927.13C288.998 927.13 288.127 926.545 288.127 925.063V920.916H286.515V920.149H288.127V918.121H289.037V920.149H291.182V920.916H289.037V924.868C289.037 925.934 289.557 926.298 290.311 926.298C290.597 926.298 290.831 926.246 291.117 926.129ZM298.168 925.089C298.168 926.35 297.154 927.13 295.464 927.13C293.761 927.13 292.721 926.272 292.591 924.855H293.462C293.527 925.83 294.294 926.441 295.464 926.441C296.582 926.441 297.258 926.012 297.258 925.232C297.258 924.556 296.868 924.244 295.828 924.036L294.84 923.841C293.54 923.594 292.851 922.957 292.851 921.969C292.851 920.825 293.865 920.019 295.36 920.019C296.933 920.019 297.973 920.864 298.077 922.229H297.219C297.128 921.28 296.439 920.721 295.36 920.721C294.398 920.721 293.735 921.176 293.735 921.891C293.735 922.567 294.151 922.892 295.165 923.087L296.192 923.282C297.557 923.542 298.168 924.114 298.168 925.089Z" fill="white" fill-opacity="0.5"/>
<path d="M359.75 896C360.546 896 361.309 896.316 361.871 896.879C362.434 897.441 362.75 898.204 362.75 899C362.75 899.796 362.434 900.559 361.871 901.121C361.309 901.684 360.546 902 359.75 902C358.954 902 358.191 901.684 357.629 901.121C357.066 900.559 356.75 899.796 356.75 899C356.75 898.204 357.066 897.441 357.629 896.879C358.191 896.316 358.954 896 359.75 896ZM359.75 897.5C359.352 897.5 358.971 897.658 358.689 897.939C358.408 898.221 358.25 898.602 358.25 899C358.25 899.398 358.408 899.779 358.689 900.061C358.971 900.342 359.352 900.5 359.75 900.5C360.148 900.5 360.529 900.342 360.811 900.061C361.092 899.779 361.25 899.398 361.25 899C361.25 898.602 361.092 898.221 360.811 897.939C360.529 897.658 360.148 897.5 359.75 897.5ZM359.75 902.75C361.753 902.75 365.75 903.747 365.75 905.75V908H353.75V905.75C353.75 903.747 357.747 902.75 359.75 902.75ZM359.75 904.175C357.523 904.175 355.175 905.27 355.175 905.75V906.575H364.325V905.75C364.325 905.27 361.977 904.175 359.75 904.175Z" fill="white" fill-opacity="0.5"/>
<path d="M340.881 927L339.906 924.413H335.551L334.563 927H333.601L337.228 917.666H338.294L341.908 927H340.881ZM337.735 918.706L335.85 923.62H339.594L337.735 918.706ZM345.919 927.143C344.112 927.143 342.851 925.674 342.851 923.568C342.851 921.488 344.125 920.019 345.919 920.019C347.518 920.019 348.662 921.085 348.935 922.801H348.012C347.804 921.553 347.024 920.812 345.919 920.812C344.645 920.812 343.774 921.93 343.774 923.568C343.774 925.232 344.645 926.35 345.919 926.35C347.037 926.35 347.804 925.622 348.012 924.348H348.935C348.688 926.09 347.531 927.143 345.919 927.143ZM353.376 927.143C351.569 927.143 350.308 925.674 350.308 923.568C350.308 921.488 351.582 920.019 353.376 920.019C354.975 920.019 356.119 921.085 356.392 922.801H355.469C355.261 921.553 354.481 920.812 353.376 920.812C352.102 920.812 351.231 921.93 351.231 923.568C351.231 925.232 352.102 926.35 353.376 926.35C354.494 926.35 355.261 925.622 355.469 924.348H356.392C356.145 926.09 354.988 927.143 353.376 927.143ZM361.015 927.13C359.13 927.13 357.765 925.635 357.765 923.568C357.765 921.514 359.13 920.032 361.015 920.032C362.913 920.032 364.278 921.514 364.278 923.568C364.278 925.635 362.913 927.13 361.015 927.13ZM361.015 926.337C362.354 926.337 363.355 925.271 363.355 923.568C363.355 921.891 362.354 920.825 361.015 920.825C359.689 920.825 358.688 921.891 358.688 923.568C358.688 925.271 359.689 926.337 361.015 926.337ZM370.631 924.231V920.149H371.528V927H370.683V925.765C370.332 926.558 369.5 927.13 368.499 927.13C367.108 927.13 366.185 926.337 366.185 924.608V920.149H367.095V924.413C367.095 925.804 367.784 926.337 368.746 926.337C369.838 926.337 370.631 925.453 370.631 924.231ZM374.909 923.009V927H373.999V920.149H374.844V921.436C375.286 920.591 376.118 920.019 377.106 920.019C378.536 920.019 379.459 920.929 379.459 922.554V927H378.549V922.866C378.549 921.553 377.951 920.812 376.833 920.812C375.767 920.812 374.909 921.735 374.909 923.009ZM385.385 926.129V926.935C385.034 927.078 384.735 927.13 384.397 927.13C383.266 927.13 382.395 926.545 382.395 925.063V920.916H380.783V920.149H382.395V918.121H383.305V920.149H385.45V920.916H383.305V924.868C383.305 925.934 383.825 926.298 384.579 926.298C384.865 926.298 385.099 926.246 385.385 926.129Z" fill="white" fill-opacity="0.5"/>
</g>
<defs>
<filter id="filter0_b_1942_19581" x="3.76367" y="2" width="88" height="88" filterUnits="userSpaceOnUse" color-interpolation-filters="sRGB">
<feFlood flood-opacity="0" result="BackgroundImageFix"/>
<feGaussianBlur in="BackgroundImageFix" stdDeviation="15"/>
<feComposite in2="SourceAlpha" operator="in" result="effect1_backgroundBlur_1942_19581"/>
<feBlend mode="normal" in="SourceGraphic" in2="effect1_backgroundBlur_1942_19581" result="shape"/>
</filter>
<filter id="filter1_b_1942_19581" x="350.236" y="2" width="88" height="88" filterUnits="userSpaceOnUse" color-interpolation-filters="sRGB">
<feFlood flood-opacity="0" result="BackgroundImageFix"/>
<feGaussianBlur in="BackgroundImageFix" stdDeviation="15"/>
<feComposite in2="SourceAlpha" operator="in" result="effect1_backgroundBlur_1942_19581"/>
<feBlend mode="normal" in="SourceGraphic" in2="effect1_backgroundBlur_1942_19581" result="shape"/>
</filter>
<filter id="filter2_b_1942_19581" x="-30" y="842" width="502" height="142" filterUnits="userSpaceOnUse" color-interpolation-filters="sRGB">
<feFlood flood-opacity="0" result="BackgroundImageFix"/>
<feGaussianBlur in="BackgroundImageFix" stdDeviation="15"/>
<feComposite in2="SourceAlpha" operator="in" result="effect1_backgroundBlur_1942_19581"/>
<feBlend mode="normal" in="SourceGraphic" in2="effect1_backgroundBlur_1942_19581" result="shape"/>
</filter>
<clipPath id="clip0_1942_19581">
<rect width="346" height="200" fill="white" transform="translate(48 271)"/>
</clipPath>
</defs>
</svg>
