<svg width="105" height="21" viewBox="0 0 105 21" fill="none" xmlns="http://www.w3.org/2000/svg">
<g clip-path="url(#clip0_2022_49148)">
<path fill-rule="evenodd" clip-rule="evenodd" d="M41.6429 16.2206C37.7903 19.0638 32.2049 20.5758 27.3949 20.5758C20.6542 20.5758 14.5839 18.084 9.99008 13.9361C9.6298 13.6101 9.9511 13.1653 10.3846 13.4175C15.3405 16.3015 21.4699 18.0385 27.7995 18.0385C32.0696 18.0385 36.7638 17.152 41.083 15.3199C41.7345 15.0441 42.2808 15.7493 41.6429 16.2206Z" fill="white"/>
<path fill-rule="evenodd" clip-rule="evenodd" d="M43.2467 14.3894C42.7535 13.7586 39.9894 14.0905 38.7474 14.2394C38.3712 14.2848 38.3127 13.9559 38.6517 13.7178C40.8571 12.1687 44.471 12.6158 44.891 13.1349C45.3138 13.6576 44.7793 17.281 42.7134 19.0098C42.395 19.2755 42.0926 19.1338 42.2338 18.783C42.6992 17.6212 43.7398 15.0213 43.2467 14.3894Z" fill="white"/>
<path fill-rule="evenodd" clip-rule="evenodd" d="M38.8349 2.77461V1.26972C38.8361 1.04056 39.0086 0.888184 39.2165 0.888774L45.9625 0.888184C46.178 0.888184 46.3517 1.0447 46.3517 1.26795V2.55844C46.3493 2.7752 46.1668 3.05751 45.8438 3.50579L42.3491 8.49531C43.6461 8.46518 45.0181 8.6595 46.1969 9.32158C46.4627 9.471 46.5342 9.69248 46.5549 9.90924V11.5151C46.5549 11.7366 46.3127 11.9923 46.0576 11.8594C43.9815 10.7715 41.2263 10.6528 38.93 11.8724C38.6955 11.9977 38.4504 11.7449 38.4504 11.5234V9.99665C38.4504 9.75273 38.4552 9.33457 38.7014 8.96248L42.7495 3.15437L39.2247 3.15378C39.0092 3.15378 38.8361 3.00022 38.8349 2.77461Z" fill="white"/>
<path fill-rule="evenodd" clip-rule="evenodd" d="M14.2271 12.1759H12.1747C11.9792 12.1635 11.8233 12.017 11.8074 11.8292L11.8091 1.29558C11.8091 1.08532 11.9863 0.916998 12.2054 0.916998L14.1167 0.916407C14.3163 0.926448 14.477 1.07765 14.4894 1.27019V2.64514H14.5283C15.0262 1.31507 15.9647 0.694336 17.2292 0.694336C18.5126 0.694336 19.3176 1.31507 19.8923 2.64514C20.3902 1.31507 21.5206 0.694336 22.7273 0.694336C23.5896 0.694336 24.528 1.0493 25.1027 1.84722C25.7542 2.73432 25.6207 4.0195 25.6207 5.14994L25.6183 11.7973C25.6183 12.007 25.4417 12.1759 25.2226 12.1759H23.1732C22.9665 12.1629 22.8046 11.9999 22.8046 11.7979L22.804 6.21363C22.804 5.77067 22.8424 4.66268 22.7462 4.24157C22.5932 3.53165 22.1337 3.33202 21.5401 3.33202C21.0416 3.33202 20.5243 3.66454 20.3134 4.19609C20.1026 4.72883 20.1221 5.61475 20.1221 6.21363V11.7973C20.1221 12.007 19.9449 12.1759 19.7263 12.1759H17.6763C17.4702 12.1629 17.3078 11.9999 17.3078 11.7979L17.3054 6.21363C17.3054 5.0389 17.4974 3.31076 16.0415 3.31076C14.5661 3.31076 14.624 4.9946 14.624 6.21363L14.6228 11.7973C14.6228 12.007 14.4457 12.1759 14.2271 12.1759Z" fill="white"/>
<path fill-rule="evenodd" clip-rule="evenodd" d="M52.1775 2.84477C50.6643 2.84477 50.5687 4.90542 50.5687 6.19119C50.5687 7.47696 50.5498 10.2257 52.1592 10.2257C53.7491 10.2257 53.8259 8.0091 53.8259 6.65719C53.8259 5.77067 53.7869 4.70638 53.5188 3.86417C53.289 3.13239 52.8289 2.84477 52.1775 2.84477ZM52.1592 0.694336C55.205 0.694336 56.8522 3.31076 56.8522 6.63533C56.8522 9.84828 55.0325 12.398 52.1592 12.398C49.1701 12.398 47.5417 9.78213 47.5417 6.5243C47.5417 3.24343 49.189 0.694336 52.1592 0.694336Z" fill="white"/>
<path fill-rule="evenodd" clip-rule="evenodd" d="M60.803 12.1759H58.7577C58.5528 12.1629 58.3898 11.9999 58.3898 11.7979L58.3862 1.26074C58.4039 1.0676 58.574 0.916998 58.7808 0.916998L60.6843 0.916407C60.8639 0.925857 61.0115 1.04752 61.0493 1.21112V2.82232H61.0877C61.663 1.38122 62.4668 0.694336 63.8843 0.694336C64.8039 0.694336 65.7045 1.02685 66.2792 1.93581C66.8155 2.77803 66.8155 4.19609 66.8155 5.21609V11.8446C66.793 12.0312 66.6253 12.1759 66.4221 12.1759H64.365C64.1748 12.1641 64.0219 12.0241 63.9994 11.8446V6.12563C63.9994 4.97275 64.1341 3.28773 62.716 3.28773C62.2181 3.28773 61.7581 3.62024 61.5283 4.12994C61.2407 4.77312 61.2023 5.41571 61.2023 6.12563V11.7973C61.1987 12.007 61.0216 12.1759 60.803 12.1759Z" fill="white"/>
<path fill-rule="evenodd" clip-rule="evenodd" d="M35.5252 12.1498C35.3899 12.2715 35.1944 12.2798 35.0409 12.1977C34.3593 11.6313 34.237 11.3696 33.8644 10.8298C32.7381 11.9774 31.9401 12.3217 30.4807 12.3217C28.7532 12.3217 27.4089 11.255 27.4089 9.12292C27.4089 7.4568 28.312 6.324 29.5978 5.76882C30.7111 5.27979 32.2662 5.1912 33.4568 5.05772V4.79135C33.4568 4.30173 33.4952 3.72529 33.207 3.303C32.9572 2.92501 32.4776 2.76968 32.0553 2.76968C31.2721 2.76968 30.577 3.17071 30.4057 4.0017C30.3697 4.18656 30.235 4.37025 30.0496 4.37969L28.0598 4.16412C27.8921 4.12573 27.7054 3.99107 27.7533 3.73474C28.2051 1.35516 30.3301 0.613343 32.2614 0.593262H32.4138C33.4025 0.605665 34.6652 0.876757 35.4342 1.61444C36.4329 2.54761 36.3361 3.79144 36.3361 5.1469V8.3439C36.3361 9.30602 36.7359 9.72771 37.111 10.2457C37.2427 10.4329 37.2716 10.6544 37.1045 10.7914C36.6851 11.1428 35.9404 11.7896 35.5311 12.1546L35.5252 12.1498ZM33.4568 7.14614C33.4568 7.94583 33.4757 8.61204 33.0729 9.32314C32.7463 9.90017 32.2278 10.2557 31.6519 10.2557C30.8652 10.2557 30.4045 9.65625 30.4045 8.76737C30.4045 7.01915 31.972 6.7014 33.4568 6.7014V7.14614Z" fill="white"/>
<path fill-rule="evenodd" clip-rule="evenodd" d="M8.62244 12.1498C8.4866 12.2715 8.29051 12.2798 8.13754 12.1977C7.45538 11.6313 7.33313 11.3696 6.96104 10.8298C5.83414 11.9774 5.03681 12.3217 3.5774 12.3217C1.84986 12.3217 0.505615 11.255 0.505615 9.12292C0.505615 7.4568 1.40748 6.324 2.69443 5.76882C3.80774 5.27979 5.36283 5.1912 6.55292 5.05772V4.79135C6.55292 4.30173 6.5919 3.72529 6.30368 3.303C6.05385 2.92501 5.57368 2.76968 5.15198 2.76968C4.36883 2.76968 3.67249 3.17071 3.5024 4.0017C3.46696 4.18656 3.33171 4.37025 3.14566 4.37969L1.15647 4.16412C0.988148 4.12573 0.801513 3.99107 0.849944 3.73474C1.30058 1.35516 3.42621 0.613343 5.35811 0.593262H5.51049C6.49918 0.605665 7.76191 0.876757 8.53089 1.61444C9.52903 2.54761 9.43276 3.79144 9.43276 5.1469V8.3439C9.43276 9.30602 9.83261 9.72771 10.2076 10.2457C10.3382 10.4329 10.3683 10.6544 10.2012 10.7914C9.78182 11.1428 9.03646 11.7896 8.62716 12.1546L8.62244 12.1498ZM6.55292 7.14614C6.55292 7.94583 6.57241 8.61204 6.16902 9.32314C5.843 9.90017 5.32444 10.2557 4.748 10.2557C3.9613 10.2557 3.50062 9.65625 3.50062 8.76737C3.50062 7.01915 5.06871 6.7014 6.55292 6.7014V7.14614Z" fill="white"/>
<path fill-rule="evenodd" clip-rule="evenodd" d="M94.8701 15.9547C94.8701 15.6878 94.8701 15.448 94.8701 15.181C94.8701 14.9607 94.9782 14.8089 95.2079 14.8225C95.6367 14.8833 96.2433 14.9442 96.6738 14.8556C97.2361 14.7386 97.6395 14.34 97.8781 13.7937C98.2142 13.0247 98.4368 12.4045 98.5774 11.9976L94.3078 1.42086C94.2358 1.24131 94.2145 0.908203 94.573 0.908203H96.0655C96.3502 0.908203 96.4659 1.08893 96.5297 1.26612L99.6252 9.8572L102.58 1.26612C102.64 1.09011 102.761 0.908203 103.044 0.908203H104.451C104.807 0.908203 104.787 1.24072 104.716 1.42086L100.481 12.3277C99.9329 13.7795 99.2029 16.0917 97.5586 16.4934C96.7341 16.7089 95.694 16.631 95.0833 16.3752C94.9292 16.2979 94.8701 16.0911 94.8701 15.9547Z" fill="white"/>
<path fill-rule="evenodd" clip-rule="evenodd" d="M92.879 11.5316C92.879 11.7283 92.7177 11.8895 92.5199 11.8895H91.4674C91.24 11.8895 91.0847 11.7253 91.0558 11.5316L90.95 10.8152C90.4663 11.2245 89.8728 11.5842 89.229 11.8346C87.9911 12.3153 86.5641 12.3951 85.3545 11.6521C84.4798 11.1152 84.0156 10.0657 84.0156 8.98309C84.0156 8.1456 84.2737 7.31519 84.846 6.71218C85.6097 5.88827 86.7165 5.4837 88.0531 5.4837C88.8604 5.4837 90.0157 5.57878 90.8561 5.85342V4.41173C90.8561 2.94582 90.2389 2.3115 88.6118 2.3115C87.368 2.3115 86.4165 2.49932 85.0923 2.91098C84.8803 2.91806 84.7563 2.75683 84.7563 2.56015V1.73801C84.7563 1.54075 84.9246 1.34998 85.1071 1.2921C86.0527 0.87985 87.3922 0.622933 88.8161 0.575684C90.6724 0.575684 92.879 0.99443 92.879 3.84946V11.5316ZM90.8561 9.42664V7.25141C90.1498 7.05828 88.9809 6.97795 88.5285 6.97795C87.8139 6.97795 87.0313 7.14687 86.6226 7.58688C86.3173 7.90935 86.179 8.37239 86.179 8.82008C86.179 9.39888 86.3793 9.97946 86.847 10.2665C87.3904 10.6356 88.2332 10.5907 89.0252 10.3657C89.7865 10.1496 90.5012 9.76743 90.8561 9.42664Z" fill="white"/>
<path fill-rule="evenodd" clip-rule="evenodd" d="M77.3604 2.34384C79.6957 2.34384 80.3318 4.18006 80.3318 6.28265C80.3447 7.70012 80.0843 8.96404 79.3502 9.68754C78.8009 10.2291 78.1872 10.3768 77.2635 10.3768C76.4414 10.3768 75.36 9.94801 74.552 9.35089V3.33902C75.393 2.69289 76.4662 2.34384 77.3604 2.34384ZM74.1941 16.332H72.7843C72.587 16.332 72.4258 16.1707 72.4258 15.9741C72.4258 11.0779 72.4258 6.18106 72.4258 1.28486C72.4258 1.08819 72.587 0.92695 72.7843 0.92695H73.8633C74.0901 0.92695 74.2455 1.09114 74.2744 1.28486L74.3878 2.05443C75.3983 1.15729 76.6995 0.582031 77.9392 0.582031C81.4114 0.582031 82.5531 3.44297 82.5531 6.4179C82.5531 9.60072 80.8066 12.1581 77.8529 12.1581C76.6091 12.1581 75.4462 11.6992 74.552 10.9018V15.9741C74.552 16.1707 74.3908 16.332 74.1941 16.332Z" fill="white"/>
</g>
<defs>
<clipPath id="clip0_2022_49148">
<rect width="104.252" height="20" fill="white" transform="translate(0.505371 0.575684)"/>
</clipPath>
</defs>
</svg>
