<svg width="45" height="19" viewBox="0 0 45 19" fill="none" xmlns="http://www.w3.org/2000/svg">
<g clip-path="url(#clip0_2022_49103)">
<path d="M8.79902 2.89633C8.28522 3.50432 7.46315 3.98387 6.64107 3.91536C6.53831 3.09329 6.94079 2.21983 7.41177 1.68035C7.92557 1.05523 8.82471 0.609937 9.55259 0.575684C9.63822 1.43201 9.30425 2.27121 8.79902 2.89633ZM9.54402 4.07806C8.35373 4.00956 7.3347 4.75456 6.76952 4.75456C6.19578 4.75456 5.33089 4.11232 4.38893 4.12944C3.16439 4.14657 2.02547 4.84019 1.40035 5.94486C0.11586 8.15418 1.06638 11.4254 2.30806 13.2236C2.91605 14.1142 3.64393 15.0904 4.60301 15.0562C5.51072 15.0219 5.87038 14.4653 6.96648 14.4653C8.07114 14.4653 8.38798 15.0562 9.34707 15.0391C10.3404 15.0219 10.9655 14.1485 11.5735 13.2579C12.2671 12.2474 12.5497 11.2626 12.5669 11.2113C12.5497 11.1941 10.6487 10.4663 10.6316 8.27407C10.6144 6.44153 12.1301 5.56807 12.1986 5.51669C11.3423 4.24933 10.0064 4.11232 9.54402 4.07806ZM16.4203 1.59471V14.9449H18.4926V10.3806H21.3613C23.9817 10.3806 25.8228 8.58234 25.8228 5.97911C25.8228 3.37587 24.016 1.59471 21.4298 1.59471H16.4203ZM18.4926 3.34162H20.8818C22.6801 3.34162 23.7077 4.30071 23.7077 5.98767C23.7077 7.67464 22.6801 8.64229 20.8732 8.64229H18.4926V3.34162ZM29.6078 15.0476C30.9094 15.0476 32.1168 14.3882 32.6649 13.3435H32.7077V14.9449H34.6259V8.29976C34.6259 6.37302 33.0845 5.13135 30.7124 5.13135C28.5117 5.13135 26.8847 6.39015 26.8247 8.11993H28.6915C28.8456 7.29785 29.6078 6.75837 30.6525 6.75837C31.9199 6.75837 32.6306 7.34923 32.6306 8.43677V9.17321L30.0445 9.32735C27.6382 9.47292 26.3366 10.4577 26.3366 12.1704C26.3366 13.9001 27.681 15.0476 29.6078 15.0476ZM30.1644 13.4634C29.0597 13.4634 28.3575 12.9325 28.3575 12.119C28.3575 11.2798 29.034 10.7917 30.3271 10.7146L32.6306 10.569V11.3226C32.6306 12.5728 31.5688 13.4634 30.1644 13.4634ZM37.1863 18.5757C39.2072 18.5757 40.1577 17.805 40.9884 15.4672L44.6278 5.25979H42.5212L40.0807 13.1466H40.0378L37.5973 5.25979H35.4308L38.9417 14.9791L38.7533 15.57C38.4365 16.5719 37.9227 16.9572 37.0064 16.9572C36.8437 16.9572 36.5269 16.9401 36.3984 16.923V18.5243C36.5183 18.5586 37.0321 18.5757 37.1863 18.5757Z" fill="#111111"/>
</g>
<defs>
<clipPath id="clip0_2022_49103">
<rect width="43.844" height="18" fill="white" transform="translate(0.783936 0.575684)"/>
</clipPath>
</defs>
</svg>
