<svg width="77" height="22" viewBox="0 0 77 22" fill="none" xmlns="http://www.w3.org/2000/svg">
<g clip-path="url(#clip0_2022_49162)">
<path d="M9.3769 6.22807C10.1878 6.22807 10.8884 6.37337 11.4772 6.65868C12.0687 6.9468 12.5568 7.33492 12.9484 7.82304C13.3346 8.31366 13.6221 8.88709 13.8078 9.54426C13.9921 10.2033 14.0846 10.9117 14.0846 11.6702C14.0846 12.8352 13.8712 13.9358 13.4403 14.9732C13.0093 16.0123 12.4247 16.9135 11.6809 17.6823C10.9378 18.4501 10.0603 19.0554 9.04847 19.5025C8.03817 19.95 6.93975 20.1738 5.7604 20.1738C5.6079 20.1738 5.33977 20.1694 4.96103 20.1616C4.58228 20.1538 4.14699 20.1147 3.65949 20.0488C3.16888 19.9803 2.65013 19.8791 2.10233 19.7435C1.55484 19.6104 1.03485 19.4238 0.545166 19.1869L4.92385 0.788469L8.84565 0.180664L7.27787 6.70963C7.61349 6.55838 7.9516 6.44119 8.2891 6.35588C8.62691 6.27181 8.98941 6.22807 9.3769 6.22807ZM6.08726 17.0626C6.67788 17.0626 7.23443 16.9173 7.75723 16.632C8.2816 16.3463 8.7341 15.9607 9.11316 15.4804C9.49221 14.9979 9.7922 14.4545 10.011 13.8473C10.2297 13.2401 10.3403 12.6067 10.3403 11.9477C10.3403 11.138 10.205 10.5064 9.93532 10.0499C9.66564 9.5952 9.16659 9.36645 8.44191 9.36645C8.20442 9.36645 7.89848 9.41176 7.51911 9.4927C7.1385 9.57864 6.79787 9.75708 6.49257 10.0255L4.82322 16.9591C4.92385 16.977 5.0129 16.9938 5.08884 17.0098C5.16321 17.027 5.2454 17.0392 5.32727 17.0476C5.41383 17.0573 5.5129 17.0623 5.63259 17.0623C5.75227 17.0623 5.90195 17.0626 6.08726 17.0626Z" fill="white"/>
<path d="M18.1514 19.8213H14.4055L17.5689 6.50996H21.3404L18.1514 19.8213ZM19.9742 4.88811C19.4514 4.88811 18.9773 4.73249 18.5567 4.42062C18.1326 4.11063 17.9227 3.63345 17.9227 2.99033C17.9227 2.63659 17.9945 2.30471 18.137 1.99159C18.2817 1.6791 18.4708 1.41004 18.7076 1.1813C18.9442 0.954426 19.2183 0.773175 19.5295 0.636615C19.8426 0.502242 20.1757 0.435059 20.5307 0.435059C21.0532 0.435059 21.5248 0.590682 21.947 0.902552C22.3676 1.21598 22.5791 1.69316 22.5791 2.33284C22.5791 2.68784 22.5076 3.02095 22.3638 3.33345C22.221 3.64594 22.032 3.915 21.7951 4.14374C21.5604 4.37093 21.2838 4.55155 20.9732 4.68686C20.6598 4.82342 20.3279 4.88811 19.9742 4.88811Z" fill="white"/>
<path d="M24.6235 3.19374L28.5469 2.58594L27.5835 6.50963H31.7853L31.0266 9.59645H26.8501L25.7376 14.2526C25.6351 14.6408 25.577 15.0032 25.5607 15.3401C25.5423 15.6785 25.5851 15.9692 25.6863 16.2139C25.787 16.4592 25.9679 16.6482 26.2304 16.782C26.4916 16.9179 26.8657 16.9863 27.3563 16.9863C27.7604 16.9863 28.1541 16.9479 28.5347 16.8717C28.9132 16.7967 29.2966 16.6923 29.6847 16.5557L29.9641 19.4419C29.4578 19.6275 28.9097 19.7872 28.3191 19.9216C27.7275 20.0579 27.0272 20.1235 26.2179 20.1235C25.0542 20.1235 24.152 19.9507 23.5092 19.6066C22.8673 19.2601 22.4136 18.7866 22.142 18.1873C21.8742 17.5901 21.7545 16.9017 21.788 16.126C21.8226 15.3486 21.9398 14.5314 22.142 13.6708L24.6235 3.19374Z" fill="white"/>
<path d="M31.6199 14.5056C31.6199 13.3591 31.8055 12.2779 32.1764 11.2657C32.5467 10.2526 33.0802 9.36667 33.7723 8.60637C34.462 7.84982 35.3023 7.25045 36.2914 6.81045C37.2757 6.37296 38.3779 6.15234 39.5926 6.15234C40.3529 6.15234 41.0319 6.22422 41.6294 6.36828C42.2294 6.51359 42.7722 6.7014 43.2631 6.93702L41.9713 9.87448C41.6338 9.7376 41.2835 9.61698 40.9213 9.5076C40.5588 9.39604 40.1163 9.3423 39.5929 9.3423C38.3426 9.3423 37.3542 9.77322 36.6185 10.6323C35.8857 11.4919 35.5167 12.6491 35.5167 14.1007C35.5167 14.961 35.7023 15.6566 36.0748 16.1888C36.4454 16.7209 37.1301 16.9856 38.1241 16.9856C38.6148 16.9856 39.0882 16.9344 39.5416 16.8344C39.9985 16.7331 40.4019 16.6056 40.7572 16.455L41.0369 19.4662C40.5632 19.6499 40.0407 19.8159 39.4676 19.9612C38.8932 20.1015 38.2095 20.1743 37.4167 20.1743C36.3701 20.1743 35.4842 20.0212 34.7595 19.7196C34.0345 19.4134 33.4355 19.0068 32.9636 18.4918C32.4892 17.9756 32.1486 17.3728 31.938 16.6809C31.7274 15.9897 31.6199 15.2634 31.6199 14.5056Z" fill="white"/>
<path d="M48.2604 20.1743C47.3663 20.1743 46.5898 20.0381 45.9311 19.7684C45.2742 19.4987 44.7301 19.1203 44.2998 18.6297C43.8689 18.1415 43.5464 17.5631 43.3255 16.8965C43.1045 16.2303 42.9983 15.4925 42.9983 14.6841C42.9983 13.67 43.1611 12.6563 43.4902 11.6454C43.8177 10.6323 44.3036 9.72198 44.9467 8.91293C45.5848 8.10263 46.372 7.44013 47.2988 6.92358C48.2248 6.41046 49.2898 6.15234 50.486 6.15234C51.3638 6.15234 52.1363 6.2889 52.8041 6.55858C53.4687 6.82764 54.0162 7.2092 54.449 7.69732C54.8772 8.18794 55.2025 8.76387 55.4212 9.43136C55.6415 10.0963 55.7503 10.836 55.7503 11.6451C55.7503 12.656 55.5897 13.6697 55.2709 14.6838C54.9519 15.6928 54.4784 16.6053 53.8534 17.4162C53.2297 18.2253 52.4497 18.8875 51.5128 19.4018C50.5772 19.9162 49.4922 20.1743 48.2604 20.1743ZM50.1326 9.34261C49.5773 9.34261 49.0863 9.50385 48.666 9.82228C48.2441 10.1445 47.8898 10.5495 47.6042 11.0379C47.3154 11.5285 47.1013 12.0635 46.9567 12.6451C46.8132 13.2279 46.7429 13.7788 46.7429 14.3022C46.7429 15.1469 46.8792 15.8047 47.147 16.2781C47.4185 16.7491 47.9063 16.9859 48.6154 16.9859C49.1726 16.9859 49.661 16.8259 50.0838 16.5041C50.5032 16.1844 50.8579 15.7791 51.1457 15.2897C51.4325 14.8016 51.6485 14.265 51.7931 13.6825C51.9347 13.1016 52.0069 12.5476 52.0069 12.0251C52.0069 11.1826 51.8713 10.5232 51.601 10.0504C51.331 9.57948 50.841 9.34261 50.1326 9.34261Z" fill="white"/>
<path d="M59.832 19.8213H56.083L59.2464 6.50996H63.0198L59.832 19.8213ZM61.652 4.88811C61.1295 4.88811 60.6557 4.73249 60.2358 4.42062C59.8139 4.11063 59.602 3.63345 59.602 2.99033C59.602 2.63659 59.6748 2.30471 59.8176 1.99159C59.9604 1.6791 60.1507 1.41004 60.3876 1.1813C60.6229 0.954426 60.8995 0.773175 61.2101 0.636615C61.5214 0.502242 61.8545 0.435059 62.2082 0.435059C62.732 0.435059 63.2051 0.590682 63.6263 0.902552C64.0479 1.21598 64.2607 1.69316 64.2607 2.33284C64.2607 2.68784 64.1851 3.02095 64.0435 3.33345C63.9019 3.64594 63.7116 3.915 63.4757 4.14374C63.2382 4.37093 62.9651 4.55155 62.6538 4.68686C62.3401 4.82342 62.0076 4.88811 61.652 4.88811Z" fill="white"/>
<path d="M65.7193 7.1153C66.0037 7.03218 66.3212 6.93218 66.6665 6.82343C67.013 6.71468 67.4002 6.61344 67.8327 6.52219C68.2605 6.42813 68.7433 6.35188 69.2742 6.29282C69.8052 6.23251 70.4101 6.20312 71.0823 6.20312C73.0579 6.20312 74.4198 6.77844 75.1716 7.92561C75.9229 9.07278 76.0529 10.6427 75.5654 12.6327L73.8423 19.8201H70.0717L71.7417 12.784C71.8436 12.3446 71.9236 11.9199 71.9826 11.5049C72.0423 11.0937 72.0389 10.7312 71.9692 10.4174C71.9026 10.1074 71.7457 9.8537 71.5023 9.65714C71.2551 9.4637 70.8817 9.36652 70.3751 9.36652C69.8867 9.36652 69.3898 9.41902 68.8827 9.52027L66.4274 19.8198H62.6553L65.7193 7.1153Z" fill="white"/>
</g>
<defs>
<clipPath id="clip0_2022_49162">
<rect width="76" height="21" fill="white" transform="translate(0.481445 0.0756836)"/>
</clipPath>
</defs>
</svg>
