<svg width="51" height="21" viewBox="0 0 51 21" fill="none" xmlns="http://www.w3.org/2000/svg">
<g clip-path="url(#clip0_2022_49138)">
<path d="M24.1509 10.3464V16.2091H22.291V1.73095H27.2237C27.8125 1.71865 28.3979 1.82308 28.9461 2.03821C29.4944 2.25333 29.9946 2.5749 30.4178 2.98435C30.8454 3.36894 31.1857 3.84059 31.4158 4.36762C31.646 4.89465 31.7606 5.46483 31.7521 6.03985C31.7643 6.61795 31.6514 7.19186 31.4212 7.72224C31.1909 8.25263 30.8486 8.72695 30.4178 9.11269C29.5553 9.93519 28.4906 10.3461 27.2237 10.3453H24.1509V10.3464ZM24.1509 3.51343V8.56743H27.2699C27.6119 8.57757 27.9522 8.51623 28.269 8.38733C28.5859 8.25843 28.8724 8.06481 29.1102 7.81886C29.3467 7.58891 29.5347 7.31386 29.6631 7.00998C29.7915 6.7061 29.8576 6.37956 29.8576 6.04967C29.8576 5.71979 29.7915 5.39325 29.6631 5.08937C29.5347 4.78549 29.3467 4.51044 29.1102 4.28048C28.8754 4.02935 28.5899 3.83099 28.2726 3.69855C27.9554 3.56611 27.6136 3.50261 27.2699 3.51227H24.1509V3.51343Z" fill="white"/>
<path d="M36.0379 5.97949C37.4126 5.97949 38.4977 6.34685 39.2933 7.08155C40.0888 7.81626 40.4862 8.8236 40.4854 10.1036V16.2088H38.7064V14.8341H38.6256C37.8554 15.9662 36.8311 16.5323 35.5527 16.5323C34.4614 16.5323 33.5485 16.2088 32.8137 15.5619C32.4612 15.265 32.1793 14.8931 31.9886 14.4734C31.798 14.0538 31.7034 13.5968 31.7117 13.136C31.7117 12.1109 32.0991 11.2957 32.8738 10.6904C33.6486 10.0851 34.6829 9.78164 35.9767 9.7801C37.0811 9.7801 37.9906 9.98226 38.7053 10.3866V9.96147C38.7074 9.64728 38.6395 9.33655 38.5067 9.05182C38.3738 8.7671 38.1792 8.51551 37.9371 8.31531C37.4452 7.87157 36.8043 7.62945 36.1419 7.63721C35.103 7.63721 34.2809 8.07541 33.6755 8.95183L32.0375 7.92023C32.9385 6.62641 34.272 5.97949 36.0379 5.97949ZM33.6316 13.1764C33.6304 13.4131 33.6857 13.6467 33.793 13.8577C33.9003 14.0686 34.0565 14.2509 34.2485 14.3894C34.6598 14.7129 35.1704 14.8843 35.6937 14.8745C36.4785 14.8732 37.2308 14.5608 37.7857 14.0058C38.4018 13.4259 38.7099 12.7455 38.7099 11.9646C38.13 11.5025 37.3213 11.2715 36.284 11.2715C35.5285 11.2715 34.8985 11.4536 34.3941 11.8179C33.8846 12.1875 33.6316 12.6369 33.6316 13.1764Z" fill="white"/>
<path d="M50.6971 6.30273L44.4868 20.5752H42.5668L44.8715 15.5813L40.7878 6.30273H42.8094L45.761 13.4188H45.8014L48.6721 6.30273H50.6971Z" fill="white"/>
<path d="M16.635 9.08233C16.6357 8.51553 16.5878 7.94972 16.4918 7.39111H8.64795V10.5945H13.1405C13.0486 11.1061 12.854 11.5938 12.5685 12.0282C12.283 12.4626 11.9125 12.8347 11.4793 13.1221V15.2014H14.1606C15.7305 13.754 16.635 11.6134 16.635 9.08233Z" fill="white"/>
<path d="M8.64771 17.2104C10.8923 17.2104 12.7822 16.4734 14.1603 15.2027L11.4791 13.1233C10.7328 13.6293 9.77172 13.9181 8.64771 13.9181C6.47824 13.9181 4.63686 12.4556 3.97839 10.4849H1.21631V12.6278C1.90858 14.0053 2.97011 15.1633 4.28237 15.9726C5.59464 16.7818 7.10599 17.2104 8.64771 17.2104Z" fill="white"/>
<path d="M3.97855 10.4848C3.63045 9.45214 3.63045 8.3338 3.97855 7.3011V5.1582H1.21647C0.634106 6.31705 0.330811 7.59602 0.330811 8.89297C0.330811 10.1899 0.634106 11.4689 1.21647 12.6277L3.97855 10.4848Z" fill="white"/>
<path d="M8.64771 3.86806C9.83385 3.84869 10.98 4.29685 11.8384 5.11568L14.2123 2.74174C12.707 1.32786 10.7128 0.551621 8.64771 0.575741C7.10599 0.575811 5.59464 1.00438 4.28237 1.81361C2.97011 2.62284 1.90858 3.78087 1.21631 5.15842L3.97839 7.30132C4.63686 5.33055 6.47824 3.86806 8.64771 3.86806Z" fill="white"/>
</g>
<defs>
<clipPath id="clip0_2022_49138">
<rect width="50.3633" height="20" fill="white" transform="translate(0.330566 0.575684)"/>
</clipPath>
</defs>
</svg>
