<svg width="77" height="21" viewBox="0 0 77 21" fill="none" xmlns="http://www.w3.org/2000/svg">
<g clip-path="url(#clip0_2022_49123)">
<path d="M28.9059 4.66553H24.761C24.4774 4.66553 24.2362 4.87159 24.1919 5.15159L22.5156 15.7801C22.4822 15.9898 22.6447 16.1789 22.8574 16.1789H24.8362C25.1198 16.1789 25.361 15.9728 25.4053 15.6922L25.8574 12.8255C25.901 12.5449 26.1429 12.3389 26.4259 12.3389H27.738C30.4683 12.3389 32.0441 11.0176 32.4556 8.39947C32.641 7.25401 32.4634 6.35401 31.9271 5.72371C31.338 5.03159 30.2931 4.66553 28.9059 4.66553ZM29.3841 8.54735C29.1574 10.0346 28.021 10.0346 26.9222 10.0346H26.2968L26.7356 7.25704C26.7616 7.08916 26.9071 6.96553 27.0768 6.96553H27.3635C28.1119 6.96553 28.818 6.96553 29.1828 7.39219C29.4004 7.64674 29.4671 8.02492 29.3841 8.54735Z" fill="white"/>
<path d="M41.2956 8.49965H39.3107C39.1416 8.49965 38.9956 8.62329 38.9695 8.79117L38.8816 9.34632L38.7428 9.14511C38.3131 8.52147 37.355 8.31299 36.3986 8.31299C34.2053 8.31299 32.3319 9.9742 31.9671 12.3045C31.7774 13.4669 32.0471 14.5784 32.7065 15.3536C33.3113 16.0663 34.1768 16.3633 35.2065 16.3633C36.9738 16.3633 37.9538 15.2269 37.9538 15.2269L37.8653 15.7784C37.8319 15.9894 37.9944 16.1784 38.2059 16.1784H39.9937C40.278 16.1784 40.518 15.9724 40.5628 15.6918L41.6356 8.89844C41.6695 8.68935 41.5077 8.49965 41.2956 8.49965ZM38.5289 12.3627C38.3374 13.4966 37.4374 14.2578 36.2895 14.2578C35.7131 14.2578 35.2525 14.073 34.9568 13.7227C34.6635 13.3748 34.5519 12.8797 34.6453 12.3281C34.8241 11.2039 35.7392 10.4178 36.8695 10.4178C37.4331 10.4178 37.8913 10.6051 38.1931 10.9584C38.4956 11.3154 38.6156 11.8136 38.5289 12.3627Z" fill="white"/>
<path d="M51.8663 8.49951H49.8717C49.6814 8.49951 49.5027 8.59406 49.3948 8.75224L46.6439 12.8044L45.4778 8.91042C45.4045 8.66678 45.1796 8.49951 44.9251 8.49951H42.9651C42.7269 8.49951 42.5615 8.73224 42.6372 8.95648L44.8342 15.4038L42.7687 18.3195C42.6063 18.5492 42.7699 18.865 43.0505 18.865H45.0427C45.2318 18.865 45.4087 18.7728 45.516 18.6177L52.1499 9.04194C52.3087 8.81285 52.1457 8.49951 51.8663 8.49951Z" fill="white"/>
<path d="M58.4698 4.66553H54.3244C54.0414 4.66553 53.8002 4.87159 53.7559 5.15159L52.0795 15.7801C52.0462 15.9898 52.2086 16.1789 52.4202 16.1789H54.5474C54.745 16.1789 54.9141 16.0346 54.945 15.8383L55.4208 12.8255C55.4644 12.5449 55.7062 12.3389 55.9892 12.3389H57.3008C60.0317 12.3389 61.6068 11.0176 62.0189 8.39947C62.205 7.25401 62.0262 6.35401 61.4898 5.72371C60.9014 5.03159 59.8571 4.66553 58.4698 4.66553ZM58.948 8.54735C58.722 10.0346 57.5856 10.0346 56.4862 10.0346H55.8614L56.3008 7.25704C56.3268 7.08916 56.4711 6.96553 56.6414 6.96553H56.928C57.6759 6.96553 58.3826 6.96553 58.7474 7.39219C58.965 7.64674 59.0311 8.02492 58.948 8.54735Z" fill="white"/>
<path d="M70.8589 8.49965H68.8753C68.705 8.49965 68.5601 8.62329 68.5346 8.79117L68.4468 9.34632L68.3074 9.14511C67.8777 8.52147 66.9201 8.31299 65.9637 8.31299C63.7704 8.31299 61.8977 9.9742 61.5328 12.3045C61.3437 13.4669 61.6122 14.5784 62.2716 15.3536C62.8777 16.0663 63.7419 16.3633 64.7716 16.3633C66.5389 16.3633 67.5189 15.2269 67.5189 15.2269L67.4304 15.7784C67.3971 15.9894 67.5595 16.1784 67.7722 16.1784H69.5595C69.8425 16.1784 70.0837 15.9724 70.128 15.6918L71.2013 8.89844C71.234 8.68935 71.0716 8.49965 70.8589 8.49965ZM68.0922 12.3627C67.9019 13.4966 67.0007 14.2578 65.8528 14.2578C65.2777 14.2578 64.8159 14.073 64.5201 13.7227C64.2268 13.3748 64.1165 12.8797 64.2086 12.3281C64.3886 11.2039 65.3025 10.4178 66.4328 10.4178C66.9965 10.4178 67.4547 10.6051 67.7565 10.9584C68.0601 11.3154 68.1801 11.8136 68.0922 12.3627Z" fill="white"/>
<path d="M73.199 4.95765L71.4978 15.7807C71.4644 15.9904 71.6269 16.1795 71.8384 16.1795H73.5487C73.8329 16.1795 74.0741 15.9734 74.1178 15.6928L75.7953 5.06492C75.8287 4.85522 75.6662 4.66553 75.4547 4.66553H73.5396C73.3705 4.66613 73.225 4.78977 73.199 4.95765Z" fill="white"/>
<path d="M5.30259 18.2448L5.61956 16.2314L4.9135 16.2151H1.54199L3.88502 1.35871C3.89229 1.31386 3.91593 1.27205 3.95047 1.24235C3.98502 1.21265 4.02926 1.19629 4.07532 1.19629H9.76016C11.6474 1.19629 12.9499 1.58902 13.6299 2.36417C13.9486 2.7278 14.1517 3.1078 14.2499 3.52599C14.3529 3.96477 14.3547 4.48902 14.2541 5.12841L14.2468 5.17508V5.58477L14.5656 5.76538C14.8341 5.9078 15.0474 6.07083 15.2111 6.2575C15.4838 6.56841 15.6602 6.96356 15.7347 7.43205C15.8117 7.91386 15.7862 8.4872 15.6602 9.13629C15.5147 9.88296 15.2796 10.5333 14.962 11.0654C14.6699 11.5557 14.2977 11.9623 13.8559 12.2775C13.4341 12.5769 12.9329 12.8042 12.3662 12.9496C11.8171 13.0927 11.1911 13.1648 10.5044 13.1648H10.062C9.74562 13.1648 9.43835 13.2787 9.19713 13.483C8.95532 13.6914 8.79532 13.9763 8.74623 14.2878L8.71289 14.469L8.15289 18.0175L8.12744 18.1478C8.12077 18.189 8.10926 18.2096 8.09229 18.2236C8.07714 18.2363 8.05532 18.2448 8.03411 18.2448H5.30259Z" fill="white"/>
<path d="M14.8674 5.22217C14.8504 5.33065 14.831 5.44156 14.8092 5.5555C14.0595 9.40459 11.4947 10.7343 8.2189 10.7343H6.55103C6.15042 10.7343 5.81285 11.0252 5.75042 11.4203L4.89648 16.8361L4.65467 18.3713C4.61406 18.6307 4.81406 18.8646 5.07588 18.8646H8.03406C8.38436 18.8646 8.68193 18.61 8.73709 18.2646L8.76618 18.1143L9.32315 14.5797L9.3589 14.3858C9.41345 14.0391 9.71163 13.7846 10.0619 13.7846H10.5044C13.3704 13.7846 15.614 12.621 16.2698 9.25368C16.5437 7.84702 16.4019 6.67247 15.6771 5.84641C15.4577 5.59732 15.1856 5.39065 14.8674 5.22217Z" fill="white"/>
<path d="M14.0834 4.90923C13.9689 4.87589 13.8507 4.84559 13.7295 4.81832C13.6077 4.79165 13.4828 4.76802 13.3544 4.74741C12.9047 4.67468 12.4119 4.64014 11.8841 4.64014H7.42831C7.31861 4.64014 7.21437 4.66499 7.12103 4.70983C6.91558 4.80862 6.76285 5.00317 6.72588 5.24135L5.77801 11.245L5.75073 11.4201C5.81316 11.025 6.15073 10.7341 6.55134 10.7341H8.21921C11.495 10.7341 14.0598 9.40377 14.8095 5.55529C14.8319 5.44135 14.8507 5.33044 14.8677 5.22196C14.678 5.12135 14.4725 5.03529 14.2513 4.96196C14.1968 4.94377 14.1404 4.9262 14.0834 4.90923Z" fill="white"/>
<path d="M6.72558 5.24174C6.76255 5.00356 6.91527 4.80902 7.12073 4.71083C7.21467 4.66599 7.3183 4.64114 7.428 4.64114H11.8838C12.4116 4.64114 12.9044 4.67568 13.3541 4.74841C13.4825 4.76902 13.6074 4.79265 13.7292 4.81932C13.8504 4.84659 13.9686 4.8769 14.0831 4.91023C14.1401 4.9272 14.1965 4.94477 14.2516 4.96235C14.4728 5.03568 14.6783 5.12235 14.868 5.22235C15.091 3.79993 14.8662 2.83144 14.0971 1.95447C13.2492 0.989017 11.7189 0.575684 9.76073 0.575684H4.07588C3.67589 0.575684 3.33467 0.866593 3.27286 1.26235L0.90498 16.2714C0.858313 16.5684 1.0874 16.8363 1.3868 16.8363H4.89649L5.7777 11.2454L6.72558 5.24174Z" fill="white"/>
</g>
<defs>
<clipPath id="clip0_2022_49123">
<rect width="75.1514" height="20" fill="white" transform="translate(0.898926 0.575684)"/>
</clipPath>
</defs>
</svg>
