<svg width="72" height="21" viewBox="0 0 72 21" fill="none" xmlns="http://www.w3.org/2000/svg">
<g clip-path="url(#clip0_2022_49106)">
<path d="M15.7621 4.36368C15.7484 4.26434 15.6616 4.20922 15.5896 4.20322C15.5181 4.19722 14.1177 4.17595 14.1177 4.17595C14.1177 4.17595 12.9464 3.03855 12.8307 2.92285C12.715 2.80715 12.4891 2.84207 12.4012 2.86827C12.4001 2.86882 12.1813 2.93649 11.8129 3.05056C11.7512 2.85081 11.6606 2.60521 11.5312 2.35852C11.1143 1.56279 10.5036 1.142 9.76567 1.14091C9.76459 1.14091 9.76403 1.14091 9.76295 1.14091C9.71164 1.14091 9.66088 1.14582 9.6096 1.15018C9.58777 1.12399 9.56593 1.09834 9.54301 1.07323C9.22154 0.729393 8.80951 0.561842 8.31557 0.576577C7.36265 0.603866 6.41357 1.29208 5.64403 2.51461C5.10262 3.37475 4.69056 4.45539 4.57377 5.29204C3.47949 5.63096 2.71432 5.86781 2.6974 5.87329C2.14508 6.04683 2.12762 6.06375 2.05557 6.58444C2.00209 6.97791 0.556885 18.1532 0.556885 18.1532L12.6681 20.2478L17.9173 18.9429C17.9173 18.9429 15.7757 4.46303 15.7621 4.36368ZM11.2065 3.2383C10.9276 3.32454 10.6105 3.42278 10.2667 3.5292C10.2596 3.04674 10.2023 2.37544 9.97744 1.79528C10.7006 1.93227 11.0564 2.75039 11.2065 3.2383ZM9.63305 3.72568C8.99833 3.92214 8.30574 4.13663 7.61098 4.35168C7.80636 3.60342 8.17695 2.85845 8.63213 2.36998C8.80131 2.18824 9.03816 1.98576 9.31869 1.87005C9.58229 2.42019 9.63961 3.19901 9.63305 3.72568ZM8.33465 1.21076C8.55842 1.20585 8.74672 1.25497 8.90774 1.36085C8.65013 1.49457 8.40124 1.68668 8.16767 1.93719C7.56239 2.58665 7.09849 3.59469 6.91347 4.56726C6.33659 4.74572 5.77226 4.92093 5.25269 5.08139C5.58072 3.55049 6.8638 1.25333 8.33465 1.21076Z" fill="white"/>
<path d="M15.5902 4.20378C15.5187 4.19778 14.1183 4.1765 14.1183 4.1765C14.1183 4.1765 12.9471 3.0391 12.8314 2.9234C12.7882 2.88029 12.7298 2.85791 12.6687 2.84863L12.6693 20.2473L17.9179 18.9429C17.9179 18.9429 15.7763 4.46358 15.7627 4.36424C15.749 4.2649 15.6617 4.20978 15.5902 4.20378Z" fill="white"/>
<path d="M9.75909 6.9029L9.14948 9.18365C9.14948 9.18365 8.46945 8.87421 7.66335 8.92496C6.48119 8.99975 6.46863 9.74526 6.48066 9.93247C6.54506 10.9525 9.2286 11.1752 9.37925 13.5646C9.49768 15.4442 8.38211 16.73 6.77483 16.8316C4.84552 16.9533 3.78345 15.8153 3.78345 15.8153L4.19224 14.0765C4.19224 14.0765 5.26139 14.8832 6.11716 14.8291C6.67604 14.7936 6.87578 14.339 6.85558 14.0176C6.77155 12.687 4.58627 12.7656 4.4482 10.5792C4.33194 8.73942 5.5403 6.87506 8.20637 6.70696C9.23352 6.64093 9.75909 6.9029 9.75909 6.9029Z" fill="white"/>
<path d="M24.8298 11.6784C24.2262 11.3509 23.916 11.0749 23.916 10.6954C23.916 10.2125 24.3469 9.90235 25.0198 9.90235C25.8031 9.90235 26.5024 10.2299 26.5024 10.2299L27.054 8.53985C27.054 8.53985 26.5468 8.14307 25.0539 8.14307C22.9763 8.14307 21.5364 9.33287 21.5364 11.0056C21.5364 11.954 22.2087 12.6782 23.1056 13.1952C23.8299 13.6088 24.0887 13.9022 24.0887 14.3331C24.0887 14.7813 23.7266 15.1434 23.0542 15.1434C22.0522 15.1434 21.106 14.6259 21.106 14.6259L20.5198 16.3159C20.5198 16.3159 21.394 16.9022 22.8648 16.9022C25.003 16.9022 26.5376 15.8504 26.5376 13.9536C26.5371 12.937 25.7614 12.2127 24.8298 11.6784Z" fill="white"/>
<path d="M33.3479 8.12662C32.296 8.12662 31.4684 8.62681 30.8307 9.38521L30.796 9.36786L31.7098 4.5918H29.3301L27.0198 16.7477H29.3994L30.1925 12.5925C30.5026 11.0232 31.313 10.0581 32.0719 10.0581C32.6062 10.0581 32.8135 10.4202 32.8135 10.9377C32.8135 11.2652 32.7789 11.662 32.7101 11.9895L31.8137 16.7483H34.1935L35.1243 11.8341C35.2279 11.3166 35.2971 10.6963 35.2971 10.2822C35.2961 8.93698 34.5892 8.12662 33.3479 8.12662Z" fill="white"/>
<path d="M40.6762 8.12646C37.8135 8.12646 35.9175 10.7129 35.9175 13.5922C35.9175 15.437 37.0552 16.9197 39.1935 16.9197C42.004 16.9197 43.9008 14.4026 43.9008 11.454C43.9008 9.74719 42.9004 8.12646 40.6762 8.12646ZM39.5037 15.0927C38.6932 15.0927 38.3483 14.4031 38.3483 13.5408C38.3483 12.1788 39.0555 9.95453 40.3486 9.95453C41.1935 9.95453 41.469 10.6788 41.469 11.3858C41.469 12.8511 40.7627 15.0927 39.5037 15.0927Z" fill="white"/>
<path d="M49.9872 8.12646C48.381 8.12646 47.4695 9.5404 47.4695 9.5404H47.4354L47.5734 8.2645H45.4698C45.3665 9.12683 45.1764 10.4368 44.9872 11.4199L43.3318 20.127H45.7115L46.3662 16.6095H46.4183C46.4183 16.6095 46.9065 16.9197 47.8151 16.9197C50.6082 16.9197 52.4357 14.0577 52.4357 11.1606C52.4357 9.55774 51.7285 8.12646 49.9872 8.12646ZM47.7111 15.1268C47.0934 15.1268 46.7279 14.782 46.7279 14.782L47.1246 12.5577C47.4006 11.0751 48.1764 10.092 49.0042 10.092C49.7285 10.092 49.9524 10.7643 49.9524 11.4026C49.9524 12.9372 49.0387 15.1268 47.7111 15.1268Z" fill="white"/>
<path d="M55.8327 4.7124C55.0743 4.7124 54.4707 5.31598 54.4707 6.09168C54.4707 6.79866 54.9189 7.28152 55.5914 7.28152H55.6258C56.3674 7.28152 57.0051 6.78132 57.0225 5.90224C57.0225 5.21257 56.5569 4.7124 55.8327 4.7124Z" fill="white"/>
<path d="M52.5049 16.7475H54.8839L56.5052 8.31641H54.1082L52.5049 16.7475Z" fill="white"/>
<path d="M62.5573 8.29907H60.9019L60.9878 7.90229C61.1258 7.09193 61.6088 6.36763 62.4019 6.36763C62.8252 6.36763 63.1603 6.48835 63.1603 6.48835L63.6258 4.62622C63.6258 4.62622 63.2121 4.41943 62.3324 4.41943C61.4875 4.41943 60.6432 4.66084 60.0048 5.21245C59.1944 5.90212 58.815 6.90193 58.6255 7.90229L58.557 8.29907H57.453L57.1081 10.0925H58.2121L56.9534 16.748H59.333L60.5917 10.0925H62.2298L62.5573 8.29907Z" fill="white"/>
<path d="M68.2816 8.31648C68.2816 8.31648 66.794 12.064 66.1262 14.1097H66.0914C66.0462 13.4509 65.5052 8.31648 65.5052 8.31648H63.0049L64.4367 16.0579C64.4714 16.23 64.454 16.334 64.3849 16.4547C64.1085 16.989 63.6432 17.5065 63.0914 17.886C62.6432 18.2134 62.1432 18.4202 61.7468 18.5582L62.4019 20.5758C62.8849 20.4724 63.8845 20.0756 64.7294 19.2825C65.816 18.2654 66.8157 16.6961 67.8501 14.5579L70.7642 8.31592H68.2816V8.31648Z" fill="white"/>
</g>
<defs>
<clipPath id="clip0_2022_49106">
<rect width="70.4918" height="20" fill="white" transform="translate(0.556885 0.575684)"/>
</clipPath>
</defs>
</svg>
