<svg width="50" height="17" viewBox="0 0 50 17" fill="none" xmlns="http://www.w3.org/2000/svg">
<g clip-path="url(#clip0_2022_49135)">
<path d="M32.3987 0.600586C28.9032 0.600586 25.7795 2.41236 25.7795 5.75975C25.7795 9.59858 31.3195 9.86373 31.3195 11.7922C31.3195 12.6043 30.3889 13.3312 28.7996 13.3312C26.5439 13.3312 24.858 12.3155 24.858 12.3155L24.1367 15.6934C24.1367 15.6934 26.0788 16.5513 28.6572 16.5513C32.4789 16.5513 35.4861 14.6506 35.4861 11.2459C35.4861 7.18953 29.923 6.93226 29.923 5.14227C29.923 4.50617 30.6869 3.8092 32.2717 3.8092C34.0599 3.8092 35.5188 4.54787 35.5188 4.54787L36.2248 1.2854C36.2248 1.2854 34.6373 0.600586 32.3987 0.600586ZM0.41838 0.846811L0.33374 1.33926C0.33374 1.33926 1.8043 1.60839 3.12877 2.14526C4.83414 2.76088 4.95562 3.11927 5.24283 4.23239L8.37257 16.2974H12.568L19.0314 0.846811H14.8456L10.6925 11.3517L8.99775 2.44727C8.84233 1.42816 8.05508 0.846811 7.09144 0.846811H0.41838ZM20.7146 0.846811L17.4309 16.2974H21.4225L24.6945 0.846811H20.7146ZM42.9767 0.846811C42.0142 0.846811 41.5042 1.36212 41.13 2.2626L35.2822 16.2974H39.468L40.2778 13.9583H45.3774L45.8698 16.2974H49.5632L46.3411 0.846811H42.9767ZM43.5211 5.02108L44.7618 10.8189H41.4378L43.5211 5.02108Z" fill="white"/>
</g>
<defs>
<clipPath id="clip0_2022_49135">
<rect width="49.2787" height="16" fill="white" transform="translate(0.309326 0.575684)"/>
</clipPath>
</defs>
</svg>
