<svg width="45" height="21" viewBox="0 0 45 21" fill="none" xmlns="http://www.w3.org/2000/svg">
<g clip-path="url(#clip0_2022_49119)">
<path d="M27.1891 9.27346H26.1006C26.0783 9.18438 26.0616 9.08106 26.0505 8.96377C26.0283 8.73548 26.0283 8.50559 26.0505 8.2773C26.0616 8.16027 26.0783 8.05704 26.1006 7.96743H28.8133V16.5572C28.6775 16.5808 28.5406 16.5975 28.4031 16.6072C28.2665 16.6176 28.1296 16.6232 27.9926 16.6238C27.8614 16.6229 27.7302 16.6174 27.5994 16.6072C27.462 16.5974 27.3251 16.5807 27.1894 16.557V9.27311V9.27328L27.1891 9.27346ZM36.6325 11.4336C36.6325 11.121 36.5906 10.8225 36.5071 10.5376C36.4233 10.2531 36.3001 10.0048 36.1387 9.79259C35.9765 9.58071 35.7702 9.41032 35.519 9.28202C35.2679 9.15364 34.9692 9.08936 34.6232 9.08936C33.9423 9.08936 33.4204 9.29617 33.0577 9.70901C32.6949 10.1219 32.4745 10.6968 32.3963 11.4336H36.6326H36.6325ZM32.3796 12.6726C32.4019 13.6102 32.6447 14.2969 33.108 14.732C33.571 15.1673 34.2549 15.3853 35.1591 15.3853C35.9514 15.3853 36.7049 15.2455 37.4193 14.9665C37.5084 15.1339 37.5809 15.3377 37.6368 15.5777C37.6916 15.8113 37.7252 16.0495 37.7372 16.2892C37.3691 16.4459 36.9641 16.5625 36.5235 16.6409C36.0823 16.7188 35.594 16.7581 35.0585 16.7581C34.2769 16.7581 33.607 16.6489 33.0492 16.4315C32.4909 16.2135 32.0305 15.9066 31.6677 15.5105C31.305 15.1143 31.0398 14.6454 30.8723 14.1039C30.705 13.5627 30.6211 12.9682 30.6211 12.3208C30.6211 11.6846 30.7019 11.0901 30.8639 10.5374C31.0254 9.98516 31.2743 9.50508 31.6088 9.09765C31.9439 8.69005 32.3652 8.36647 32.8731 8.12647C33.3808 7.88647 33.9807 7.7663 34.6731 7.7663C35.2647 7.7663 35.7837 7.86691 36.2303 8.06778C36.6766 8.26866 37.0507 8.54499 37.3522 8.8966C37.6535 9.24831 37.8823 9.66691 38.0386 10.1522C38.1948 10.638 38.2732 11.1653 38.2732 11.7348C38.2732 11.8911 38.2673 12.0556 38.2562 12.2286C38.247 12.3766 38.2359 12.5245 38.2228 12.6722H32.3792L32.3794 12.6725L32.3796 12.6726ZM40.0992 7.96743C40.2158 7.94628 40.3331 7.92956 40.4509 7.9173C40.5622 7.90639 40.6797 7.90071 40.8025 7.90071C40.9253 7.90071 41.0479 7.90639 41.1709 7.9173C41.2936 7.92866 41.4053 7.94543 41.5058 7.96743C41.539 8.13494 41.5725 8.35564 41.6059 8.62883C41.6393 8.90237 41.6564 9.13381 41.6564 9.32368C41.8907 8.94429 42.2005 8.61477 42.5854 8.33564C42.9706 8.05678 43.4645 7.91704 44.0672 7.91704C44.1564 7.91704 44.2485 7.92001 44.3434 7.9256C44.4247 7.92997 44.5059 7.93818 44.5862 7.95049C44.6084 8.0511 44.6255 8.1573 44.6365 8.26874C44.6475 8.38027 44.6531 8.49756 44.6531 8.62027C44.6531 8.75433 44.6448 8.89398 44.6281 9.03879C44.612 9.17875 44.5925 9.31829 44.5696 9.4573C44.4792 9.43503 44.3864 9.4238 44.2932 9.42385H44.067C43.7657 9.42385 43.4782 9.46577 43.2047 9.54936C42.931 9.6332 42.6856 9.78115 42.468 9.99302C42.2505 10.2053 42.0773 10.4956 41.9492 10.8639C41.8205 11.2323 41.7565 11.7067 41.7565 12.2871V16.557C41.6207 16.5805 41.4838 16.5974 41.3462 16.6071C41.1957 16.6183 41.0589 16.6237 40.9362 16.6237C40.7993 16.6231 40.6624 16.6176 40.5259 16.6071C40.3829 16.5967 40.2404 16.58 40.0988 16.557V7.96752L40.0992 7.96743ZM28.3478 3.38088C28.3478 3.58129 28.3116 3.78006 28.241 3.96761C28.0534 4.03825 27.8546 4.07447 27.6541 4.07451H27.6516C27.4512 4.07453 27.2523 4.03835 27.0647 3.9677C26.994 3.78011 26.9577 3.58128 26.9578 3.3808V3.37818C26.9578 3.17163 26.9957 2.97381 27.0643 2.79128C27.2519 2.72052 27.4508 2.68434 27.6514 2.68446H27.6536C27.8603 2.68446 28.058 2.72237 28.2405 2.79128C28.3113 2.97886 28.3475 3.1777 28.3474 3.37818V3.3808H28.3476L28.3478 3.38088ZM30.3937 2.91625H28.7714L29.9185 1.76909C29.7381 1.51577 29.5166 1.29438 29.2633 1.11407L28.116 2.26123V0.638788C27.9635 0.613127 27.809 0.600186 27.6543 0.600098H27.6514C27.494 0.600098 27.3398 0.613547 27.1896 0.638788V2.26123L26.0421 1.11398C25.9157 1.20393 25.7971 1.30431 25.6875 1.41407L25.687 1.4146C25.5774 1.52428 25.4771 1.64288 25.3872 1.76918L26.5347 2.91625H24.912C24.912 2.91625 24.8734 3.22106 24.8734 3.37861V3.38053C24.8734 3.53809 24.8867 3.6925 24.9121 3.84281H26.5348L25.3871 4.98979C25.5676 5.24308 25.7891 5.46451 26.0424 5.64499L27.1897 4.49791V6.12045C27.3398 6.1456 27.4936 6.15887 27.6509 6.15905H27.6548C27.8093 6.15891 27.9635 6.146 28.1159 6.12045V4.49791L29.2633 5.64525C29.3897 5.55522 29.5084 5.45485 29.6182 5.34516H29.6185C29.728 5.23537 29.8283 5.11668 29.9182 4.99032L28.7711 3.84289H30.3938C30.419 3.69267 30.4322 3.53879 30.4322 3.38158V3.37756C30.4322 3.22298 30.4193 3.06883 30.3938 2.91643V2.91625H30.3937ZM0.985352 16.3229L5.50622 9.29023H1.52107C1.48771 9.08935 1.47103 8.8663 1.47103 8.62062C1.47103 8.3863 1.48797 8.16839 1.52142 7.96735H7.96771L8.05155 8.18543L3.49723 15.2345H7.76675C7.8002 15.4578 7.81705 15.6865 7.81705 15.9208C7.81705 16.1444 7.80029 16.3563 7.76684 16.5572H1.06919L0.985352 16.3226V16.3229ZM14.0287 12.5218C13.8612 12.4997 13.6491 12.4776 13.3924 12.4549C13.1357 12.4328 12.918 12.4215 12.7397 12.4215C12.0474 12.4215 11.52 12.5499 11.1575 12.8066C10.7944 13.0636 10.6134 13.4541 10.6134 13.9787C10.6134 14.3135 10.6745 14.5759 10.7974 14.7656C10.92 14.9556 11.0736 15.1004 11.2578 15.201C11.4421 15.3014 11.6456 15.3629 11.8688 15.3853C12.0919 15.4075 12.3041 15.4186 12.505 15.4186C12.7618 15.4186 13.0268 15.4046 13.3004 15.3767C13.5737 15.349 13.8165 15.307 14.0288 15.2512V12.5218H14.0287ZM14.0287 10.8978C14.0287 10.239 13.8612 9.78132 13.5265 9.52455C13.1915 9.26778 12.706 9.1394 12.0697 9.1394C11.6787 9.1394 11.3134 9.17032 10.973 9.23163C10.6362 9.29208 10.3034 9.37307 9.97653 9.47416C9.7643 9.10577 9.65863 8.66516 9.65863 8.15136C10.0377 8.02874 10.4562 7.9339 10.9141 7.86691C11.3717 7.79984 11.8126 7.7663 12.237 7.7663C13.3531 7.7663 14.2014 8.02045 14.7819 8.52831C15.3622 9.0366 15.6527 9.84857 15.6527 10.9646V16.3395C15.2618 16.4287 14.7875 16.5208 14.2295 16.6157C13.6652 16.711 13.0939 16.7586 12.5216 16.7581C11.9747 16.7581 11.4805 16.708 11.0398 16.6075C10.5988 16.5068 10.2248 16.3453 9.91793 16.1218C9.61068 15.8987 9.37382 15.614 9.20614 15.268C9.0388 14.9219 8.95505 14.5034 8.95505 14.0122C8.95505 13.5323 9.05269 13.1108 9.24806 12.7479C9.44003 12.3893 9.71226 12.0798 10.0435 11.8438C10.3784 11.6041 10.7634 11.4253 11.1988 11.3082C11.6343 11.1909 12.0917 11.1322 12.5717 11.1322C12.9289 11.1322 13.2219 11.1408 13.4509 11.1576C13.6795 11.1742 13.8722 11.1937 14.0285 11.2161V10.8979L14.0287 10.8978ZM19.1186 15.1504C19.33 15.2285 19.5489 15.2846 19.7717 15.3179C19.995 15.3515 20.2849 15.3682 20.6425 15.3682C21.0442 15.3682 21.4124 15.3042 21.7473 15.1758C22.0823 15.0477 22.3696 14.8494 22.6096 14.5813C22.8496 14.3135 23.0393 13.9761 23.1789 13.5682C23.3184 13.1611 23.3883 12.6784 23.3883 12.12C23.3883 11.2271 23.2234 10.5183 22.8943 9.99355C22.5648 9.46901 22.0262 9.20665 21.2786 9.20665C20.9996 9.20665 20.7315 9.25678 20.4751 9.35739C20.218 9.45783 19.9894 9.60857 19.7884 9.80944C19.5875 10.0103 19.4257 10.2645 19.303 10.5714C19.1798 10.8786 19.1187 11.2439 19.1187 11.6681V15.1507V15.1505L19.1186 15.1504ZM17.461 7.96726C17.5745 7.9449 17.6889 7.92822 17.8042 7.91713C17.9239 7.90605 18.0441 7.90051 18.1643 7.90053C18.2756 7.90053 18.3927 7.9063 18.5157 7.91713C18.6384 7.92848 18.7556 7.94534 18.8674 7.96735C18.8784 7.99005 18.8925 8.05949 18.9093 8.17678C18.9259 8.29407 18.9426 8.41957 18.9595 8.55337C18.9763 8.68743 18.9929 8.81608 19.0097 8.93853C19.0265 9.06149 19.0349 9.13966 19.0349 9.17311C19.1462 8.99468 19.2803 8.8215 19.4366 8.65407C19.5929 8.48656 19.7801 8.33591 19.9978 8.20211C20.2154 8.06805 20.4608 7.96211 20.7344 7.88385C21.0078 7.80577 21.312 7.76639 21.6469 7.76639C22.1491 7.76639 22.6152 7.85023 23.0452 8.01774C23.4747 8.18542 23.8428 8.44455 24.15 8.79626C24.4568 9.14796 24.6967 9.59451 24.8699 10.1357C25.0428 10.6776 25.1293 11.3165 25.1293 12.0531C25.1293 13.5265 24.7302 14.6793 23.9319 15.5108C23.1336 16.3425 22.0038 16.7581 20.5415 16.7581C20.2958 16.7581 20.0448 16.7413 19.7881 16.7079C19.5311 16.6742 19.3081 16.6295 19.1182 16.574V20.5088C18.9768 20.5318 18.8344 20.5486 18.6915 20.559C18.5406 20.57 18.4038 20.5756 18.281 20.5756C18.1441 20.5751 18.0073 20.5695 17.8709 20.559C17.7334 20.5493 17.5965 20.5325 17.4607 20.5088V7.96735L17.461 7.96726Z" fill="white"/>
</g>
<defs>
<clipPath id="clip0_2022_49119">
<rect width="43.6681" height="20" fill="white" transform="translate(0.985107 0.575684)"/>
</clipPath>
</defs>
</svg>
