<svg width="395" height="165" viewBox="0 0 395 165" fill="none" xmlns="http://www.w3.org/2000/svg">
<path d="M139.536 14.6193L139.534 14.6187C132.601 13.1252 125.589 12.0265 118.53 11.3278C108.191 10.3016 97.805 9.80557 87.4144 9.84167C77.0254 9.80564 66.6414 10.3017 56.304 11.3278C49.2445 12.0263 42.2311 13.125 35.2983 14.6187L35.2956 14.6193C25.8952 16.6989 20.9731 18.8175 19.6315 19.4465L19.3465 19.5801L19.3438 19.8949C19.3231 22.2898 19.2982 34.8474 20.6791 50.0487C22.0587 65.2368 24.846 83.1214 30.4732 96.1405L30.9321 95.9422L30.4732 96.1406C41.1989 120.951 56.1251 135.926 66.7699 144.125L67.075 143.729L66.7699 144.125C77.4411 152.345 85.77 155.476 87.249 155.995L87.4144 156.053L87.5798 155.995C89.0589 155.476 97.3908 152.345 108.062 144.125L107.771 143.747L108.062 144.125C118.705 135.926 133.633 120.948 144.36 96.1391L144.36 96.139C149.988 83.1206 152.774 65.2345 154.153 50.0457C155.534 34.8436 155.509 22.286 155.489 19.8951L155.487 19.58L155.202 19.4464C153.859 18.8175 148.935 16.6989 139.536 14.6193ZM29.8715 96.3867L29.4125 96.5851L29.8714 96.3867C23.9599 82.7122 21.1581 63.6249 19.84 47.8529C18.5248 32.1149 18.6913 19.7406 18.6953 19.4728C18.6953 19.4725 18.6953 19.4722 18.6953 19.4719L18.7006 19.1932L18.9543 19.0625C19.6606 18.7001 38.6235 9.20593 87.4144 9.20593C136.209 9.20593 155.171 18.7002 155.876 19.0623L155.876 19.0625L156.131 19.1935L156.137 19.472C156.137 19.4722 156.137 19.4723 156.137 19.4725C156.14 19.7293 156.307 32.1076 154.991 47.8529C153.672 63.6249 150.871 82.7122 144.961 96.3867C134.174 121.339 119.154 136.393 108.465 144.625C96.8444 153.575 87.9064 156.565 87.5696 156.674L87.5678 156.675L87.4148 156.725L87.2631 156.675L87.2618 156.674C86.9267 156.565 77.9856 153.575 66.3665 144.625C55.6766 136.393 40.658 121.339 29.8715 96.3867Z" fill="#899194" stroke="#1E2328"/>
<path d="M37.7014 22.3137C37.7014 21.2092 38.5968 20.3137 39.7014 20.3137H77.7069L42.1973 21.1938C40.6456 21.2323 39.7272 22.9468 40.555 24.2598L75.7735 80.1229C76.6132 81.4547 75.6561 83.1895 74.0817 83.1895H39.7014C38.5968 83.1895 37.7014 82.2941 37.7014 81.1895V22.3137Z" fill="black"/>
<path d="M92.343 20.3137H137.179C138.283 20.3137 139.179 21.2092 139.179 22.3137V79.6821C139.179 80.7559 138.331 81.638 137.258 81.6805L102.979 83.0387C101.369 83.1025 100.348 81.3328 101.21 79.9708L135.786 25.3341C136.606 24.0377 135.721 22.3383 134.189 22.2668L92.343 20.3137Z" fill="black"/>
<path d="M122.591 70.8965C122.123 70.9 121.661 70.9461 121.215 71.0348C121.424 71.2618 121.531 71.5207 121.537 71.7832C121.537 72.6415 120.432 73.3367 119.068 73.3367C118.65 73.3331 118.239 73.2658 117.878 73.1345C117.123 74.7767 118.633 76.4934 121.244 76.9651C123.854 77.4368 126.583 76.4898 127.332 74.8476C128.082 73.2055 126.577 71.4888 123.967 71.0171C123.521 70.9355 123.059 70.8965 122.591 70.8965ZM135.124 73.5956C132.733 70.6624 128.003 68.6797 122.591 68.6797C117.179 68.6797 112.449 70.6659 110.059 73.5956C109.856 73.851 109.856 74.1489 110.059 74.4043C112.449 77.3375 117.179 79.3202 122.591 79.3202C128.003 79.3202 132.733 77.334 135.124 74.4043C135.326 74.1489 135.326 73.851 135.124 73.5956ZM122.591 77.9901C118.244 77.9901 114.264 76.465 112.111 73.9999C114.264 71.5349 118.244 70.0098 122.591 70.0098C126.938 70.0098 130.918 71.5349 133.071 73.9999C130.918 76.465 126.938 77.9901 122.591 77.9901Z" fill="#A2C4D7"/>
<path d="M53.3133 70.8965C52.8453 70.9 52.383 70.9461 51.9377 71.0348C52.1463 71.2618 52.2534 71.5207 52.259 71.7832C52.259 72.6415 51.154 73.3367 49.7897 73.3367C49.3726 73.3331 48.961 73.2658 48.6002 73.1345C47.8448 74.7767 49.3556 76.4934 51.9659 76.9651C54.5761 77.4368 57.3047 76.4898 58.0545 74.8476C58.8043 73.2055 57.2991 71.4888 54.6888 71.0171C54.2435 70.9355 53.7812 70.8965 53.3133 70.8965ZM65.8457 73.5956C63.4554 70.6624 58.7254 68.6797 53.3133 68.6797C47.9011 68.6797 43.1712 70.6659 40.7808 73.5956C40.5778 73.851 40.5778 74.1489 40.7808 74.4043C43.1712 77.3375 47.9011 79.3202 53.3133 79.3202C58.7254 79.3202 63.4554 77.334 65.8457 74.4043C66.0487 74.1489 66.0487 73.851 65.8457 73.5956ZM53.3133 77.9901C48.9666 77.9901 44.9865 76.465 42.8329 73.9999C44.9865 71.5349 48.9666 70.0098 53.3133 70.0098C57.6599 70.0098 61.64 71.5349 63.7936 73.9999C61.64 76.465 57.6599 77.9901 53.3133 77.9901Z" fill="#A2C4D7"/>
<path d="M177.42 83.9801V78.9091H201.312V83.9801H192.406V108H186.327V83.9801H177.42ZM202.868 108V86.1818H208.734V89.9886H208.962C209.359 88.6345 210.027 87.6117 210.964 86.9205C211.902 86.2197 212.982 85.8693 214.203 85.8693C214.506 85.8693 214.833 85.8883 215.183 85.9261C215.534 85.964 215.841 86.0161 216.107 86.0824V91.4517C215.822 91.3665 215.429 91.2907 214.928 91.2244C214.426 91.1581 213.966 91.125 213.55 91.125C212.66 91.125 211.864 91.3191 211.163 91.7074C210.472 92.0862 209.923 92.6165 209.516 93.2983C209.118 93.9801 208.919 94.7661 208.919 95.6562V108H202.868ZM233.227 98.7102V86.1818H239.278V108H233.468V104.037H233.241C232.748 105.315 231.929 106.343 230.783 107.119C229.647 107.896 228.26 108.284 226.621 108.284C225.163 108.284 223.88 107.953 222.772 107.29C221.664 106.627 220.798 105.685 220.173 104.463C219.557 103.241 219.245 101.778 219.235 100.074V86.1818H225.286V98.9943C225.296 100.282 225.641 101.3 226.323 102.048C227.005 102.796 227.919 103.17 229.065 103.17C229.794 103.17 230.476 103.005 231.11 102.673C231.745 102.332 232.256 101.83 232.644 101.168C233.042 100.505 233.236 99.6856 233.227 98.7102ZM262.271 92.4034L256.732 92.7443C256.637 92.2708 256.433 91.8447 256.121 91.4659C255.808 91.0777 255.396 90.7699 254.885 90.5426C254.383 90.3059 253.782 90.1875 253.081 90.1875C252.143 90.1875 251.353 90.3864 250.709 90.7841C250.065 91.1723 249.743 91.6932 249.743 92.3466C249.743 92.8674 249.951 93.3078 250.368 93.6676C250.785 94.0275 251.5 94.3163 252.513 94.5341L256.462 95.3295C258.583 95.7652 260.164 96.4659 261.206 97.4318C262.248 98.3977 262.768 99.6667 262.768 101.239C262.768 102.669 262.347 103.923 261.504 105.003C260.671 106.082 259.525 106.925 258.067 107.531C256.618 108.128 254.946 108.426 253.053 108.426C250.164 108.426 247.863 107.825 246.149 106.622C244.445 105.41 243.446 103.762 243.152 101.679L249.104 101.366C249.284 102.247 249.719 102.92 250.411 103.384C251.102 103.838 251.987 104.065 253.067 104.065C254.127 104.065 254.98 103.862 255.624 103.455C256.277 103.038 256.608 102.503 256.618 101.849C256.608 101.3 256.376 100.85 255.922 100.5C255.467 100.14 254.767 99.8655 253.82 99.6761L250.041 98.9233C247.911 98.4972 246.324 97.7585 245.283 96.7074C244.25 95.6562 243.734 94.3163 243.734 92.6875C243.734 91.286 244.113 90.0786 244.871 89.0653C245.638 88.0521 246.713 87.2708 248.095 86.7216C249.487 86.1723 251.116 85.8977 252.982 85.8977C255.737 85.8977 257.906 86.4801 259.487 87.6449C261.078 88.8097 262.006 90.3958 262.271 92.4034ZM278.184 86.1818V90.7273H265.045V86.1818H278.184ZM268.028 80.9545H274.079V101.295C274.079 101.854 274.164 102.29 274.335 102.602C274.505 102.905 274.742 103.118 275.045 103.241C275.357 103.365 275.717 103.426 276.124 103.426C276.408 103.426 276.692 103.402 276.977 103.355C277.261 103.298 277.478 103.256 277.63 103.227L278.582 107.73C278.279 107.825 277.853 107.934 277.303 108.057C276.754 108.189 276.086 108.27 275.3 108.298C273.842 108.355 272.564 108.161 271.465 107.716C270.376 107.271 269.529 106.58 268.923 105.642C268.317 104.705 268.018 103.521 268.028 102.091V80.9545ZM291.497 108V78.9091H302.974C305.181 78.9091 307.061 79.3305 308.614 80.1733C310.167 81.0066 311.35 82.1667 312.165 83.6534C312.989 85.1307 313.401 86.8352 313.401 88.767C313.401 90.6989 312.984 92.4034 312.151 93.8807C311.317 95.358 310.11 96.5085 308.528 97.3324C306.956 98.1562 305.053 98.5682 302.818 98.5682H295.503V93.6392H301.824C303.008 93.6392 303.983 93.4356 304.75 93.0284C305.527 92.6117 306.104 92.0388 306.483 91.3097C306.871 90.571 307.065 89.7235 307.065 88.767C307.065 87.8011 306.871 86.9583 306.483 86.2386C306.104 85.5095 305.527 84.946 304.75 84.5483C303.973 84.1411 302.989 83.9375 301.795 83.9375H297.648V108H291.497ZM326.788 108.426C324.582 108.426 322.674 107.957 321.064 107.02C319.464 106.073 318.228 104.757 317.357 103.071C316.485 101.376 316.05 99.411 316.05 97.1761C316.05 94.9223 316.485 92.9527 317.357 91.267C318.228 89.572 319.464 88.2557 321.064 87.3182C322.674 86.3712 324.582 85.8977 326.788 85.8977C328.995 85.8977 330.898 86.3712 332.499 87.3182C334.108 88.2557 335.349 89.572 336.22 91.267C337.091 92.9527 337.527 94.9223 337.527 97.1761C337.527 99.411 337.091 101.376 336.22 103.071C335.349 104.757 334.108 106.073 332.499 107.02C330.898 107.957 328.995 108.426 326.788 108.426ZM326.817 103.739C327.821 103.739 328.659 103.455 329.331 102.886C330.003 102.309 330.51 101.523 330.851 100.528C331.201 99.5341 331.376 98.4025 331.376 97.1335C331.376 95.8646 331.201 94.733 330.851 93.7386C330.51 92.7443 330.003 91.9583 329.331 91.3807C328.659 90.803 327.821 90.5142 326.817 90.5142C325.804 90.5142 324.951 90.803 324.26 91.3807C323.578 91.9583 323.062 92.7443 322.712 93.7386C322.371 94.733 322.2 95.8646 322.2 97.1335C322.2 98.4025 322.371 99.5341 322.712 100.528C323.062 101.523 323.578 102.309 324.26 102.886C324.951 103.455 325.804 103.739 326.817 103.739ZM341.462 108V86.1818H347.513V108H341.462ZM344.501 83.3693C343.602 83.3693 342.83 83.071 342.186 82.4744C341.552 81.8684 341.234 81.1439 341.234 80.3011C341.234 79.4678 341.552 78.7528 342.186 78.1562C342.83 77.5502 343.602 77.2472 344.501 77.2472C345.401 77.2472 346.168 77.5502 346.803 78.1562C347.446 78.7528 347.768 79.4678 347.768 80.3011C347.768 81.1439 347.446 81.8684 346.803 82.4744C346.168 83.071 345.401 83.3693 344.501 83.3693ZM358.411 95.3864V108H352.36V86.1818H358.127V90.0312H358.383C358.866 88.7623 359.675 87.7585 360.812 87.0199C361.948 86.2718 363.326 85.8977 364.945 85.8977C366.46 85.8977 367.781 86.2292 368.908 86.892C370.035 87.5549 370.911 88.5019 371.536 89.733C372.161 90.9545 372.474 92.4129 372.474 94.108V108H366.423V95.1875C366.432 93.8523 366.091 92.8106 365.4 92.0625C364.709 91.3049 363.757 90.9261 362.545 90.9261C361.73 90.9261 361.011 91.1013 360.386 91.4517C359.77 91.8021 359.287 92.3134 358.937 92.9858C358.596 93.6487 358.421 94.4489 358.411 95.3864ZM388.848 86.1818V90.7273H375.709V86.1818H388.848ZM378.692 80.9545H384.743V101.295C384.743 101.854 384.828 102.29 384.999 102.602C385.169 102.905 385.406 103.118 385.709 103.241C386.021 103.365 386.381 103.426 386.788 103.426C387.072 103.426 387.357 103.402 387.641 103.355C387.925 103.298 388.143 103.256 388.294 103.227L389.246 107.73C388.943 107.825 388.517 107.934 387.967 108.057C387.418 108.189 386.75 108.27 385.964 108.298C384.506 108.355 383.228 108.161 382.129 107.716C381.04 107.271 380.193 106.58 379.587 105.642C378.981 104.705 378.682 103.521 378.692 102.091V80.9545Z" fill="#A2C4D7"/>
<path d="M197.31 124.276C197.196 123.13 196.708 122.24 195.847 121.605C194.985 120.971 193.815 120.653 192.338 120.653C191.334 120.653 190.487 120.795 189.795 121.08C189.104 121.354 188.574 121.738 188.205 122.23C187.845 122.723 187.665 123.281 187.665 123.906C187.646 124.427 187.755 124.882 187.991 125.27C188.238 125.658 188.574 125.994 189 126.278C189.426 126.553 189.919 126.795 190.477 127.003C191.036 127.202 191.633 127.372 192.267 127.514L194.881 128.139C196.15 128.423 197.314 128.802 198.375 129.276C199.436 129.749 200.354 130.331 201.131 131.023C201.907 131.714 202.509 132.528 202.935 133.466C203.37 134.403 203.593 135.478 203.602 136.69C203.593 138.471 203.138 140.014 202.239 141.321C201.348 142.618 200.061 143.627 198.375 144.347C196.699 145.057 194.677 145.412 192.31 145.412C189.961 145.412 187.916 145.052 186.173 144.332C184.44 143.613 183.086 142.547 182.111 141.136C181.145 139.716 180.638 137.959 180.591 135.866H186.543C186.609 136.842 186.888 137.656 187.381 138.31C187.883 138.954 188.55 139.441 189.384 139.773C190.226 140.095 191.178 140.256 192.239 140.256C193.28 140.256 194.185 140.104 194.952 139.801C195.728 139.498 196.33 139.077 196.756 138.537C197.182 137.997 197.395 137.377 197.395 136.676C197.395 136.023 197.201 135.473 196.812 135.028C196.434 134.583 195.875 134.205 195.136 133.892C194.407 133.58 193.512 133.295 192.452 133.04L189.284 132.244C186.831 131.648 184.895 130.715 183.474 129.446C182.054 128.177 181.348 126.468 181.358 124.318C181.348 122.557 181.817 121.018 182.764 119.702C183.721 118.385 185.032 117.358 186.699 116.619C188.366 115.881 190.259 115.511 192.381 115.511C194.54 115.511 196.424 115.881 198.034 116.619C199.653 117.358 200.913 118.385 201.812 119.702C202.712 121.018 203.176 122.543 203.205 124.276H197.31ZM221.084 145.426C218.877 145.426 216.969 144.957 215.359 144.02C213.759 143.073 212.523 141.757 211.652 140.071C210.781 138.376 210.345 136.411 210.345 134.176C210.345 131.922 210.781 129.953 211.652 128.267C212.523 126.572 213.759 125.256 215.359 124.318C216.969 123.371 218.877 122.898 221.084 122.898C223.29 122.898 225.194 123.371 226.794 124.318C228.404 125.256 229.644 126.572 230.515 128.267C231.387 129.953 231.822 131.922 231.822 134.176C231.822 136.411 231.387 138.376 230.515 140.071C229.644 141.757 228.404 143.073 226.794 144.02C225.194 144.957 223.29 145.426 221.084 145.426ZM221.112 140.739C222.116 140.739 222.954 140.455 223.626 139.886C224.299 139.309 224.805 138.523 225.146 137.528C225.497 136.534 225.672 135.402 225.672 134.134C225.672 132.865 225.497 131.733 225.146 130.739C224.805 129.744 224.299 128.958 223.626 128.381C222.954 127.803 222.116 127.514 221.112 127.514C220.099 127.514 219.247 127.803 218.555 128.381C217.873 128.958 217.357 129.744 217.007 130.739C216.666 131.733 216.496 132.865 216.496 134.134C216.496 135.402 216.666 136.534 217.007 137.528C217.357 138.523 217.873 139.309 218.555 139.886C219.247 140.455 220.099 140.739 221.112 140.739ZM245.408 115.909V145H239.357V115.909H245.408ZM267.847 135.71V123.182H273.898V145H268.088V141.037H267.861C267.369 142.315 266.55 143.343 265.404 144.119C264.267 144.896 262.88 145.284 261.242 145.284C259.783 145.284 258.5 144.953 257.392 144.29C256.284 143.627 255.418 142.685 254.793 141.463C254.177 140.241 253.865 138.778 253.855 137.074V123.182H259.907V135.994C259.916 137.282 260.262 138.3 260.943 139.048C261.625 139.796 262.539 140.17 263.685 140.17C264.414 140.17 265.096 140.005 265.73 139.673C266.365 139.332 266.876 138.83 267.264 138.168C267.662 137.505 267.856 136.686 267.847 135.71ZM293.943 123.182V127.727H280.804V123.182H293.943ZM283.787 117.955H289.838V138.295C289.838 138.854 289.923 139.29 290.094 139.602C290.264 139.905 290.501 140.118 290.804 140.241C291.117 140.365 291.476 140.426 291.884 140.426C292.168 140.426 292.452 140.402 292.736 140.355C293.02 140.298 293.238 140.256 293.389 140.227L294.341 144.73C294.038 144.825 293.612 144.934 293.063 145.057C292.513 145.189 291.846 145.27 291.06 145.298C289.601 145.355 288.323 145.161 287.225 144.716C286.136 144.271 285.288 143.58 284.682 142.642C284.076 141.705 283.778 140.521 283.787 139.091V117.955ZM301.485 145V123.182H307.536V145H301.485ZM304.525 120.369C303.625 120.369 302.853 120.071 302.21 119.474C301.575 118.868 301.258 118.144 301.258 117.301C301.258 116.468 301.575 115.753 302.21 115.156C302.853 114.55 303.625 114.247 304.525 114.247C305.424 114.247 306.192 114.55 306.826 115.156C307.47 115.753 307.792 116.468 307.792 117.301C307.792 118.144 307.47 118.868 306.826 119.474C306.192 120.071 305.424 120.369 304.525 120.369ZM325.841 145.426C323.635 145.426 321.727 144.957 320.117 144.02C318.517 143.073 317.281 141.757 316.41 140.071C315.538 138.376 315.103 136.411 315.103 134.176C315.103 131.922 315.538 129.953 316.41 128.267C317.281 126.572 318.517 125.256 320.117 124.318C321.727 123.371 323.635 122.898 325.841 122.898C328.048 122.898 329.951 123.371 331.552 124.318C333.162 125.256 334.402 126.572 335.273 128.267C336.145 129.953 336.58 131.922 336.58 134.176C336.58 136.411 336.145 138.376 335.273 140.071C334.402 141.757 333.162 143.073 331.552 144.02C329.951 144.957 328.048 145.426 325.841 145.426ZM325.87 140.739C326.874 140.739 327.712 140.455 328.384 139.886C329.056 139.309 329.563 138.523 329.904 137.528C330.254 136.534 330.43 135.402 330.43 134.134C330.43 132.865 330.254 131.733 329.904 130.739C329.563 129.744 329.056 128.958 328.384 128.381C327.712 127.803 326.874 127.514 325.87 127.514C324.857 127.514 324.004 127.803 323.313 128.381C322.631 128.958 322.115 129.744 321.765 130.739C321.424 131.733 321.253 132.865 321.253 134.134C321.253 135.402 321.424 136.534 321.765 137.528C322.115 138.523 322.631 139.309 323.313 139.886C324.004 140.455 324.857 140.739 325.87 140.739ZM350.166 132.386V145H344.115V123.182H349.882V127.031H350.137C350.62 125.762 351.43 124.759 352.566 124.02C353.703 123.272 355.081 122.898 356.7 122.898C358.215 122.898 359.536 123.229 360.663 123.892C361.79 124.555 362.666 125.502 363.291 126.733C363.916 127.955 364.228 129.413 364.228 131.108V145H358.177V132.188C358.187 130.852 357.846 129.811 357.155 129.062C356.463 128.305 355.512 127.926 354.299 127.926C353.485 127.926 352.765 128.101 352.14 128.452C351.525 128.802 351.042 129.313 350.691 129.986C350.351 130.649 350.175 131.449 350.166 132.386ZM390.751 129.403L385.211 129.744C385.117 129.271 384.913 128.845 384.6 128.466C384.288 128.078 383.876 127.77 383.365 127.543C382.863 127.306 382.261 127.188 381.561 127.188C380.623 127.188 379.832 127.386 379.188 127.784C378.545 128.172 378.223 128.693 378.223 129.347C378.223 129.867 378.431 130.308 378.848 130.668C379.264 131.027 379.979 131.316 380.992 131.534L384.941 132.33C387.063 132.765 388.644 133.466 389.686 134.432C390.727 135.398 391.248 136.667 391.248 138.239C391.248 139.669 390.827 140.923 389.984 142.003C389.151 143.082 388.005 143.925 386.546 144.531C385.098 145.128 383.426 145.426 381.532 145.426C378.644 145.426 376.343 144.825 374.629 143.622C372.924 142.41 371.925 140.762 371.632 138.679L377.583 138.366C377.763 139.247 378.199 139.92 378.89 140.384C379.581 140.838 380.467 141.065 381.546 141.065C382.607 141.065 383.459 140.862 384.103 140.455C384.757 140.038 385.088 139.503 385.098 138.849C385.088 138.3 384.856 137.85 384.402 137.5C383.947 137.14 383.246 136.866 382.299 136.676L378.521 135.923C376.39 135.497 374.804 134.759 373.762 133.707C372.73 132.656 372.214 131.316 372.214 129.688C372.214 128.286 372.593 127.079 373.35 126.065C374.117 125.052 375.192 124.271 376.575 123.722C377.967 123.172 379.596 122.898 381.461 122.898C384.217 122.898 386.385 123.48 387.967 124.645C389.558 125.81 390.486 127.396 390.751 129.403Z" fill="#A2C4D7"/>
</svg>
